<mxfile host="65bd71144e">
    <diagram id="S_cuvpE-oGFunFcnRMRZ" name="Page-1">
        <mxGraphModel dx="632" dy="806" grid="1" gridSize="10" guides="1" tooltips="1" connect="1" arrows="1" fold="1" page="1" pageScale="1" pageWidth="1169" pageHeight="827" math="0" shadow="0">
            <root>
                <mxCell id="0"/>
                <mxCell id="1" parent="0"/>
                <mxCell id="2" value="A2, albo jakiś większy brystol - w trakcie rysunków, przyklejami tę kartkę taśmą do stołu, &lt;br&gt;po zakończonych rysunkach, odcinamy do czerwonego obczasy, tabliczka musi być obligatoryjnie&lt;br&gt;&lt;br&gt;Całość w 3 egzemplarzach - tzn na 3 rysunki." style="whiteSpace=wrap;html=1;align=left;verticalAlign=top;spacing=10;fontFamily=Courier New;" parent="1" vertex="1">
                    <mxGeometry x="40" y="40" width="1080" height="760" as="geometry"/>
                </mxCell>
                <mxCell id="3" value="A3 297x420mm" style="whiteSpace=wrap;html=1;verticalAlign=top;align=left;fillColor=#f8cecc;strokeColor=#b85450;spacing=10;fontFamily=Courier New;" parent="1" vertex="1">
                    <mxGeometry x="120" y="120" width="920" height="600" as="geometry"/>
                </mxCell>
                <mxCell id="4" value="10-20mm&lt;br&gt;" style="edgeStyle=none;orthogonalLoop=1;jettySize=auto;html=1;endArrow=classic;startArrow=classic;endSize=8;startSize=8;fontFamily=Courier New;" parent="1" edge="1">
                    <mxGeometry width="100" relative="1" as="geometry">
                        <mxPoint x="920" y="120" as="sourcePoint"/>
                        <mxPoint x="920" y="40" as="targetPoint"/>
                        <Array as="points"/>
                    </mxGeometry>
                </mxCell>
                <mxCell id="5" value="Obszar projektowy&lt;br&gt;&lt;br&gt;tu będziemy rysować" style="whiteSpace=wrap;html=1;fontFamily=Courier New;" parent="1" vertex="1">
                    <mxGeometry x="200" y="200" width="760" height="440" as="geometry"/>
                </mxCell>
                <mxCell id="17" style="edgeStyle=none;html=1;fontFamily=Courier New;targetPerimeterSpacing=5;sourcePerimeterSpacing=5;dashed=1;fillColor=#e1d5e7;strokeColor=#9673a6;" edge="1" parent="1" source="6" target="16">
                    <mxGeometry relative="1" as="geometry"/>
                </mxCell>
                <mxCell id="6" value="Tabliczka projektowa/&lt;br&gt;pismo techniczne pochyłe typu B, norma ISO" style="whiteSpace=wrap;html=1;fillColor=#e1d5e7;strokeColor=#9673a6;dashed=1;fontFamily=Courier New;rounded=1;glass=0;shadow=1;" parent="1" vertex="1">
                    <mxGeometry x="790" y="320" width="150" height="80" as="geometry"/>
                </mxCell>
                <mxCell id="7" value="20mm" style="edgeStyle=none;orthogonalLoop=1;jettySize=auto;html=1;endArrow=classic;startArrow=classic;endSize=8;startSize=8;fontFamily=Courier New;" parent="1" edge="1">
                    <mxGeometry width="100" relative="1" as="geometry">
                        <mxPoint x="120" y="600" as="sourcePoint"/>
                        <mxPoint x="200" y="600" as="targetPoint"/>
                        <Array as="points"/>
                    </mxGeometry>
                </mxCell>
                <mxCell id="8" value="5mm" style="edgeStyle=none;orthogonalLoop=1;jettySize=auto;html=1;endArrow=classic;startArrow=classic;endSize=8;startSize=8;fontFamily=Courier New;" parent="1" edge="1">
                    <mxGeometry width="100" relative="1" as="geometry">
                        <mxPoint x="920" y="199.99999999999977" as="sourcePoint"/>
                        <mxPoint x="920" y="120" as="targetPoint"/>
                        <Array as="points"/>
                    </mxGeometry>
                </mxCell>
                <mxCell id="9" value="5mm" style="edgeStyle=none;orthogonalLoop=1;jettySize=auto;html=1;endArrow=classic;startArrow=classic;endSize=8;startSize=8;fontFamily=Courier New;" parent="1" edge="1">
                    <mxGeometry width="100" relative="1" as="geometry">
                        <mxPoint x="240" y="719.9999999999998" as="sourcePoint"/>
                        <mxPoint x="240" y="640" as="targetPoint"/>
                        <Array as="points"/>
                    </mxGeometry>
                </mxCell>
                <mxCell id="11" value="5mm" style="edgeStyle=none;orthogonalLoop=1;jettySize=auto;html=1;endArrow=classic;startArrow=classic;endSize=8;startSize=8;fontFamily=Courier New;" parent="1" edge="1">
                    <mxGeometry width="100" relative="1" as="geometry">
                        <mxPoint x="960" y="239.99999999999977" as="sourcePoint"/>
                        <mxPoint x="1040" y="239.99999999999977" as="targetPoint"/>
                        <Array as="points"/>
                    </mxGeometry>
                </mxCell>
                <mxCell id="12" value="taśma" style="whiteSpace=wrap;html=1;rotation=45;fillColor=#d5e8d4;strokeColor=#82b366;fontFamily=Courier New;" vertex="1" parent="1">
                    <mxGeometry y="730" width="200" height="20" as="geometry"/>
                </mxCell>
                <mxCell id="13" value="taśma" style="whiteSpace=wrap;html=1;rotation=45;fillColor=#d5e8d4;strokeColor=#82b366;fontFamily=Courier New;" vertex="1" parent="1">
                    <mxGeometry x="969" y="80" width="200" height="20" as="geometry"/>
                </mxCell>
                <mxCell id="16" value="" style="shape=image;verticalLabelPosition=bottom;labelBackgroundColor=default;verticalAlign=top;aspect=fixed;imageAspect=0;image=data:image/png,iVBORw0KGgoAAAANSUhEUgAAAvoAAAEzCAYAAABAEKc0AAAKs2lDQ1BJQ0MgUHJvZmlsZQAAeJyVlwdUk9kSgOf/0xstIRQpoTdBOgGk1wAK0kFUQhIglBADQcWuLK7gWhARwbKgqyIKrgWQtWLBimLDviCLiLouFmxY3g8cgrvvvPfOm//cc79//rkzc++5kzMBYLD4UmkWqgKQLcmTRQb5cuITEjmkPqAACzTAEjT4glypT0REGGAyNv9d3t0GZHi+YT3s69+//1dRFYpyBQBIBMYpwlxBNsaHsPFSIJXlAeB2YHqjOXnSYT6PMUuGJYjxg2FOG+WBYU4ZYTx+xCY60g9jTQAync+XpQHQjTE9J1+Qhvmh+2NsKxGKJRhj7+CZnZ0jxBiLC+aYjRTjYf/clO/8pP3NZ4rCJ5+fpuDRvYwI2V+cK83iz/s/j+N/S3aWfCyGKTbo6bLgSGxmY2d2JzMnVMGSlKnhYywWjtiPcLo8OGaMBbl+iWMs5PuHKtZmTQ0b41RxIE/hJ48XPcai3ICoMZblRCpipcr8fMaYLxuPK8+MUejTRTyF/4L06LgxzhfHTh3j3Myo0HEbP4VeJo9U5C+SBPmOxw1U7D0797v9inmKtXnp0cGKvfPH8xdJfMZ95sYrchOK/APGbWIU9tI8X0UsaVaEwl6UFaTQ5+ZHKdbmYRdyfG2E4gwz+CERYwz+EABh2MOBGHAAR7ADV8BOJk80d/iOgl+OdJ5MnJaex/HBqkzE4UkENhM59rb2DgDDNTt6Jd5EjtQiwj4+rsvBaoj7DquTdeO6lDKApiIAzXvjOuOtAMqFAI2tArksf1Q3XE5AACooY78HWqAHRmAO1mAPzuAO3ljGIRAO0ZAAM0EA6ZANMpgDC2ApFEEJrIUNUAnbYDvshn1wAJrgKJyCc3AJrsEtuA9d0AvPYQDewRCCICSEgTARLUQfMUGsEHuEi3giAUgYEokkIMlIGiJB5MgCZDlSgpQilUg1Uov8ihxBTiEXkA7kLtKN9COvkU8oDqWjLFQXNUUnoVzUBw1Fo9EZaBo6Gy1AC9HVaAVag+5FG9FT6CX0FtqFPkcHcYCj4dg4A5w1jovzw4XjEnGpOBluEa4YV46rwdXjWnBtuBu4LtwL3Ec8Ec/Ec/DWeHd8MD4GL8DPxi/Cr8JX4nfjG/Fn8Dfw3fgB/FcCg6BDsCK4EXiEeEIaYQ6hiFBO2Ek4TDhLuEXoJbwjEolsohnRhRhMTCBmEOcTVxG3EBuIJ4kdxB7iIIlE0iJZkTxI4SQ+KY9URNpE2ks6QbpO6iV9INPI+mR7ciA5kSwhLyOXk/eQj5Ovk/vIQxQVignFjRJOEVLmUdZQdlBaKFcpvZQhqirVjOpBjaZmUJdSK6j11LPUB9Q3NBrNkOZKm0YT05bQKmj7aedp3bSPdDW6Jd2PnkSX01fTd9FP0u/S3zAYDFOGNyORkcdYzahlnGY8YnxQYirZKPGUhEqLlaqUGpWuK71UpiibKPsoz1QuUC5XPqh8VfmFCkXFVMVPha+ySKVK5YhKp8qgKlPVTjVcNVt1leoe1QuqT9VIaqZqAWpCtUK17Wqn1XqYOKYR048pYC5n7mCeZfayiCwzFo+VwSph7WO1swbU1dQd1WPV56pXqR9T72Lj2KZsHjuLvYZ9gH2b/UlDV8NHQ6SxUqNe47rGe80Jmt6aIs1izQbNW5qftDhaAVqZWuu0mrQeauO1LbWnac/R3qp9VvvFBNYE9wmCCcUTDky4p4PqWOpE6szX2a5zWWdQV083SFequ0n3tO4LPbaet16GXpnecb1+faa+p75Yv0z/hP4zjjrHh5PFqeCc4QwY6BgEG8gNqg3aDYYMzQxjDJcZNhg+NKIacY1SjcqMWo0GjPWNpxgvMK4zvmdCMeGapJtsNGkzeW9qZhpnusK0yfSpmaYZz6zArM7sgTnD3Mt8tnmN+U0LogXXItNii8U1S9TSyTLdssryqhVq5Wwlttpi1TGRMNF1omRizcROa7q1j3W+dZ11tw3bJsxmmU2TzctJxpMSJ62b1Dbpq62TbZbtDtv7dmp2IXbL7FrsXttb2gvsq+xvOjAcAh0WOzQ7vHK0chQ5bnW848R0muK0wqnV6Yuzi7PMud6538XYJdlls0snl8WN4K7inncluPq6LnY96vrRzdktz+2A21/u1u6Z7nvcn042myyavGNyj4ehB9+j2qPLk+OZ7PmzZ5eXgRffq8brsbeRt9B7p3efj4VPhs9en5e+tr4y38O+7/3c/Bb6nfTH+Qf5F/u3B6gFxARUBjwKNAxMC6wLHAhyCpofdDKYEBwavC64k6fLE/BqeQMhLiELQ86E0kOjQitDH4dZhsnCWqagU0KmrJ/yYKrJVMnUpnAI54WvD38YYRYxO+K3acRpEdOqpj2JtItcENkWxYyaFbUn6l20b/Sa6Psx5jHymNZY5dik2NrY93H+caVxXfGT4hfGX0rQThAnNCeSEmMTdyYOTg+YvmF6b5JTUlHS7RlmM+bOuDBTe2bWzGOzlGfxZx1MJiTHJe9J/swP59fwB1N4KZtTBgR+go2C50JvYZmwX+QhKhX1pXqklqY+TfNIW5/Wn+6VXp7+QuwnrhS/ygjO2JbxPjM8c1fmt6y4rIZscnZy9hGJmiRTciZHL2duTofUSlok7ZrtNnvD7AFZqGxnLpI7I7c5j4U1R5fl5vIf5N35nvlV+R/mxM45OFd1rmTu5XmW81bO6ysILPhlPn6+YH7rAoMFSxd0L/RZWL0IWZSyqHWx0eLCxb1LgpbsXkpdmrn0yjLbZaXL3i6PW95SqFu4pLDnh6Af6oqUimRFnSvcV2z7Ef+j+Mf2lQ4rN638WiwsvlhiW1Je8nmVYNXFn+x+qvjp2+rU1e1rnNdsXUtcK1l7e53Xut2lqqUFpT3rp6xvLOOUFZe93TBrw4Vyx/JtG6kb5Ru7KsIqmjcZb1q76XNleuWtKt+qhs06m1dufr9FuOX6Vu+t9dt0t5Vs+/Sz+Oc71UHVjTWmNeXbidvztz/ZEbuj7RfuL7U7tXeW7PyyS7Kra3fk7jO1LrW1e3T2rKlD6+R1/XuT9l7b57+vud66vrqB3VCyH/bL9z/7NfnX2wdCD7Qe5B6sP2RyaPNh5uHiRqRxXuNAU3pTV3NCc8eRkCOtLe4th3+z+W3XUYOjVcfUj605Tj1eePzbiYITgyelJ1+cSjvV0zqr9f7p+NM3z0w703429Oz5c4HnTrf5tJ0473H+6AW3C0cuci82XXK+1HjZ6fLhK05XDrc7tzdedbnafM31WkvH5I7j172un7rhf+PcTd7NS7em3uq4HXP7TmdSZ9cd4Z2nd7PuvrqXf2/o/pIHhAfFD1Uelj/SeVTzu8XvDV3OXce6/bsvP456fL9H0PP8j9w/PvcWPmE8Ke/T76t9av/0aH9g/7Vn05/1Ppc+H3pR9Kfqn5tfmr889Jf3X5cH4gd6X8lefXu96o3Wm11vHd+2DkYMPnqX/W7offEHrQ+7P3I/tn2K+9Q3NOcz6XPFF4svLV9Dvz74lv3tm5Qv44+0AjhsoKmpAK93ATASAJjXAKjTR3vqEUFG/weMEPwnHu27R8QZYHsnQPR8gLArAJsqsZYW86+cBBChjOndAXVwUIyx/nekVx8Wlb0A1fb2Li5h98xoHPiHjPbx3+X9zxmGvTrCP+d/ASyrB2WgH/9HAAEAAElEQVR4XuydBZxU1fvGN+lGQLFAUexWRFFQ7G6xuwu7O1BRsbu7ExWDFBNUUpRuAenO3f/3Ob975n/3cmdnZndm987umc/n7s7ce+6J59Tzvuc978nJcR+HgEPAIeAQcAg4BBwCDgGHgEPAIeAQcAg4BBwCDgGHgEPAIeAQcAg4BBwCDgGHgEPAIeAQcAg4BBwCDgGHgEPAIeAQcAg4BBwCDgGHgEPAIeAQcAg4BBwCDgGHgEPAIeAQcAg4BBwCDgGHgEPAIeAQcAg4BBwCDgGHgEPAIeAQcAg4BBwCDgGHgEPAIeAQcAg4BBwCDgGHgEPAIeAQcAg4BBwCDgGHgEPAIeAQcAg4BBwCDgGHgEPAIeAQcAg4BBwCDgGHgEPAIeAQcAg4BBwCDgGHgEPAIeAQcAg4BBwCDgGHgEPAIeAQcAg4BBwCDgGHgEPAIeAQcAg4BBwCDgGHgEPAIeAQcAg4BBwCDgGHgEPAIeAQcAg4BBwCDgGHgEPAIeAQcAg4BBwCDgGHgEPAIeAQcAg4BBwCDgGHgEPAIeAQcAg4BBwCDgGHgEPAIeAQcAg4BBwCDgGHgEPAIeAQcAg4BBwCDgGHgEPAIeAQcAg4BBwCDgGHgEPAIeAQcAg4BBwCDgGHgEPAIeAQcAg4BBwCDgGHgEPAIeAQcAg4BBwCDgGHgEPAIeAQcAg4BBwCDgGHgEPAIeAQcAg4BBwCDgGHgEPAIeAQcAg4BBwCDgGHgEPAIeAQcAg4BBwCDgGHgEPAIeAQcAg4BBwCDgGHgEPAIeAQcAg4BBwCDgGHgEPAIeAQcAg4BBwCDgGHgEPAIeAQcAg4BBwCDgGHgEPAIeAQcAg4BBwCDgGHgEPAIeAQcAg4BBwCDgGHgEOg/Ajklj8KF4NDwCHgEHAIOARSR2D16tU1Fi9e3LxRo0ZT7dtr1qwpGD9+/JZLly7dnHt5jRs3HrPRRhsN8cdeXFycO2zYsEPatGnzW926df9LPWX3hkPAIeAQqB4IFFSPYrpSOgQcAg4Bh0CUEBBZv+iii/pstdVW0/l+Ym5ubrHyt2TJkia77LLLt507d56j3w0aNJg3bty4qzbZZJPBCsMn78MPP3zonXfe6cy7UxYuXHg+YaZHqWwuLw4Bh4BDwCHgEHAIOAQcAg6BaovAbbfd9ubZZ58988knn/xG5F3EX/+vv/76gf379z+X7/n6PXPmzM3OO++8IX/99deRuvfoo49+16NHjz76/uOPP16IsPDjypUr61RbIF3BHQIOAYdAKQjkOXQcAg4Bh4BDwCFQ0Qice+65Dx511FGfQNIb+tIu7t2790Z77733y9wzGv7mzZuPnT9/fovp06dvq98DBgzYsn379u/r+R577PH8iBEjWmDuU1jR+XfpOQQcAg6BbEDAEf1sqCWXR4eAQ8AhUMUQ2HDDDYdD8mtgjpNP0ex+sdz999//n379+l3JPZmWSqO/PXb6M9Zff/0RgqBWrVo5vNfAvlOjRg0JBG6/WRVrH644DgGHQHoQcDb66cHRxeIQcAg4BBwCZUNACqcYUb/lllu6tGzZ8t999933Uu6vwf5+5Z133nnxxhtvPNCLXoKBXzhwCquy4e7ecgg4BKoBAo7oV4NKDhZRXi1k97reeuv9bTfAVUMYXJEdAg6BykVA5F6E3RJ9Q/ZHjx69+4EHHjj29ttvv46fxUOGDDn4u+++u+TUU08diTZ/rsi/l229Z8x73Mch4BBwCFQWAv/++2+rJk2azKlZs+aiyspDaek6TUgUayWDedKGt0WLFjVn0nwpg8m4qB0CDgGHQDII1PDIviX8xRdeeGH39957b1s86nyj6+STT+767bfftvv5559PF7FftmzZPCbU+XyvqXdXrFjhyH4ySLswDgGHQNoREKdizHp81KhRHdIeeZoidEQ/TUBmWTR5+fn5zcmz8XThz7v1fCFvF1lWJpddh4BDIEsQ8LzsFBYVFekq4LcIv1aYC2644YYv0OYP5H5trlp41rl2yy23nLntttt+x/PcG2+88YHXXnvtHJ7VeOSRR7497bTTRhUWFq7MkqK7bDoEHAJZiECQK6kI3j3xqXWwjqgTFiYKRXWmO1GohYrPgzRgWv42WjQ5ptYE6l15+Kzek0a7ChOf3/Ly8lapPXtZLFVz5syAKr4iXYoOgbIikOFJKd7mWHs/D7eYvYcOHbo1h2bVxJPOb/jG36ugoGDpAQcc8DRk/sIffvhhAmVb2bZt29kPPfTQsRyMNVmCwK677vpxnTp1mu63335/nnLKKeNx0XkWY88audv0xqq0a/j9Y1uGcStrdcbeq4xxOOqYlBtUF0GlI1CBfTDmGMAWetKkSbvAi+qtWrVqCGPUMt84o7FGVy2PT1U6TmEZcEQ/ktWS+UwhgSqRAvxV34R9mU6g1I2GY8aMaYt/6w1YGl+2fPnyRgoTaNQ2c2tNpv+TFxJ+ssk7RjJ5TarQCVFZO0B54i3Pu2XIalKvlCVPyeCfVOJlDJSu9NMVj78YZYkzlXfCwiZbh8F3w34XPvvss6dqzOGqzbWcS77wcyHxS1kG3867r3FpBdcCLmn9paAo2HrrrT/u06fP5964pTFK7jWVTpE3XgmrZPMbd0yLPVh7bEuEZaLnZWySiV9LchxOHJEL4RCIEAJJtOtU+3tY6WIKT288UZg1++yzzycTJkxY77LLLvsXl76TvLFlef369ccfeuihV7OiWEj+CipDyE6miiptMEomcy5M+hGQ5oWj5Ztg+zp2xx13XPjll19uhJS6VkISBA4++OC/kF41yVoPF9acx6/htxKtnVjDtP/+Dhh8N94km2zb9IdLtqOXFi74LNl8+DFMRHRSqVgbV1ieU8HaT3yC7wXrMCxsIuLkL7MdLG05g890P+ye/34Qw2Tr1q+NWUszkwrwpYRNNi9+zOK1iUQ4lIZV8FkyxQtiEoZXWLxhfdifXhgmth3Eq39rlx+zz/cmUMVlxxr7rgi8vZSu3cBr763WhOxdfrIfry2XhkNYu42HbVhfCgobYf002J/i4ZtMWyutbpJ5vyztKJm2lqh9pBpHReSzLHkq7Z2yzB9lyUNFpZNK3yhPOeL1GX/6YeN7KnNv2LikccXvBUzkKB9nADtzYndoeTgLZMxvv/3WFJfAp2y22WbfRJHsO41+WZpilr/DUnktfFgvuO+++66A+N87cuTIlhRJE2UBjbkxGv4czHZy0OzfUa9evfnc90u5YROnfzKJR7SCnTIdk5O/JpIZ6JKd9NJdw/HyVpb8BN8p7Xc8AcuWL1H6yQgXfiEhiFtZ6jgMq2Tu+UllkGDGI/zJTArJpB1GQFIl8ME6Ka09pxJ3WQltMv0pWO6gEG/bhv1vSXm8dmXvBydb3Y/3rn3mb4e2/uO1x3h9JlF/iId7MB2FK63vJCLAyb6brnEqmbpOJkxp+UmEbbrKUlHxlBePysIqmG9bL+kuT3niC44jiearRHNimHASnCNsGDv2WOWD7q/AtPBTuFHdpk2bFnOmxxyvf+dxmN98eNQNV1xxxYM4BWhYUY0v1XQc0U8VsewPb46ZZ3l8BRvcvvr00097+ovE8tTeN910U3dMd5Zsv/32vTiMZvFas1hublKDdip2m1GUgrO/ql0JooJAKn0hA3kuz6Qblp1k4kt28i0Rv8aBMKzc+JCBVuGidAg4BEIRCIxBuWz4/xKX5OteeeWVr+62225veS9pjDMCA2d93CXnAN7vpPhRRULviH5Foh2NtEwj9BqyXWKOSfWtW7ce8M477+ymMEyuel7mj5ucywyde7GKIVDJfSFyE09p1VvJWFWxlueK4xBwCKSKQGAMkvKhi0fibVT+VUOrnEhGAZJqVtIS3hH9tMCYlZHEGqWvUWcVIchK1F2mHQIOAYeAQ8Ah4BDIGgQ8jrQWP/LckNuD+yLLn5yv9KxpamnNaAlpNK0xu8gcAg4Bh4BDwCHgEHAIVHEEPKsH/16kSJbYEf1IVkuFZarYLZNXGNYuIYeAQ8Ah4BBwCDgEqh4CpTmlqPTSOqJf6VVQaRmIrD1ZpSHiEnYIOAQcAg4Bh4BDwCGQPAKR1+g7G/3kK9OFdAg4BCoBAc8O0qbsVqEqoQ5ckg4Bh4BDwCGQnQg4jX521pvLtUMgKxEYPXr0rg8++OC7wcxPmTJlkyOPPHLAzz//fJx1bab/XPl9+/a9jkNJhnAqYb+sLLTLtEPAIeAQcAg4BCoJAafRryTgXbIOgeqGwLhx47Y96aSTPmnZsmWJo5gnT57c6p577nnsgQceuOSZZ555kH0jqyH4n0mT37t370t69erVmWfXcLDboRdffLHIfsfqhp0rr0PAIeAQcAhEFgFnCh3ZqqmGGZOWdP78+Rvtv//+4wImEdUQDVfkikTgoYceerhnz563n3DCCWP96R566KF/jhkzZkvd40Tm/I4dO/6t7ytXrqzN9788zX4ux4yfePzxx5tn7uMQcAg4BBwCDoHKRkA86phjjhk2dOjQk6LKqZzpTmW3kspLP7I+XysPEpdyJhG45pprrkab/7dOF7HpiMTn5+c35FTBWrrH/wJ+17HmO3wvlGcoXTzLz8vL09Hk7uMQcAg4BBwCDgGHQBIIOKKfBEhVMIiWmRzRr4IVG/UiiayTx+C4o7YYZkZojxi3xQp7N+pFdvlzCDgEHAIOgaqNgHOvWbXrN7tK5/ObX0TOnV1ZdlVfVcitETCtxt534mChVzh/mzQHu9mwnoDg2mxVaAVZVAZf+8uiXLusOgQcAhWMQGSVp06jX8EtIULJRbZRRggjl5XMILDaHy12+UWY5OR5Zjyr0PrHnvPdEHuPbDmSn5n6cLHGQUA2t7feeuuHq1evruFAcgg4BBwC8YYK734keZUj+tW33RqzCKetqr4NoKJLrrZWt27dhQUFxkonRto33HDDqRMmTGgnjf348eO3a9GixQwTIDe3aJ111pmNV57t9axWrVoLli1bVsJjT0WXwaVXfRCwwmWfPn220t6R6lNyV1KHgEOgDAhEkuSrHG7wKkNtVoFXrD2ZbJ5F9tfwX/ck+FkCpt9FPlOfKlBsV4TKRAA3mV3xiX/BkCFDNseN5ouLFy++vl69ev/xvfPVV1/9zdixY9sNHz68wRNPPHGKGZwKClZ27979ovvvv//RbbfdduncuXPXw1vUD5999hnNMjeyg2plYuzSTg0Bz0uGf6XI367MnhAEzNQidaEdAg6B6oRA5Ocip9GvTs3RV1aIkn7V8S4tS9fkqvXPP/+cyMFFf+ACsd+qVasaMBEWaDJ0mv/q0VCsK8t4/8uKguKD1BftvPPOf3fr1u3jRo0a5RQWFi6z8T388MMHcW8WpP68Zs2aTbT3W7Vq9cddd911Ec/m7LLLLl9feuml5zuSX9ZaqJ7v+dqyxjFd+d64VnPRokWbcxjbH4x5wzm07RBvHJQCTHtGxPDrS6qsnsi5UjsEHAIpIBBZwu8GsBRqsaoEXbBgwYYHH3zwgMcee6z3TTfddCwHEWlS0+bcguXLl9dGc2qK2q9fv5swtZjP1yVci7nmcM3kWsA1d9ddd11RVTCpbuUYNGiQhPxmXJtxNebSb/9lNsL6LkFkBzKz2hP4refBjbR+WPNr1qxZjLvMutxUe1uIGc5KCJdMceQ+M7927drLV6xYgcn+GhuP/ufxTjHvipwt553l3FvEtZRL7W8ll2z6tSql/7q3mrYZ2UG3urW1iiovbVptayOudbmkxBBRlxJD7c0oMrzfIvK63+i///7b7pBDDtlPecRMLKdGjRp2f0gRbWjeLbfc8tkVV1xxUP/+/dsimKrtuY9DwCHgEIghIEXCscceO+T222+/Z7vttvswioooZ7pTDRssJhHLpk+fXheziI4DBw6sCXmqHYQBcpWDIHACk5sIvkiV/s/j0mFH33HNrobQVZkiU/cbUpj9uTp7pEdmChoP9N9/GbLtK7g1+7JE3xJqPzn3f9erCquPPy4Rc5F0Xfquj+LSd/vbCho2fYVVO1Tbm841jWuy933e+++/H1shqDIV5QqSFAKsQDaiTe9O4BO5RPhF6kXw1ab97dq2JbW1fBQb69gEZs82Q1psTsTMrBkC5qFz5sypyV7xEhvIk8qUC+QQcAg4BCKAgCP6EaiEis4CJjm1t9hii3/fe++9XX/99dcjZs6cKdInUlUb052tr7vuui7Ypc79+OOPd7J5i6KUWtG4VaX0IMWTKM+L3mWKlk7zLNdeqlJriX5ZaM/zyWUv71orwyFt2wiRS5cubYJJ2b8y6XnyySefZ2O4hEetMuVvsMEG03baaaf32BfyJ6tMWgFwZD/6TcHl0CFQGQhE2jrGEf3KaBIRSJOJS1rbNe3atfuE/36Na84pp5xytzyeaPLjY7WrEci1y0ImEXDkPJPourgrE4GQtm1WohgH502dOnUTvhZwavNEybtePjVxm8243iFvlZl9l7ZDwCEQfQQiS/Yd0Y9+48lEDq1JhGyjLclXOnaSG5WJRF2cDgGHgEMgSghgoigtvcy/gh/0HG6bR5TqyuXFIRBhBCJL8oWZ87oT4ZaTiaz5lrAj3TAzUXYXp0PAIeAQSBYBTwniV4Qk+6oL5xBwCFQ/BCLLqRzRr36NUSW2Gv3qWXpXaoeAQ8AhkBwCTq2fHE4ulEOgOiMQWZLvNPrVs1lazyeRbpjVs2pcqR0CDoGIIWBOEI9Ynlx2HAIOgeghENlxwmn0o9dYKiJHTqNfESi7NBwCDgGHgEPAIeAQqOoIRJbkC3i3GbeqN7/w8kW6UVbPKolOqb19HLaNaMN2zHwhngtO57EnOvXncpIRBNyYmRFYXaQOAYdAphFwRD/TCEczfqfRj2a9VHquROQ5TG2HTz/99E4yo4OHFk+bNu1OXA/+qcxxQuj5o0aNOgyXgw34KfeD8loyc9y4cd033XTTwZVeAJcBh4BDwCHgEHAIVDwCkVUGONOdim8MLkWHQCQREMmfOHHiTnffffdDDRs2XMa1givnrrvuenHy5MntyXRut27dus6dO3cT7udyFXOt5lrECcruvIVI1qrLVJoQiOwknqbyuWgcAg6BsiMQ6fHBafTLXrHZ/GakG2U2A5vtee/ateuzb7311nF169adTVmMIoATlIctWLBgXX2vU6dO3jnnnNO1RYsWv3plFcFfwaXTRN3HIVAVEXCed6pirboyOQSqCQKO6FeTinbFdAgkg8CIESOa/fLLL+d37ty5G+ElEK5B0y/zHBH54uXLl6957LHHHl9//fUlCGj8WL3VVlv12Weffe5Q2GTScGEcAg4Bh4BDwCFQxRCIrALVEf0q1tKSLI4apHMblyRY1ShY7tNPP/3sTz/9dApk/gSvjeTvt99+o1q1ajVEOGDWc+2YMWP2WLNmjez36+vq06fPsfxejEDwoNuUW41aiyuqQ8Ah4BBwCAiByJJ8Zc4R/erZSC3Rr56ld6WOiwD29jPQ2s969NFHH/LGh4I77rjjvkMOOWTT+vXrT915552/0uVFoHaU/9JLL30xYcKE7RysDoEgAtr3UQWEP2e645q2Q8AhkLUIOKKftVVX5ozH3CZKCq0iE3GZwXAvlkTg2muvvWrAgAE7eRoKedXJXbRo0f0rV66s5Q8p8sbH3EKbn8tm3JUOS4eAH4FJkybt+ddff63Dvc+yFRm183333VfZd2Q/WyvR5dshkHkEIq3Rd153Mt8AopaCJqwib+JybjajVjuVnJ+CgoJVEPcaZENjgxQB+RD6PC7dy73vvvseHT9+/Nb8lhBQyFUDMlQHd5sKG+nBrpKhzcrkpQhQXXMVeleB91ttQs/s/1jd2/vs9bjw888/vzQrC+4y7RBwCDgEUkMgsvOf0+inVpFVJbTVToms5Ug162lo1VBF8GyDLeK+hAL3qR4I5Hbv3v0+PO/0OuWUU3pR5OZqD5js5NWqZRT6eWefffaLt91225P8f4ffG3E1/u+//5pvueWWQx3RT9xI4hw45l9li0VSESYvXn5sn9d4oO+69L2md0mgUx6Xcy3l0uqNNl5rHLFjiV3hsXt/tMqTV7NmTQkJVcF8J3HluhAOAYdAdUUgsiRfFeKIfvVrllajr4apDZXGPSKTsQh93tKlS1t/+OGHN+fn5y8+4YQTbuH+Qu5bsh+b1AOwpbqsne5OkSi+RM8TtYLS3g8laYkiTNPzZDdUB+strL6MkIf9/ZfUeeuHH374HI/k5WDO816bNm3687tw3XXXHYsv/RsvvfTSl/gt9p/boUOHf48++mgdsFWDd9WegsKhxci/ghT87ockiLf//SB0/rKVIJ5ewIpom8m2ryAOdkXV/74tQ5HHnIN1F4ZFafUbbCP+9+2qjSX0qk9ddqO1DkXTVU/1zDWPayLXdK5laOzPGT169NZ4YBqJlybt6bArhYLeCgtVQVHgb1dp6rouGoeAQ8AhUDEIOKJfMThHJhVpCefPny8OkbdixYqNb7311jdHjhzZxJukC+bMmdP4119/VbsoPvDAAz9GmzuG79LgxQiI77vK5SdSQVIVRkSTNRcqLV6lG4/8Be/H+51snQTJWWmkM4hHMI0gIQySVH/4sHR0L/hOvPzZuGy9hdWfPy5bL4WQ/Xffeeedz4lAmly1lTW0lRZ8l0ZXB2VN5/lhfBchVJjVPF+P/4v03ZdHG6f9b8mftMV+7bF/FSmsPP73/Rj5zdCsgGH/+5/FI/ultaHSBIREbcCPvf1uBCmv3drvVnvubxcixrr85fETzbC0LcEO/g8S1GA9qJ/LJEtEv7Z3WaIvgt+Qqw6XwkmTv4xLNvd6Z9mTTz55KWcuNEdrnwPRv9zLt9JcgtemS7yCV4XzFZIV5Pxt0313CDgEHAKRQMAR/UhUQ8VmgiX1xX///fc6eFL5DNeIG4SljkY/97jjjnuM/5rcNVlb4uHX2vlfTUZzWpoWN0hI45GUIHm0k3BQmxvUcpYGcnAiD5vYyzLZ+98Jy3eyQkkyxDKZMInqyG/CobHB/vaTZtV/sCx+cupPo7T6DquPRPmLV4fxNNqptIHydsKwPPjbtOIPK1+YcGzDhuU/TABOJMgEyxYmTPmFEP9zf9y2nnWv5j///CNBIAchL+err76SABD7zJw589XVq1cXXHjhhV9WhAlSeSvPve8QcAg4BKoqAo7oV9WaLaVcq1atqsUhR9O++eabXe6///53If2W7NeaMWNGfe5vzIbM4q+//rp97dq155cHokxO8nHsncuT3bS/W5byV1C5UhFcykrA046ni/D/EShL20oHfrZ9sk/ji1deeeXgBg0azMN0a6gnGGqFJ/+BBx446/fffz8RYaAquF1Npa+kA2IXh0PAIZBdCER6jHBEP7saU7pya+1/i2644YbjidQSuVy0cLW+/fbb09DkL0Xzv6yyyEQyBY1y3pLJf7wwFVQuR97LU0nV+F3bPocPH343q36vtmjRYhbmXj8EIUHTL5PAqjLHuP5Sjdu8K7pDIJsRqCqDcDbXQWXk3ZpihHnVWYLG7rkKIpuVUXaXpkPAIZAGBLbddttfiUZX6Ofjjz/WfefCOQ1YuygcAg4Bh0BZEXCDcFmRy+73RPS11BSqpXIkP7sr1+XeIRARBOLt54lI9pLORqSX5ZMuhQvoEHAIVEsEHNGvltVuCL6bvKpn3btSOwQqCgHra7+i0nPpOAQcAg6BykAg0nzKEf3KaBKVn6Yj+pVfBy4HDoGqjkBVsWuP9CRe1RuRK59DwCFQPgQc0S8fftn6tvziu7rP1tpz+XYIZAcCQRe52ZFrl0uHgEPAIVCFEHBkrwpVZgpFsb7QU3jFBXUIOAQcAikh4Ih+SnC5wA4Bh4BDIP0IOK876cc0G2LUqaRZ9RkxYkQnTvTdmEzbTcSr8frRm1NaZ6ggkydP3pprT76qbCv32GOPV/Py8mQj7D4OAYdA5SBgvXtVTurpS9WZ7qQPSxeTQ6AqIhDpMcIR/arY5BKXScfcR7ph+ouAX/+zu3fvfs7KlSvr+O7nt23b9mRO4Lwcf921H3nkkZf5Xpvn5gRffHzvysFgXTkLYHliOFwIh4BDIEMIZM04k6Hyu2gdAg4Bh0ClIuCIfqXCX/GJ61TLBQsWZJVGv379+hOfeuqp/evVq7dUiNmTOU866aTRnOp79Jw5c7Zs1arVgh49erTzBJjiDh06/HXqqadmVTkrvjW4FB0CGUVAJN8R/YxC7CJ3CDgEHAKlI+Bs9KtnC8mqybd9+/Z9LMm31bVs2bImtWrVWorpzpSCgoL8oqKiQs//v/H0wbMcfjtBtnq272pXaiv8Rqzgml/cHBOxSnHZcQg4BDKCQGR5lRuEM1LfkY80sg0yEXK9e/e+9PHHH/+6W7du/c8888y3t99++w8w0VnFezF7fHfgVyIU3fOqhIBIPuZt1yH8No5YuTTOVIU5JmvHy4i1B5cdh4BDoBIQqAqDcCXAltVJ+pfTs24Ca9Cgwb8tWrT4G3OeOYsXL24MyVEbFslfHagVZzaQ1c3UZT4ZBKwm/6677jp90aJF/j0sybye6TDqm1k3xmQaFBe/Q8AhUCURiOxY50wbqmR7S1iorCXBu+6660eU7qM1a9YUotEfItJfo0aNEm78RH7222+/yHa6YO3MnTu3OaZHueuss87MhDXnAlR5BGbNmrVezZo1V2OW9p8Kq/b8yy+/nLR69er6+fn5qzBle5VVK7nI1ce087p168p0TZvso/TJ2nEmSiC6vDgEHAJZg4D1ChipDDuiH6nqqLDM2Ak4VyQi6qYu33zzzQk77bRT32bNmhniow+uM1dD9msuX768IQQol98FlMVuvi3GQw8/iy0ZqjBgy5LQ559/fi3aWOX1+rK8796pWgi88sorPTbffPPptN/rVLJPPvnk/g8//HBvvuZzb83UqVN34P+V/A6ecB014daMM9kwxlStFuRK4xBwCFQCAlEbf2MQONOdSmgNEUjSEgQRY5GHPO/Sd/s7Mo0WzWaNG2644V2862y0dOnSprr69et3wxZbbDF1m222+XrPPfd8fuzYsU0HDRp0BXbKLR544IHeZ5111m+1a9fWCcCR+Ijs2MtmyMO8AC3thlxNIpFRl4lKR4C2sAGC6zZkpMVHfMaMGbPbW2+91Y5rl7fffrsdRH+bhx566BvJuyLSvv+R6bMeiE6jX+mtyWXAIeAQyDACdtyN2vgbK7bT6Ge4BUQ1esiEyH5NEX2uNUuWLGkOWdaBU2oTq3g+HyIqMpHMoVPG000Kn1TCq/N8gIZz8gUXXPAd2vsa/C7Eh/4CNuTu7KWZ/8QTT+zbtWvX3zk065YzzjhjyJFHHnkpz4o8LX+y6ZWloyZ6J3fGjBnbDB06dH0vryv/+uuvpVtuueWvHvY1EEgKFi5cWJgCfi5o1UZA50E049qbPrkzB8P1VHHtytv3fF566aVzAxC4U2irdptwpXMIOASijUAiLlBpuXdEv9Kgr7yEIfErp02b1hTvNT9CMnP5vQTusOE777zT0p8rNOODcVMpjzZqwGorEgrsKpCfWFgibe/5fwcLGgwrkxV7gqa+6zKHXvnSrQfJqbfvvvvKBtlsvpV2nPz/5IWVfXINyH8DtPz50njy7BeeLfPiUR7sKkYY6Q+75++0YRJ72HObjvKvOIVZIaYYmw0ZMiRmPw2mxU8++eTb5HldBKwWv/32W8tOnTq9X3ktwqUcQQQkhLfEdWwNhNtafvM6fheyL8VuPo/s5OJhmqyQHcEqKJGlqlKOqOPs8ucQcAikGQFH9NMMaBZEJ9v1HE6MXbPuuuv+c/3113ecOHHiOso3pCKHTaHmgljksNF1KoLAIh7pdFkRbLUXay7gJxhhBD8eEbZk2P+OJfrWe47+W7Kv8BIwpPHWZTe72DD2ufImcqT8iQRZIuTPt/Xrbf/bPAbzYqsxSKLCBBiFUf5sviSgSDhSWHlBYZ9k3W1thGC8Gm+geeeee+4p3CuC8H/dtGnTBtqMmwVtx2WxYhBYQzuR2dlUhHC1p5hHKQm4PXv25Ha+Nm5HnXy6VYaKaS8uFYeAQ6ByEYi0maIj+pXbOColdUhlHhtb551wwgmnHnzwweusWLGirkdUC0eNGrX/ZZdddjEEf+lpp53WBVthS1pLzWu8Db1hB/lU5ubfkPykg2AHhR6LlRGKMNX5GFegW+6+++7j7rnnngu5ZwWaAjztTHv//fefZf9BOvJRKe3JJZpeBNDYL/z9998345C4C0aOHFm3devWc20KeN85o1evXns99thjR2cB0Ve2oy6MpLfyXGwOAYdAdUUgsnO4I/rVs0kWQ/Y1Aa/GH/2/XHYyzt1rr71GYWbymJ2gy0vKy/t+uqsnJD+ZJCLaI5B7xx13HMFlihJMX8/xEOQIUborOovja9eu3Tsvv/xyg7///nsdNPsj2c/xmS3OgAEDOrER9wTMv+ZlQRGdRj8LKsll0SHgEKjaCDiiX7XrN17p/Pbq8q9Zmk199UQoTaVOUtCx+xTSlKqLJpsR2GeffV4i/y9Zt5Svv/56rDjXXXfdOXiWao5r2dqY72gPiv1EUZvkiH42N0SXd4eAQyAVBKI4Bpv8O/eaqVRj1Qkbm4CTJKJVp+QRK4mHv928G7HcuexUJgJhffOqq6764PDDD++Fu9kvOEOisZe/TK5KVSYELm2HgEPAIZANCESW5Duinw3NJ7N5dAQhs/gmG3tWHOyVbGFcuMwh0KNHj2N69+69PSc/f4Z72dfR7ovsR7UfO41+5pqCi9kh4BCIFgKRJfvOdCdaDaWicmNNdyoqPZdO6Qi4+nAtJCUEDjrooEd//vnnmd5meb0bRbLviH5KteoCOwQcAg6B9CPgiH76MXUxOgRSRSCKJC3VMrjwFYxA+/bt3zEMnw3dESX6FYyIS84h4BBwCFQKApGew52NfqW0CZeoQ6AEApEeJFxdVTwCIu/PPPPMk48++ujzs2fPNqcq//PPP+34/ZzfRazve2SXjSsePZeiQ8Ah4BCoMATCDtSssMSTScgR/WRQqkJhvA1+bkk9WnXqiH606qNSc4NHnYIbb7zxU86yqLP++uvPwzXr699+++25nPb8QMuWLf/D886X+Nqv6ZH8SB/UUqlAusQdAg4Bh4BDwJx06j7VDwEdgjW++hU7siV2ZC2yVVPxGUOT//TWW2+95NRTT72A1Nfssssum59xxhkfcCJuB868WMi97pdffvk3Tz311L5e7pw2P7PV5ATxzOLrYncIVAUEIqs4j2zGqkKtR7gMi8lbD+daMzI15Ih+ZKqi8jOCJ52WDRs2XEJOzMpbixYtphx55JG9GzRosEB9lmfzOGm5Bc+CJzI7Qlr51edy4BBwCFQ/BOwcHkmli9PoV78GmdOoUaMVFLt3NSx6VIssgdsJ3VGtnQrOFwdhTV+xYkW+kvWEcZH+rvotc50vvviiJifmzvQEAXPb972Cc1tqcq5dR6k2XF4cAg6BTCIQSZKvAjtykclqd3E7BJJDwBGi5HCqFqEuuuiiq3/44YfG/fv3PzdY4J9++ul07PV3xV7/CB/BjzLRNwKL+zgEHAIOgSqMgEh+ZPm00+hX4ZbnipY1CIgMRXaQyBoUq0hG2YS7aNWqVSc+8sgj3YNF+vHHH7fv3r370YRZbp/5NuVGDQG1a0f0o1YrLj8OAYdAuhGINNF35CLd1Z0F8c2fP7/W/vvvv1UWZLW6ZDHSg0R1qYQolbOwsHDV9ddf3zWYJzzuXOUn+b7nGssjs3TsCR8i+U6ZFKWG5fLiEHAIZAqByIy/wQI6op+pKo9ovN4E3JDsXRnRLFbHbEV2gKiOlZGlZY7ihm5nkpaljcll2yHgEEgZgcjO447op1yXVeIF1XsH/8E7VaJUWVgIVwdZWGnRzHIUJ5koCh9lqb0oYluWcrh3HAIOgcwhENlxwhH9zFV61GOObKOMOnAufw6BiCIQtT5dVTT6zm1pRBt8NmaLw+4KdSheNubd5blUBKI2/sYy6xqba7kOgcpHoKoQospHsnrnIE8rRBE6H0PzS1WYYxzRr979Kq2lf/rppx9r27btX0T6ZFojdpFVFgKW4EdWcR7ZjFVWjVWTdCMreVYT/IPFVD+sCoSomlZf5RXbZ/olMhq18VxtukbloVP+lD18HdEvP5QuBhBQe+JAvG3xqtXKmW1WuSYh5wOR5FZRmxiqXM1HuEBu8opO5TivO9Gpi2zMSVQ1SiL6kZ38UqjoohTCuqAOgVIRYMWtHgEaOZiqFAIagyOrrHNEv0q1NVeYLEVgDfl2ZCJLKy8C2Y7igVmRPhK+DHUWSU1dGcrhXql8BLTKVTOq2t/KhyfrcqDxV/N3ZPl0ZDOWdVWdfRl2E1d06mw1WVnjlnKjUyFZlhP1ZU00UVylU57cWJNlDcplN2MI2L7gDpLLGMSVEnFUx18DhiP6ldImKj9Rdv5HkRRUPjCVkIOioqJ8vDA4MlQJ2GdzkhIMaTs1VqxY0YD/hdj91taYXtkCo5d+nvJEu9ZqVaXnqSz1bE8cBteyvO7ecQiUQMB3grXm3kLHv7K/gVCn1pFGpIl+ZG2Ksr8JRLcEBQUFq3ffffdJ5DCfhhrpBupHsSK8iWSaJNky+Ab9vDZt2oxbsmSJJWlFYeVMNl/leTe6LdblLAQBs6/j77//PmzPPfd8bfHixXXPOuust3v16rW1wtJerCBfmkCfTuHSH5fZXN66devJtfh4pEZ5ChtrEuWhtPxnUllhTY/y9thjj2k6qdib1DOZpqouER6V2RmUt0yXP1i+ik4vXfgG69Huw8qnS+TVqVNHfaHQ66ZBs81sLXMi7KLctoN5D8urvef/r5WZfMYHcanIKs4jB7yPANlBxeYxnY0/nXElatxReV6icb7zzjsvLFq0SORyEddyLjvY2AnO8AUv83687Pdg24lHLMKwTnQv+NwfdzCdsLiCHTLZCTTsvRKyRqAywwbzeG3L2lHb5xoghH/T/Pz8FhD0layy/MvvBV59SBMahnXYYBOWx6CNtD+v8coZzLu/Ldg0/Pbg8cpaWh7D2kki3P1tsTz9qbTB2x9vsL356640Ap2oT5RWdn8bDY55liTYza1qO9IINhg/fvwODzzwwKZ6GWKdc8MNN7zLV6mgZQ5miXW8dK02yv4Pq+8wvP1tK9jOFJfI/Tq06w1o1zm066n8nsm1lEvt2kyOXNb9pv2t/3rfX/4w7IN1pTAqq+IOXrpvcQj+t/FYfP1p65nsqJvUrFmzgFWTOXyfy7XSiy9YX/44wsoWxDhYx/5+ZeP210ewbkprk4naaLD+/OUOawPxxo5gvw3OE6XVXbDd+MPauvT/t/NTKnN3WD/2t4Fg/wiWM147D6tLi6FtB/42bdu1+kW9b7/9dof11ltvxbbbbvsHv9WulnltyobzE8ZE7V9tJTi3xJs/w/pyWe/FG+PD2kpYX/G3cf93P47x5rCw+SKsrm3Z4nGEsP7lHxPtc3vP1qm/7+pejWeffXaLjz/++MJWrVq9xJinsTdSn7CJr9IyKJL/77//bnn22We/RiYacOWy8qsd6jlMGkv4JwA10AYJUFhDT6XxBxuJ7TzxsAjiFg/HsM4QHDyCnaAs+IcNiP5G7B90cpcvX960X79+LcuSkHvHIeAQcAg4BBwCDgGHgEPg/xE4+uijx0L2t3REP4lWgfanxn///deGoLXz8vJaoHl+nmWReccdd9zl2HxKIySiL8Ivch4k2MloFILajkS/S8t1PO1CMlqH0oSFMIk13r0wid9qFYISq9EEHnbYYd///vvvTZs1a5aDBCptmzCNl5+gVO0XTJKo0ZSXov35COIYT4vgF8yC9VmaMOuPP5GwFixraVoTv3autDaiNAvnzJnTDIE2r3nz5jMCgqxN01/u4PewfPv7RlAoDpbD30b8z8LeS6Zc/vaRTD/IdBsKYhhWxmCbSdTGUy1XcFyyeUg2nrB2GjODmTVr1rqTJk2qI+35LrvsMsmLvDTNWrw2E5avsDyGjb1+nE27njdvXgs04TnrrruuVqpWcPlNFIKau6BG1F8HpfXheM8SjQPBcTOsDZjx8p9//mm6+eab/we+0rzGG4PC+mhYWwtr78m0g0TlidePUq2/RP2xvMrBRPgFMSttzEm2XSST52TC+OeZRGNEcB7L02m4f/zxR+NYR/lff53Fb6sBtmXVu/7xN1Eb92MWFjZR2RI9T3W8itfuk0knmTCJ2mii/Kba38I4oq2jwrlz57YcN25cTsuWLRdNmzatSRSJfrKAVWg4afa58hcuXLjZqaeeOueMM86Yig3qRrqXrK1yhWY4SxLzcM3r2LGjyEDxpZde2k92Zd59YV7qlalixks3dEZMkMdEZQg+T6VMycRdhvjy3nvvvfteeOGFJ0pr28mk7cKU3n6jhk8qbcUwjPC2n/f888/fo8f33Xff06n05wzhofFEV0HPnj0fe+KJJ77V9xTyZd/3/084NoWVJdH4EXweEofykL/ffvuNSCH/Nq/BcpSpDDZPcVl8msfDDLWJcpU9EQZJ1GPK6Sfqm0ni5G8D4i4FJ5544nD1VfbJqb9+Hq9vJEo/E2VOskwpY1mF4zXj3GeffaYTjotRmi7U71TrriLCRzJT2lCoz4wZMzZ+8803mwiIO+64Y8N69epNrghQqkEaRkJl9UT1X1wRm1xLwzSV9FMJm+56THfaXjvPWblyZU08e+SVFn+60043Ni6+zCMQbAOeYFiMKV5dpX7jjTdeYnNRie1FQ7fRdtGu69GuzRiTwjiTjLatzGCn0scoh0lHXrEoR80aNWpIo5/sJ6PliEA9J4tDhYeriLafZBqxNuD1ifybbrrpSRQ7z7Ihdw37aY7z+kW5z1BJMj8VXhdVPEGNdZq/7SpEZDfjRjZj6gCY7sT8mvE9chscsq0Re4NBPDOCbCtOlcivVyfGS4k3GYSWq7RnqQCRqnYsLO7S4khH/KmUJxg2qD1KJi7/O8mEj1oYNvb927Bhw2WsgDaLQt5844wx4eEKXY4vS11VUvmcz/NKAr6qJGv7BN7VGqpMavt8lxKzQgTCqoJjRMsRZR5tIItyBjU52PypM2SlL+aINsxQDwaJltgiWpaqkC3TvuNpZTBba/Lcc8/dNWbMmPblKayIoOLBnnD38sTz9ttv30Q83fH4smswnrFjx+7Ds0fw6FQppFMYYlPdiTx0W7ZsmZlUS/uozRN+X8Lfj2a8fqLw5XleHoEirG96BDqX/UsP77XXXpMxB1C/Nnsu0iUYlqO8atPygBMj+V4ZjDmMLm98j3m58O6Xy0a3PBjHKavKkTUuiMtRX+7VzCOgtmSVl1HmXplHomqlYOuyXGNXJiGJpOmOLTBLInbizZV5QyaBqGZxl9hcYknBFVdc8f3QoUO3Bmu73C5YZNqzZrvtthvLZqJ98H6U1SsrCxYsaHbkkUf+cO211z5x6KGHPhWRei9VqwNprnfhhRfe/NJLL4k4/VzWPLPptynxXAdRn1/WeNRWmjRpcisbLWu+8cYbszFr+J3VNiM46hmb5w8ijSsOOuig57n1X1nzWpb3bDt++eWXDyAPVx111FGPE4/KGvfDO3nffffd0ZdddtnFeE2QreXCsqRd2jtfffXV6Y8//vjFBx98sAQPgxX4+F9JNEEU865/U6LetYoQQ+4HDx7c9vDDD//NMy9ZveWWW/7A/UvTXZYU47NE327eLb7gggv64/t/Y5mqeXHpv8aYnHbt2k165JFH9qZO1pTFFMHTkrbA2cCP119//av8vqcs8aRYxtDgXlv0b6pMFG2JNkC+y23OkSjBKD8XfpVVd5nEhbFyGQJ5Dg5GStvQnsksuLjTj0DkrSQiTfSPPfbYh2ydoLV6bsiQIVukv46qZYxhHiZyIAvb/fTTT+tA6uUvOjbxQPBr4ie2A5rlgZDOQ+rXr6/nWfmBCK3AtWhb2laU2lKpg/7w4cM7NmrUqGj99defYkH3T4R+7a2dHIP3vN//QLDqS3N60kknmYk0qPlNNLmyqtAOM5H8pk2b5kDa7u7UqdNH5GmM8oVGXH7d22y22WbzsEFN+jjRRNrnMNt0/z37vi0P7nlv7tKly/21a9deHBa3H6ORI0d2uu666y7ZaqutZtM21oRhqbLFu59MJwCjT3faaacBhPUL0LGqDMRh+11YH7Xk3mjtfX00l/J+/eSTT16MEKZ9TMUQiYU9evRIJnuZDGO9o9k0cn/++ec2tOd1GWPkiccqDWQDX4f8tqedf3jNNdecC95zgu2ztLZpiTVeTY6nf29ywgknbOPhU+GmEXgaqvvbb78dTvoS7GS6pDwEsbB93taj2kYNLgk+yxDK+9DHRmWycqIat4Tv0aNHS+Drn2g8SncZEo1F5UjP9F2E2dfYhHvN1ltv/Q97DhdwT6tblb5Prhzlqu6v2pVL4ZBIYVNpWEWZ6BfjNs5sMtMHl5s1K7rTV1qtZD5hO/nFtEYQns7Tp0+vxabnl26//fbzAlnIhRgOY2N0u/PPP39vnn2abBaTJUh+sqa4k9XohIUrLc233nrrZtxgFe24445l1ownW/YUw8UdJE4++eSn9t5779EHHnjgy4pzwoQJO2NqciKmKffOnz+/BULYBWLt7PofT9mflhs37t2niQWhbJ40m3rv9ddfvwVXh7MPOOCAZz2M8/r27Xs6pis7eHldw2rOLaVtOuzatesraKQKunfvfg8a8Fs4TEiuWc1nypQpbW+55Zaj8LZyWYsWLcbZeoDE1WI1opvy07hx49l4njBeYtSfmdD3Iq8n8FsrdmYylDYT4j0IwlR75syZTYjnDtv3J06cuCNlPwn71vvq1q07X+kS990cFjWRcC+x0rD++++/3/WQQw55c8MNNxzqZS2Xst++dOnSxlp9INxVSl/PwCofHHOeeuqpayCZcm+a8+WXX57P2NOYcA/oN+81Io938VXjZdHAgQMHcBrt+8mOR5yCqVWCtK8UeHVo2g11thT3rH9DDiclmy9bb5n4rzzgU1rkNibw9e/f//zZs2fXp+28BZk/w9aB6p2VoYJjjjlmJGPPkWjk30Qw+tiSd5s/jxCV0HSLFNo61v8zzzzzHgTinB122EH9W5Js0EQiIakKIXspmVnQZjeB0L1THlxZddPq0mXliSMb31V9ff7557fdeuutZw4bNqxVRZWBtDpzkNWVDz/8sOzm7b6SoEBtupyXJ2vSZbPoH7+1kqV2by/9Ngfc0S/q/vDDD5sy7m06atSowdxbjFD+K+Pu1fTh2FhaUeV26aQFgchbOUSZ6OdAGG768MMPH4ZXLGUSuGG33Xarkst5aWlqZYvE2vQWf//99ydCouredttt54doS4u5f+m7777bl8FoiYghhP8VaRA53S9GmFkR2BNPAt0wU5CGdLgI57nnntv/r7/+2gaTn8V//vnnqRDsvjarEKx6aPGe+OKLLw7jmPlC6nkhpkNnoe3ry4D7Mm5AOzL4bgWZXAYRyENLdghL8o9C9E7YYostdKpgzllnnfUTbkIX48bvAAbL2uRhf+J6hkf1IAs/kcZxIq6kr8E2ByJxPu/+B1HTCaI5v/766+GQ19tfe+21Y/CVXZleneISfcpfW6sqFrdBgwbth2nKtZtsssmIyy+/vAemEMYzFSZJUyn/7r169WoHGdVZFDlo31ccf/zxDwsD3rm9Q4cO0yD6z0HKtzrllFM+Bu9NsN2PbTaE5B4EjjsTXqcll/iIAEHuCyC+OeD3OtelEKu+3N9UbYbLmGrwvg67Mx/azSdM3PuQjrlHPeQ888wzZ91777038vNdNLz7XHTRRfIWU6L855133m5Tp07d7JdffsnBxe7tepf2uUPnzp2/Y49BU8aDp0hXGrEc0r35iCOO+Gffffd9iXJtTTmvxuXZZBF9cCukzXxEezrM5gmNb0fqe08m2JgXFYSKporqk08+uRRc7kQgvFHvou3/AtOe3dFCx8wIETAu4N5c2mRva7YUxKqifvu03oUiSVEg+b6ylyD6uJC9ggMR6wZIvgkuHK+88sqnqbeHqZcarA41lkDw9ddf76DnmgPo95dQxm/4abThWkG666673qO9b7frrrtOeeyxx/YinsJtttlmevv27Z+i3YxkhWldwppzQmjTuXgaW8S9E+g7g+LVEcqODwYMGLBD7969Ny8LnuRhKStaOnFchz2qT9h9CPLgIy8darM59GtlwWoELYFUX1xGXudVVBuKSjoaX6jLaxivbt9oo40WJKvsSUf+GzRoMLlNmzaamxpzqWLEjWy9+Qm/f8XNT/r99+2eDtW9PaFa9VqHqyFCRRsULvNJbwi/Z9C2h9FmKnzlKR24uTgMAoZbaIyJKh6RJfreBPY2Uu/VDPxzIPkflmXQjSrwlZyvoFmAJkFzL8ycA+3Dnpj0HIGWdiUD4ny0cuuhndsBbbLZcGk1YExc34lUMYCNhjw25fyDryGlO3G/iHpssM8++/TB/Gqf7bffvj+E9GA0b+9iXlGAFtIIHITZkDBfQL4PItzepNHKEk7Fh0b7M2zs85isNWCadCHt7SCPRlsKgR1GepuSvoEXMnYgeZ7BpN2Zn78q/M4777yiT58+LdACP8i9aySMoB02fr4rsU78ZhglsqE8Q1iVx0Lb/iHvpryQ6IchvkPA6xSIce9PP/10K1ZmDv7ggw+Oh8gMRYi67/777z9fwhDEdWfqbrUIhrDGRrwnRHpj3rkBzGXjkXfPPff0RhDaA+FMZKpjGB70xZXUQQ6HrY1j6XkxRLy1DectRed4LhVzcI+7OXnpSP0u5Z3NlQarRpiPb9kbred6eo+VogexpX+GiS4H07Dm+++//y9MgjMQFvfCFd37CAj7Uae7brrppoMnT56cI5Kv92Ryw+cNhJy9wSMHAVL+qXP5riPl9TH1iSu7m0XySXcrCPpcXFC+8fTTT+9Pu+r56quvdrZ5ph0WQjJvPOeccy5H8DwNXL/86KOPrsdm/AAEqFEITsKjmPS3Ir/f0dY+Iz8bcW92JbYbk7TaBfmp7GyEpW81myabYLxG9azv3mXHoVyE+BNYhXkYgpcDEbqAun2NlZA1mCIZgRNlQQvufcIK1IkoEb768ccfz2bfwuPUdwFhllFnO66zzjrDiV9CsdpAkVZq6De1+F6PMSgfoTKHMPWkNCgNLBFxhFl/mJQmcLwgTaR9b0gaMsWxZRXRq0k+n0QAOYSxbxlteDPl03cpW8bMB6yqpXaXw4c2Ev4oaSpU6cJqqMwPH85kJ/LmyTwEza0RRv9grLuA9Mq0HyWT+XRxp4xAbBxL+U33giFyBWhxhrC5ToeuOBdnaWgUGmxQlI/WhILm83sRXF0QX22eLIYc3o/G9S6u+7ge0MWkJO1UETbZn+p9PKtsu/vuu0+C/B+p37ogkncwia5CWyozjBxI+jGKTyZBih9ziuuZvIoZ4GRikQvZnwpZLGbyPdzGASm7BtOOYib0fyGIjzKBF/PeNXrOpF0fQq8OVQwZfUX3SOskzHCKH3rooRe++eabcyGyi9EC6pk5nATy0EXh0cZ2wOZ1A8ry4AYbbLCcfM6DuJ2YBjjTEgWbWntAPl8Liwxh5TxMMopZPXlYZYYMN6be+qlcaLi39rDLe/HFF82hHWB4hRW8EHCOBZNiiOoksDofvIvA4FlWSa6C4BYzmS7jsKU3MUt5nes92sCXmPoUoy0fZePw54l634V6W4IGvrfqlLi6K2/EJ5vq3AceeOA5CLlWbg7Vb+r2dDa5SsCSIGU8rUCc31I+ETCu8MeN0NgSwXAkk9941bVtE5DzYvbnjFF6d9999xuQvJWkUbzxxhvP1z3ayiSI1SKFl7/zO++8831WZhZT5wfoHrh0V3qvvPLKPV5bz2UF6EtI/p0Kj7D0PkJCEe3+VwSSZbS7q/UewuxGp5122p9q9xIy/XllNeBOxUmbapmWBpCGSCD6ozFv3CQNUaUtCkx37qO+v/bqv5B2M1JCCatv79F23uZ6netNrtdodyvAfyWE/g7aZTHC3lL678n2XUxZnlBbxrvQv9yrxT6QhdR7EUKg2l4N9o4cgvmW0aTSJmTCFju4i++1Md3qRb9fw4ngh4W17bBC2zbIStFoyKcEhjJ/vLgK2Jj9gvJIv5mTbD7KnGiWvUh/an366aePUhtBMbCB6jDLipAwu6rzBx98cBjWCs9XxfIlBKCKBVB9MmdIQNSBWSs0x1WxIma+OBrkIfrDIPrfuE6RHrzVMCH6Y9UwIYyGsDG57s3EOQetl7U7tFomQ6yZYOexpHokmv1d7OQHQbwf0j5DpEyTIORqAXbkY+3khcbtSL2LQDCDDbzrKB20swcw0R7C5P+iCBzkZIS/VHoX0vUf78xWh8HOdhnEUhNiHuYUv7I8X8yyrswtuFWcy70/rT35iBEj9oXsX6w2gzauCdrq7TErmq6wEN4TIQ9T9Z10V6Mx3CM9aKYnFoj+YxD9N8JiwyRlrMi3xXXSpEk7qBzYsL5BORvY+sC+fBUmS/NlH2zvYes8RoRe7iOJZ5IEJ+HK/WGKQ6cz6r//UhsA1/5heWGPxk0KCwnWJGwEPMWPt5dJqiPFx36CofruPc+HnH9FvmZRp7PQkk+SsKc4IIFX2jQUlk2U++g+qy1dbNxe/KuJU+0qXwTg6quv/gmN6Cw0v6u4V0i5JhDXdQqr1RniKEIrL+HC5IFVhTaQwwmKWyYZtFdhZp6xMlQou1iEhmKwWa02ia2+OV2WdqrNlMWsBjwSJHkIDbLdL4KYmFWJKHw8or9pFPJi80C9dKOv9wXPWuB5GcS82Btjgu2uiPHkOZQCFyFwjcXspZh6/cPfjtSvWb1bRlsrZrVnitoRKysj1S68q4BVrVHyZsJq4LHeu+bkSla1+qguGSOkdEhJO6/wHtGvXV5s6ZtbsglzvvLCatGdqebF319sH0kmT17YEu6pbf/0sItLqP19MZm0wvKYTF4VhnnoYGEjhQ6Cf2svbynVVyp5rIywKidEf7hH9KtU2SoDz8pOU/UJ0X9E7Raiv1JttrLzFJZ+ZE13fJmNa9YQRUCzJE9+13Y5DKqN0Ig1xh72QkjZpyoDNst1IEjfYjaSx6S0B0vkM/2DOOSnDhNnCyblJZhYfIgQ0IBNRtta0x9I11eYgjzD5syLsOUezUR+NhvUPleHgNTewpJ6Dlq6A9GyBSEr8MxLioljOUTS1D9pteEo+pFoYWX3ujFXHmnnsofjGkiBTEkmQVA/xLzHuMzERncmE0YLfUcLvg6a4tEy20GTuzF7AH6KWD3FbeOYLyzz8DCmSggwpu4owwht8rRkQcQHDOajKZxoy8a91bIDRggbAKG1myJFtoogtqvY1CvzgtiH+BZA1ldq7wQrNGtBBIkytohaVUD7Ok3fEczGS+BgE2xrmdBgtqMN9Dqttf6jjz76BJrUDjLB4N4a2snn7O1oefHFFx/F+6Y9Kf+Yw2yJ+dDn7O/4gDb3ScB8TBN/AasJnSBJc2lTh0JqZaKRxzL/JtOmTauLWd+XvjJrj4DaiPloUzAC4PaQwkGsWBzH6s8xtPMu7FX4UM8lqKCxz8Et6K0IQPexn+BoBIm7KOsKPUdA/N2ajymv2tDL/oKtbN4j1I6iSBo0v6gu6lJXu2Ofr5W+RxDgX+SeBHZry1yEMmEWv3Mh5TfQhrRx/CgftsYmX5dcE0IIN0BIy2FlRcTQfnQSb6FMg1AOfOLdzJU3H5n18JlJ++lTmeafOsEYYaah8rbLLrt8n0rb8fp5Hqt4nTHV25F3tblzFcqT6YwF71CuuBsCEXxOYTzfAGXOAOIZwnvF9P2D2HCuczBETOZxX+Z7Ky0+IiyE2Ye0tvWwX8K9l/ge19REwhXP8+gj6/Le8V4eVXcr6GfTea6+be2ZY8WXyR7hD8GkpZNuEi4Hk8DzUV6MJvws6rVPiqcSpwJtZYV1NvmVhXz60/Xvz0h/7GmIMepE32qY01BUF4UPAdswDWlkcjSDLxrNWd6Ea4KiXT0Cs4kvMId4ngnzeNln++MQAYV47oj2fm+I1J8MzJqszUf+9m+++eZLpJ0jniPR6H6CffTHuBY7zpIo6zXFvoPm/QQmn0Zo/kQCVfdrIKV1MBE6CzJWBEnbDvOOX8nvxmy63BEtcEtcKU6DQLRB09cXu/QFpDNSEwza2wvR/D0D+VwXzX4/7HmfRtP7pyYwnckgN5sRahFxib42IUK8iyz5hbwb+3zuBTWMmmBVj7EJRKRdm//04fsa3hHZN6RJhIi6lp/7WHjq6VQEvu200TeIjYgGNuxLFV4Tsf0grB2JMDicd68lbyYp/aF+tqS+T8NU4TKw1+ZofWSnvRrXpn+y+mO8kmDn3haN6UCW7Id269atC+WMeVVRmbVKAEloRFwfsBI1gva0gPe/RMA7E1L+NKsdK7mMv361Y+UNUqOfxQiX3bVpW2lB9reU2QZmTJ+R1muQig/VRlltqoEXoN8QEB/AVOdAtPUdMQc5hDL9rTg8Lz0xEg3R2oY2rHiGk5e1NixXYpuKokLEuoxsAY5mPw91OZV2N46vaqt+DzrKf542SGtc0X4KH5Yy07saYaGmhAD6rtnMShjtj4iNZbQVaa3lSanQbr7HTKs/91bibGDPSqyb/zV+X9uWoiTZ/GjMQrCpixnax6w47YvSI9YewSCHcfFkxmF5G/opKMiIfCPsPisPdvSZ39hMfyH94mnGxh3ZExXb4I/y5UBMq2Ryt5r+0xBTvmfZ3Hwge2Binu9o9+chVMudrjxolfgoj5jwPUi/2ov5YCNW/4ySxX4wyczh/U9YYbuX/Pxh88mqWCuE/08ZR7a3YTVmsYfoBu/3Gt6R6Vxs43yyuEU4nOovofenCOffZa0kAn4lixPgUm0dGjww3fnDs9GPosYq1SJVengRNgjTeA00ELqfhTFatuOYJJejkT/En0GFRbMmc40i7H9j2l/dZx6QdwyZYJjn2ES3s+9CxvvK247CaaJRGkwwZl+A7vFsoL5jh2nU+V64XEw05G6sGKJ1oO6jgR+LlrWIJflpLHe+pnCsHOwBcZvNxPAUE8TvkNuGkLjT9J5OarXpsUzeVveYcG7WezLrIF+/MDEu8Q4Eq/S6sBnAdOdJJtq3gxliH8HxaOlX4O3I7FPQBR7/sOoyj/IZMw3dY8/C5zLLgQB0tOGo0zO0BwIt5gIEqDNYOSlmifFKPWflY6AmWgSxd+U6Uhii5T4PcrSSvnZbGDBozjdnE+1/eDl53W9DjzZ+R/mfZ2/A8+x/kNnPYKWBBn4nCVPaDCstuNLB7OY7LctTz2YPgPZ6IJzNJR8DtcHay0sDu1lSYSA3j7OZeDEmWzMR6LawbQrBciJmHr9BXu62ZVb8kJ1iyMkeigOhYpFWOsDieJWRNGpivz1b5dA7eFv6BkKv8HvqN+1nO2kOweIUBJ5dyOsq+XuX+Y/yhrDZAuzVd4rQOB4RmQZERjzTHW14jsyHseEJTHeGg+32CHz9NV4gnJ+iPhqWSY0TCGH/qI2w4teS3zW45E2oEIWDGT/Q5nelH89XXLTD5jyrzVWHNn4bBFK2/fLQVaj2RBsZBTGdjya9hRdPyjbfahcIomPk0au8wNKmdCK1MVtiHDN7SBLFKUxYFR3IWLjYvithmWsVV5F38FIx2voFmPW1C8apcmOaZnz4s9+pGCHZpC8BWn3D7nvSPVaqBoFbE1bXjKmblANKwx+GcVzmUiXyLdeomKLcLaWOL4+KX/nUFbuvvkc/Niti+mBGub/6k8J45L9YjiG89xbTfh4q7/6IRBhX5HNhx1w2Arys8qMik3dppRkB1af2E6rdezb6KY8xac5S9kWnCQGiP8iz0U84KGZfCSs+x2qYluijwZEdbL5MNtB2fyOb5WCOZMLTtm3bebxjNtHquf5zvx7mMTNkc4um5jH/uxA5ncpZjKnGx2zIPI5l2aMhqDPl1tIb6J7XoA5pmsLzQ7mOgug+rndY0p5iiZ58pkNg/kO7s4SJ/HRL6PDOMZW4+0P0ZAKQI8EAk5VlmOV0U1y6MFeR541iXPrJu04O3jpOZVKUD3R54DEflrR3YCl964qvhZIpQvSfovxr+d1mYr5Ok6BMW+wb4L0KE6bYwVm6jzZ6VtA9G4LQrSo/ZLqdyLa+g+e2wlCmNrxj7PTtBMvKRxF7IMb7BTp/LiEmOysvEOur/PclQNFH5bO/WF6Z7L4Bz5e/8ZdvL9kw6jsETJslc6kzaWSD9tprECqa2zTk8UlhaDszydtGek/tgzYru/pihFMRRyMEkf8lEm5sO0X43I3N2gv8aUA0ZqL9NAIDZjnzIIay9TftWj71aVPaWFUk8yQGcJ0sWyJ/rA5NZbXodTTLlX5Sty23xkn6xD/SxOp7Zbdnmz5E/1nwHAGuG6i+0CJ/Zj1mheVReYdsfi3MGW/+ox/fx3UPJmA/6p7GC8LUlHco/YaQzuR5N4QICcmmnhgLzsIUsS0byv/SGMNK09ts6n2EcNci0JlN4jZtCZo829f+FqEkXGfa2f/cdinCNBJ9hMaJihKvYAtZ8ZLZTKkfBJSGkEJj7qhLDhAgiFcjcK7L1YxrPZ1DQb+ar+e0TY2vMRth5Z39OfKWZt63hBsTuX68K7e6m7FK97wcIOg5J4UXM9bKxGkGK2jf8nx9XbicvcuGQZDX+Rgl7JC1qut5bSvGREqC+ze819LL57oodNZnVW+4NtErHcb4yb4+V6CwYN+Y8cCYcjFePaSyBTfBJ8KrMp+zOrKXcEnU/3xE/+nKzK9LOz0IBIj+8kT1n55UU48l6qY7KpHdGJp66dwbiRAwAy/krB4NdCkanLVOM4VYLmVifQfNyknytU+49xSpDuiRvSXkeQkTcG//u9h3783A/RMCwNG6lAYkbBqTbifPBOUCiFIRE8IFCAs9FR9EYCUrDF/hBeUK65scU6AJLAc3RSs3lc2Xg+1yLyQ+j6X87XhmlpCJ+xtMeH7Gp/v1tsBMWMOZBBtDLIy5ESSoQMv+pKNJ0Xyw2/8ILfQ8vu6SCKgMP4/52fang4D1J8LYl3Jjae9fddVVH6OFnkZdxIKi7XyVybk1dRS7B6EdzLsfM3mOI55GfP+Esst7Uo403ey72JsJ/3U2WR+KzfRoJuJPwfCmeDbMTPQzFB8aeJm0xD4yf8FV6kDq7hvSmqG4vThWQ7p+5v63BDYC5BVXXHEnK0RXQHTMSbqk1xcSIG2r38ZxkTbF2gQwy5mlOPCxfgsk3rjcg+jnssrTEy3n79jav23zDJF8GROFdexviM9vmOsch7AnQUfkZDVa/+vR+v+jMBDINzEHqWfDy9wDMzGVZUMN2OCKpcRTGyAwmPahspLGYfoP2U+6SWBHvSdt9QxekH22WbYPXIpLbUDPlE+/GY5//LPPFaYAkw3hqvfWQFo3x/TpW7BbjuepRZTxGwTuJ5LOZGYCKn/K/2KdvcAYsRjs4ppgyLQF3A+nr37JytEBjA06a0EmZquok9+4d47qkHHjQML0YqN3Z8IYEw8UAv+C8Xq0038g6ycjZJiTr9HGn2SLxl6hsZiVxPZz0BZegejqBF3jUQeC35j4vqC93MtPXWn7qI3T7o19Pt6p3mXc+T1R5Ox7acE5DtoUnsN5GYMwpWkvPP19lHhnsAfhHITnD3Ehuw5eurTJ91YbhvHiPlb/TFJyN8rvgbQTo0XnymV/0+VgdDjjwbqcoZGDEmEJ/XlXtPPzvPrIJW7129Mg/K14Zy1BErzuZ7wvRnkwBnO63ZgbNF7F8qmyI4ztwMrk07jTPV/KAKXNpRWF1Tz/l7TvJX+5jFWrcPLwA/1+RmXup0hUN8HnjEfP4mxgsVzAUh4pl0ozzXFKy1QBduHLhUCkG5wmW+wJf5IffZbvD8umjl+uWsngyxp05X5OPuqZPH/Btd2eaEUPxS7+X5Z/ZToT+kEjfgQbKBfJ3l2DNJPLdZhT3E08B6Bp6ht8SRp+SNNB3oCep4O1mIRjG3oVHu36ESJt+k7cMyCrv/rjgZjXUBxown4T0bTPIJAdIJQLmBDkO918IPU7YGKxgSYY/SZPfTCv6ESZRlO28UyaTSBsu6Jx+oVJRFperQTswqS0ms17QzIIecKo0eg/h614EzapagNb2j+q87C+gxvMfdEEf4TJz45oxyf7bYjTnolqHCEmFVtC9mWOZu2d7d4jvz2nJfeW8Nux2W5YFYJ+oi+yby4+RQjIyEJXvgMp1krWSurzD4SgDyoTdsj2azrkjHy1Z4w5n77Ym74Y67Px8qZxn7FBK3hm1QQBbywrOn397dMLcxr/C7VvhfHlO7TzRyP0f6ZNr/T1TrwqQcMKVUWMIdMVzqaLhn8bnQkCTuaeTmJm9bEDZHMiWnC5dDV1AIEbrUO5yrMhVHGhoJiP+U4DNn6/1aVLl9MT9TcI9jDc0G7LKscUVjAluGjzSYmTgfmt9pLPBvJxKFg2YOV0AmNzG4+k52Gq8w/10EYH1SEYfY+mXuaZOk+DLJnyyaxyKum0UBiEpWsh/o8EsM5lT8pYSPwmaPTHYw6pg8Rim2pROlwqbMD+EwSE+R6+wbadxyrjG7zfhXF+HmOOBPJYWTDHHM+qbWvMMUezQriVP/7KbMPJpC0cURpNZvz+gRWUTZkra7HX51jmtNkoyhYEBLNcBPGRuAnuR11dnEz8Lky0EZDpDlzoClbWlrOBvW6ifl0ZpckGjb4dqCsDnyqVpk9zWoJEMMh+kaig8oqiMHJRByltwcR3ArafM1iGlZnOWh9Pw19qvEywJs54H2/z71phmFBk41/iwyQ6hBu6/J9e9geTvDb36SCo2Id44go2ifBI83NL7tIc7f+iiycgU5fyhNIIYa0LNvza1DwIIlZCY5+RDFWzSOknoyiyrrR+vP6ci6nKJhCtkyGGN2pDPYmU0PqmNdHUIrNEezXelJ5Ilrx5E+WrdrwKa79emNcC2XnZ+y1h5/VEWUV4kHvfmItfncDN75gg4CPDiaJK+ByC30muXRUQBUbCOU2CDO1GB2ppJaQBAsgd0nzzc4mXmLDVgVz6X5u+qxOAtWJpvO/YtsEYajTwkPnxkPxD+WpIvu7Z8smk0QszgbnguTCi4u0FMNlX9P4CswrwpJeeETq8Z8UoEo5FeGrEb62Y1IUE76Zn7L+wq1omqN5lZcHkmxU+v2DrTyay34UjqxnLwOFWnELMYlP/huwj+QAF0koEALkGv5PMW6FGZY+MeV1kQc2ujEV+A242EP3sqvLo59Y/0KQ84OCh5AXs2lsjvc5C67Ybk1Bct27RhyIyOVQ/rPC+iGbtD0wIlmDP3A0N8EIJb+TDEf3INIvSM+IRNbmivBNzFW2WjwxJEnnD1MMeMiXBYy23iolgrkoruJDsx7Blz+FQrxzM6kKVI3480KzfgImLwY/TxmXys5YnrDj4xcZ0zLkOhFybsx7YJyEBIUbyLcFGADmC1VDjIYfV1cUyrwrGy/N9CWcECYi7VhVKEBvVNatWe2KeIxM5CTMywVrEZveDZS7p/1CnOg37T/898tiJjfDrMgblsE9grdXhRO0kIs9Xs5JUm9XiJZjNjWKVY0dW2c5ndeIKVo4PR6nVk5X0O7y8ZlSxExE8XDYihECFk4sUy+63VU3xVRc8BIEgnppItIYbV+sbjIPl4Uu0SQqiPwSSOMmhnBYErHYuLZElGwmbUXtBBjpj27sFmvxR2BAPSvZdFy46CMhjlnID0WiERt9sQudKmVinuUTS7Nb38hJ5jVeCspfLxFVEmP0SxmsPq4jTWQV9OZEQw+nBZ2JWJLusHJ2FwUdCnPYbWc2w1Z5b0mgIPis7c61tPaaLx+NwoDbEU64t5U1rrXpAQOyCWVkeY3kRJkJmT0Twg/nkEXjHqcs+qRz2a93if06ba8BK0k+ksylkv8TpwZjxLPNWFGrKZSZhjVtUzJBO9Zcfk50uKI/qIwAtQRt+eVg+09w20x4dAo02Yi4JmCPptPnn2UB9B+Y8B2NiNpWzZIwDCfepUgjYfhXZcS7qRL/crcEuYXoR+QfsRJWS6HlKeUs0sKcUWZzAPtOcsBAxG2CIgdkcyaSgpV9NENLAmHdKy6cXvzGHqYjypAOTKMdh2yY2tHnsaTCuSDNt3xfSRn7DG4YIvmkA8ez5o4xjReQtiFtltP84/VtuRA2ph0x+gatZbS5VPZp+7dVr2sayJMYHu4+gFmYkNb1xJW3pV0RdZyINa0IDIVzL9CUsPbAzhB5TkMk6dI6vIvkS6FTXFmPN3xrL7dgud5vLsaE3UfLdzHe0j6WYKfUMqzvCmLDyvEaYr+OEMfVHmCXsX5BXpNiHDfX92NC8taYSNjLrJPIi9jT8wSZibZxWGQqJMw8vQ3thl24cOWC6oxUKhTUfnC6YPVPsn5DiKCpmZ/5iJvzOPrJvwWBhWEBs8e9gs/KD9AUJv7YvlEt4TJghF8Ah4EMgG4h+uSYJlo9vxz2hXPSJ1NbEo0sN2X6zAmkO/+EKLqNZ+0n/f0FWWj78nbaE/aF9jw04fqnPb6MZlk5YHsLsOu0Ab9LEC4dNw27UU7611KplW00SOqWyGRtGzDIsS4qb8c4nfJU3FoVbRT7tRCJc/GnmEtZitcYLFyyHf0Oh9SQT9ChjD8qx//0Dnw2r/Ps1VsENisGVCX8cwbqwpko2bvvc/06Jcnpp+82abF6tB5SwugxumvRjYcuje+aUWOEPntLy1ce3+O60x3w0eP3BVaZQQTJg39Ez+z0szzZN+8yfX5Nnr43YvKqMdjVBY4FpR17dKow9gMtftnj9Q9Hr4y+3xT7epOZvv/7vwbiCdRZsM8F47Pt+HPTdT3zD0vOXrUS7AbcS7QqMLNkKa1f+ePxp+seQMJzitVGVJ9/rf/quvmpIn04IZhOq8QrE5lL1Z7me1Ef1adudfscbU/zP7HeLn78eTN165fbXc6wvkrYNrzZVnz0grdBeDw1Glk2/RXzZnFquLDPe7ob///VNxf3/vJMoTjP+yJc95iDT4ikAfIos1YOfJOeyEmDs+b2D8sJWeBTGkFPC6FTc4EZfI/jjUte8y3fjHtdmHJObvfFM1QqinsMKxItsCL7Q5gHNf6x8EjoRBkT8ZR6keGL2PByYtSmbteVoIwfHG4clAiWqz/HgdQNX3OzJS52Hoe0vcsVJsf+3X8J9shqByNdhlSf6uCIcB7HXwUyyYd0C0t8af+vFnPb6rsY3jb0af7xmVmIzkXc/SBBMf/UPeHwPI55BkhGcaG08toWHkccwIcCGD6bpj8+SFL2vQdqQeC6dxtgQzYxmrgIG6EVocbQhVXaZlkAKCz+xDpIWPwFUmkHCFEbebDibx7UIqFcoPzH0C2DxCGGQQIYRynj58ePl76hBYcNfP2GkLR7x1X0/mbPlse1Jz0SI6uItqC0TbQF1Ia9DqitLsINp+4WjMG1tvHbobzP+dmnrxQqGfswTtd9g2/TXcaI2YPMTfMd/P5nvYW0vLM5g3/K3W386pZUpmOdgOwm2vXj9ORhPECs/2bf14a8fxas2orGrGJOHXfE7bk6dpV+vog3J57ztR5bs67c/P/52ZftBaQKcLZvfTMQKEX5B3go/Uig0wtOVDjWIzL6BZBpUJsLgrvJgrpq4n5WgHWoeE0wXxb8h+tjW1+CS7c5abklFFPFqtCfmLh/zvBDXt+P4b4Q+zqLYjX0BJ+s7duKPhZWLMNtiRnOkF+ZhXOyuRTzRxO/MgV1nKAymOObQLktO2aN1DN6NGuP9bAkk/5J42OmwMcyC5NIzh3MBPsEbjTYVmw/x78CKxZY6qVvnQGQC/wjG6ecZEcyey1KKCDiinyJg8YKXGUg0SlrH1IEqGiy3xLXZxyw/5rOcdhG/RX6DpCqpLGeDJB6y1G9IBf7WT+P/BkwMOnn2bv/gnVThXaC0IaA6Yim7BfseGlEX12ZDu0pb4V1EpSIQ6L9hQmwO5FEbqA9QRBCxWbQhczhaZfVpL88iMhIyPmUTpxFCqvPHeqyhftZghx7z418aJmyUn8gJzZviKnN9fOPfAq7yjR/TuAtnVgraYSbzDf+lwJFWXf7uTbQoDhqxwtNI3zlvQoLAWh+dWI1WvqkXpoRHMhuYME1tGDT7p/sjQUttzijBC1td7PP3wEtQiU3GyiMHzzXHhW9vz9NODp5oRoKH0W7rI9ewvjjtGRLVobn4V4yrQ3ldGSsRgWxobGUm+cJVxMnz+CBSP4pDlTbit77LA8EqDZ5eGKOpSPaqxDpLOulgWXjREACWT81SLJoiI+Q4cpk0pGkPKOxltisbfVcPaYc3qyMM9F+NUyUu9V18zE/Ff/cAVi6X4zP9J68/V5qds3+8pV1r5aHM+3lk8uFdoUJOuio3k+mI7Oo0a+WV79ZjTcI5DZ/3+6P5Xsa4kIOf7gtwgvCCxQINeV1O0n4Noe57S/Jx7TiOzbIjvXQ0lsTgUfiwscUvOChMGJ7+eLD1Nxp9G0550weSn4Of/fdYmdQp4+aUal2vvfba4xdccMG3vXv33trbqyHXotqgHVqfrEjppGzzbrrqNqLxJKz/iObbZStLEcgW0510dAxDbtGqFDNAiePKbMJoJKrZx292VNmeOaoZ9HGLawRPB4ZDIBUERN74/MjpvftgwvE7J71qlTIdY2Uq2QgNKxLJJvO4p+CWloBdFcDO+1M2F++ED/7fCX9EuTMVEoHIMx5RzscV4k0tW7achBKkoz2ZOx3pcdpuK+qlqzf3zOd/UkKY6pbTYm/Eo82jL7/8clOus5999lkddlWElr02+3oae3HmcMbJX5xs2wGiPM/mGQ83hizLYw9xrTXPCWP2UBif9zZMmDBAPKY9EWYFz3Uaeqx9oal/jv0Lh3Li+VZ47mmOD/6BHDSmMhrbfk4h1gGG2hQspZKxz+dTgnNYAUDPEFb+IuwizJuuI9z/liaq3sea6gkHKVrdHFz16jhyJcoGom/GjTQgZ+LA/dwaJqBN8VOszUGPpyHerInCIwYaaOxyaTpwzZryRzijsQ26Ec5jlcqaX2uYDSspXn6Nrb0/v16f1orQSnkzgezNiVBFmc2bZdh0mIfw8uKtt956GON1Dhs5O+EeMu0rXiL5HBZ3Prbpz8g9PG4kb47TFso8TuqQrFGjRhnzJTTzZ6dSNxDpxyl7MQLPVeRtY2zijRMFfdCu53DK9wRMdU5Ckz/cbvbUM5UBoeUtfcc+/2VcZw4Jpqsw66677ke6/8ILLzxN+KFheePAJ5m95rz00kuPBA/Tg9SPA7ddWUn6AVv9rTHTqq/LxoP73n/lYpP9cN05OfQZDnZTOy3haID6nYnJzyJWBepzKJhMkOrMnDnTbFyuoh/1YY33xuOd9rBkw/hTReui2hQrG4i+XwNd3orJlZcKLTlylfD5W96Is+z9pJZGs40MZVkd+LO7VhvHtrUem8ZvJ5D6qAQzW2cmLG73XmaC/CuVMmNL24Tl9Bs4xfGTzTbb7Odk3mXibo9W9ZDTTz/9sQYNGmhpPas/atNoRBtBJLU3xRBnyN5PaCPfieqEqzxzYugGuE28hBNO5URgSEgl+DfcRqWOUtJWWk0+7f7BSy+99EwVQiuwDRs2nJLuApFWPvV+Lngakq8PzgnmpLsN0GdmXXLJJT0VP/7sx6QSvxf2cfL6xB133PEhXrk28saD1ew9+xEz1CvjxYfby4Fshl5vhx12+F5TXhh+55xzzg+Q73Wwm+8bL8y5557bj7bXDPeRP4atdKDpl739zvjRPxSBQYd6aSO2NNULevTocQgCiE6Mzb3wwgsPZ/xpiivfn/x51m9WJ85EkJAWX+ZDyzjPI1ToSHcbqMj4fIJ6HqsWq8BNfUMrKnJt7ch+RVZG+tNKik+lP9nkY8wGoq/SlFmj4oMi94YbbviCpdTYvoQyaJqSRzY7QpbA9bzzzvuaY8t3J+tG68DhLtK+FMhHMraWP6EdSuvyOR5D9jz//PNfwK3aaWw+0/J8pXzQOH3Ixrft0ZhtGXbS7++//37g5Zdffjck+WQmobEZymSJuoDoN4DsXO3VxVpJ4ubwNEh4Jwj7qGTzg4eLVsR5LeWQ272kiD6TcCfeuRmtpza1Zz3Rv/baa79CcGknbyEWN8jkJdxbivnA5+k020i2XkoLpzEKgtQczepA3OFuiFedf7g3NITgaVxLxziZjmzbOJJW0ki7zopEE8jh82jyj7YRYNO9xpp3pCNjSkcHi2Guc/oRRxzRg34Wi5b6Tzt+jRs3loeZw5UIwmWZiuDV9bHBl88666y48bEKYMbq0tLEE47xuFNaGFZSjksURs8RKLTJuMRGYxuvl/9D48WD5l+bhWMbhsuKU5nA9b10wAEH6BThNlybc+m7hBYpBLXS0IprE66gNzh/spbwrUX8UK4onO4XYmbXgpWMrdhf05Hfqxh/JrLysz+rNNXRlLi81ebeTwKB6kT0izkFsDmbjgwsTCBpXwpOAu+oB1nCRCiArHlPISS/FmSvDtqk9unMPCsqhRD8Q7Dj3HLu3LktibvSiD5pr5ZWxSt3iWLSXmo9/vjjh5LPXfCM0ySdGPjisi5LY7fA/GBIwmpI+ZXYwb7jC5vHMj4r4cc/Dfnry/3Ycr4NY1digmSQJfZeOmaepfykNKRMPvURKLbHS9V8TEJS0s4qL4lWhBI9D5bHzJSejXCy7/rrC5OATRFYdhXJR0Pa85prrrlg/PjxHdhI+O5BBx30PoKQXPDOTKWO/fmw7/lM5Epo2VPR5lr80Kauh436j+R5I0wtFrNBM17+ouhYISHRF36TJ0/eqVevXu27dOlyP+UtsSkUAjle9v6pYhesQxF8+nID+k4XlAt3IySvY+cChUVgngP5iifIRl5jl0qbdWHDEXj77bdV/1qhkPLE9idrU+93J2vvxbq8N3f43c+a4coLoPvaE1gLRVIt9lp8ifelsR06dLiedvkfbXuJp+F3VZOdCLjxoTz1puVVtMgD2Ij0UdiEmkrcep/NTVeh0Rsr20G8FeyRyvtVJaxw6Nix43jxMJZT+4XhqnveVcAmq/1Z0l4G4bzKj4H/vbLUDUvGcutWdOKJJw7GW4M0JSWIYWl4+/KX0ENDorwF4wr+hhy2Uj7xE90fYcdsLkv354033ngSLxpv+ONdZ511ZmOeM0YEJYC1fuefcsopf3GQzgr7TP+xBW6PB5a+XP31H3LYyY8rrhjlmWW04tR9+WBnaV6rXC3CysSZE9ur7J9//vmFiXAMvo9Q1Iw89FNe7rrrrjdtmjY/LPPf5+W1L6YN30uosHGoPXDvM/J3gLS8CsfvfsTzrsUDH+Efy9sMqw3fk5bOyUj4eeaZZ+5VeV588cX7iafAXng0eVjNDxySrl/hQfjWKiOrPX2UL0jkSeTzUzTD+QiGJ/N9gOqKA61OVDhMhhomzKQvAJq/Hfbcc8+/6ad/4Iaw+LLLLhuo+IJxKC9oI/8gPxunEn+mw7IX6nlc+f7sr3ubptfP8hmH27NKNkP4h10cNHVo2Pv+eEorh9deClHsNMLmfUy8dHC7/FC8dBC0x8oXfKbxcvFXTQRsW+d/Tdr7GXvssUfxMcccswCTsebcK0x1bK2aKGVvqdh784jGlVatWi0tbazK3hJmOOea1NJF9D2CUcDEcSUk6fewCTPDxYlE9BpUIPo6WEVEv2+8QUb32Ry1D9rfGZDQ2204CFk9yMeo+++//3k08evz/Z927drNxA5zuLT0KiRER/6TG+Ei7mV8OP/HNQX74hu8o88NDrL7VNBXXnmlhzcQ5mJC8w6Taj+dEhsPLMV78skn/0Kcs3Sh1R7JvSaKg/sDL7roos/su8oP5PAV7K9HMtFr81MOAsa6DLRD8E99gX5TxqP4PWzs2LHt1UkV1wknnDBMecZv9NUs84ucFUEEZH8a+uF0x0aEH0Oc55WlkiH6j8tdnv9dcJ+N+zwRfZ2gaMi+dymPzSDs/6Dhna175LEeJ1QO5VwE6/7OkCZs+BdQrh3tu2yeW4IXj/GKE032Vq1bt55//fXXv+OvF38eCCOiX8xAJs1T0loLkXaIZwlSdfPNN79DHdQaPXr07nzGIaSUIHZo1UeqHEpfJl1KF+HyETTtk/RdF4SwGKHjsk6dOv0t4mvvI5DskAzu0uhDwI/28DQCE1cBAsAzOgwIQW6t1ZGweClHTQSM79DKLfTyUIS9809PPvnk82oripfVqif1jL4xnXCz0NqtwmY6Zi6UKL/CG4cBMtcoRoC4iJU19ddf441beF4ZPGvWrEhtYvSI/k/+PPvacPMzzjhjEKtF5uAve3k+52O/MSU8KWzyZIwpoB+sx7Uh1/q0uRKrbV4d1+RZ69tvv/1nbNptXZm4ZfvvT5e29my8Nu6IfqLW6p4ng4D6wQ8//CBlg9lQj4Jig7C2nUxcLkx0EGB+7KE6dUS/jHWijuER/Q9TIRrxklN8aNeuh8gNra4dTDj6NPrSRK5F4HSPkxz3ZDlxEWT9URtG/5k4m9rJGBv+SVwzsC00kyakWe7fjGaeDXSLIatFTLCLuZbwvRgt9UK0mvX1HKLfXEEhuNLSFnDYyzP4Ap8LqdmPSXwtMwQRdfjYndhQF2OnvIo4l3MZkgBRnwjJactmt6UIHjNtfnH7dpKesyQv8mWIMoRAxL2Y9B7Ub2zzdaJjMSsXxxL/i8S/ZquttlpA3LMxnVn22GOPafNjMatKd8RrVxD9xoQfXQ6i/xg4vGrjV74g4bPat28/i30Dp3KdyXUu1zmffvrp9drgJkIJCdpL7Zi9Fb8ojxwl/xH101DCEDbnp1MHxZD/ebbsEP2lEOopeLjYjbIt6tq16xel9Sswba14WdK+Kdn+p3AIHcOxP6UaiwrJyzoIgWYFiTx15RTNGZgPFf/yyy9dCVubqy5tbIieY3M8WOXBlMMIGHgVWUxcwyTYYLf9lcgu3kGWf/XVV+djt74O/y8lnWI2E8ZO2kxmqLFkU+MBp8repUkXoe6SsHYXFh/v6HTTYsyn/pRgiPDYgjY4mv5SrAsBuA0C1M+KlzCDeb6ehKlk41f+MN3aFTK6sFu3bp/wWwJQEcRYRD/URIe6l1eTTJmWJQPrWmEg+s+h0f9RONs2yKbNw+l776hPCkP/xQms81kdKXGPNn5KsMz6TT9uRvteRTzFmJUVI/D/5R+nEChP7Nmz53v16tVba6Xg0EMPnYOpUIlVhHhEX3E6ol+m6ncvBRBQu2V+u8nOSYxh68Xrzw687EHAEf1y1pU6AUS/PyQrXUQ/D6J/tTS21bWDaeJKRPQHDBhwIt4i5qFpvtRP8PQdwl1bRB+74SkQGqORYPA6DZK+RoRLYdDevg+pXMaJiiKiMpGoAamU3WMxRL+BwqC1ly2uCHRvyPRXkL9FhN8mXpPReyI7eH8ZQx4aEkctrkZ0su8UD6Ygr/H9CVzArYQQH6c0KMfxeqb8Pvroo8+IcGDy8RX2uEtZ2dlbYfr163euwvD/fv1nVeAPEUuFxSvHBdhEm0PFiP/OcjbnuK+Ds4j+6xZrvI7ci7mUPGWIpIgQlSBFaEGnoT1+AGLXUsQJzxVrIO4L/AkoLmye/+A+X4vzyP+DErZ470/I/0LweKW0PqD30SD3x0Z6PqsCuyVbdr2HFn60hD/KdZ9w1KoI6b7BZvihImUIajJDGYs5y19c/0BSJ6uOTjrpJLOCwaqMTtgshsjLZMgcmkQ7eQ77VoUxwoDSQRg9BoGomLZXouyJ8qp3FQeb/qSBL8aUb5InXCR6NQc7/m1ZUfhP70mg8uKST/J9bFtDeLzP1h0EXxWQ9GqIwiIEHQh+C3CdKCG7MWS/F0LsYrVH4ZMwkxEJEEb02XQ/2cMmRsAZj//B68p7mDWcg5BdgpizEf7kYDvVbwS/fp7dfrHIPAKwNPIaa0zd0o//DqbDitAC2mEvVm46I/CaOrQX6T8RVk+654h+RBpUlmdDbYl9gleqzUlAZfxoWdoYnOXFrTbZd0S/nFWtTpABon8VE8vw6trBNNj4iH7f4OSm33hjeBlStVwmOEHyiPZ4gLTqkLYP7KQq8oFG+z82F03QPdkko90/DrvWetJa4OHiZmleRfIs0cd8ajDvFHOYzGxN2AyAMqkIJUS6jzbzRw2QTNartIoAOZvNtQhNqiHBbHDSyZHaXK5Vgsc5oKUAQjkdoeNPkQfemaZ8QgqXYBLzt+KUGQ/PZrK0vwACWaxyWTMVtQ9dmF38Rz5neLb65WzR4a97pjtv2/JjXjMSbe5qzEwO4jqY60gOkdHyYBGEtwca+Zg5zvvvv29IJf62S/joVlzsfxgh7bnKTZn/krYZjbohN/SBkfHwVi71jDysQVgoNVywRHrv77//3guc58u8BtJ7BURfZLcGNtITFLU080ESpokP8xdjUifSj+nPZE+QNCsxmF9NRXgslumP1+5yEV6MbSQnb55RWlmCbVj1Sj3fBEFcCR5TLZ7JVC7CxZFKkw3aD8qEx+YFQirPKsWMV8+jhZY7FK0aPSZzJRsmmfgxWzLmcpjGfY/p2br0n+1oo/MQuObwux6XPIBkxcdvumMxwE3jFNU12C9Ei/4Ybfs8TBg2UvugrTzkbxcI5RK6tUG6xEdx0b7m2bBaueKj1SEjBOk/44tZYZEQwMbrwaRzJ23nGJ7Voi/Ls1isDTKGsHg1K1TJoLQc0c+K5hb5TKotMVbJBNTMhbS57TUWRT7jLoOlIsBc8qjqNMqmO9nidSfdTS1pDVu6E45YfGaQ8ZGkXIjKPWh7D0UrfhCPSngNUVhI/KZo7mdjT3+mLQsa2W8xNViHCVSaXx35Phc77K9ZXjcTr0ibTl9ks6DSMp4J2DgqbXQOdsu1mYxz0Fo+DFn9NB4+kKeNWWXIQcM+CxIvUi5N+0qI1BIEjOWYdIxGsKip9yGS+XKTOHXq1GZM0o9g67w5GlLtHyiAuM+GYBwg4YL8aM9Gc4jUn9h+70g803USpS8PxcRfiFZ8JSRzYgbrTjibvqi6QBuZK1/LmCH1smly/3Owasaeg1PJp8yJzMczo8qhTn7zhc3FnGgjJpLm1IG5zcRSpPMj2ATWhxWNLSjvVhBybUiXAFXiY9uD6kVkNtVys+LwI8LdYaeddtq7CBSPgt3dmEocT73kUU8rIFzyBy6iZYoM8RNpy2GVR6s2EjBydMImuE+zaZP/ldxfSd5/tfeIz7jQouz9ks0jRPpASHlHVpguAYNzIXmfykQt2fcRXoxPcgjrcIThmDs8yiAbcN3/nfjMd/I1mDD/c9Ke5Ed2/LTb5gjSnbmmCw/7KnEtYOVJQs1b5fVCk2R2yhss6J1Ep7gOxKTuNupyAZjpcC9LuPMo33x/grSjMYQJNcuiXw9jb0ZbhWf1a6ZcY1I3xjMU2KyB3P+NPXQP+nYvLw49MwcFgt9qxgd7UqvGlAUoIkLd1Apn0iovDu59h0CONuOjfLlFUPA9ByXKexD/rRw0DoFMI5ANRN8SgnRi4Yj+/9C0E7Ewzn3ggQeex/9yF0jZyWwi7O8nE5b86Thzvhf5T2KEYNfQEeZMuDOwX74bk48bWBV4jTBr5IMfbfJzaHO/ZWD7md+W+ORyouPK7777rhOD3+esALRmYpZNvTmJ0f9RPqSJRqs5HfOFjT1yYPOv/0arr83B+gFhaEz6X6Pxny6iD6G/BtLQGDvsN7HFb2zd6Fmf6ZDZxZCEHK4iH3kzmPCpgWAh95uZdMcq4Ud90bRL8iFzlxJt1HPZeBorF7OxY34L7edmHkaGbFqSY3FDUDsKst3s4YcffsEAlZurw4eWI6Dtj638pQg/j+FeUt5wNolDGk36kG+dpZDUB8FiYzzNPM9G1e4IVP0w6WpN/XbFe9CD2OE/C+6NtGrC/7lehIbksXH1Ccj/FqxaGGfT5CnHCijWVaXqh3sl8mKJvoSxZDKoOoRoPo92d8Pvv//+ZFYJ3vfaTsxtZxLxmPEocMBQLhp4rawYYQWiP1HfqUNzKF8qpBxB5k9MirqTV2nuW9Ae2+DidEeV/aabbnqJ53+nEl8S5clkELVr49/fl+eTUCSs1Zekkge3Eu4tg6eo2ox6baKToPUuxW9P+zbBIPpHsFIXO1vA55Y1j3SMYGk/Uhwoj6UAkYk5KJO4u7ijicBK5qjYihwrylKiuLYVzbpKKleaU+AVjk8mhVacQNL+omHum2Yb/SvRMmrjVrVcMlPD9JnuyF2fTgquyYbLOyHqRRDhI7T0rXA+Tb/RNMvFHOR5FhpluWg0z/Uu5jw6fElzdR5a3D+878ajCVcNbK1v0z3cPe6rMBCgBhD3eWzSHKffEMIT9RyCI1OM0A9EfSarBNpoqzgVdz4Ery7Cw1+sKHyivKANXRcyuxQPOe917tx5MasPxhwIUnsJWvK5mIbMweTiBbk/VCLYW28m85J33333ZTSxxRA/xW893ORBFj6QrTn2vCPK044TvYvpzrOYG32utBF2LmbT8gpMcmTLudYHF7EXomlfA4k/TWVjA7Cx+WQz4hidfKsLm/rt8LizGKGsiE3PLdircBpayxWffPLJZbZ82LbPRQCbFKaxV7xok3vJ3Aqtfyf9likUcde33ovC8oZv8p2UF5YwV+OxZw/Ct+S9WjLVgPwPwn/5UBF9zKl6yaSLa13MO8zGVgTE21SnmHINYJ+FTHT2sO0PwfNStU0ElPNsuyP+XTHjWkP9FMkdp0xkiK9RvA2vyv9HH310lcw82KR5m0xgCN9Ch1FxNeO3BDqVUeYxcQUH+sd+kO9VtN//pk+f3labgnFR2l9l4ACmKeDdmk3Ec/VdeyiCONGHlG6dRBtzvXIWov3uQdmLEVC0r8j0y0TtKSrPqdvX2Iw7SG0uUZ7ArSV9MOapSf1SXpeSeTdR3P7nwo8N0loVMuReAgAbvrXJOS6uKAvGOPeaqaDswoYhwPiSz/6b41CGzECpMZX5UBvNs6Y/u1pdGwHVH6Y7j3nznnOvWZZGokE+A0S/qyP6MT/6huhDiI/TxPrggw/+zEB0PWSzK9cFXGdwdUEDepQaNNrkHtKCoyGXTa0h+vIdrk2SrABMUlzSIMt1IprcS0RaIWk36Lk6Anb4ZpMsGmlj5492Q14HzMbcbbfddgYk73PsdeVfv8RHYTju3ZAp7Ha/I97zlT8OP5JpQzGb60w8IvAQxvuIZwJCwQwddqWIyO8mmA/9BxleSH5jgyvE4l82Fc+BJNZBEBikuPD88SVxnw4WH+g3pHu1dT8p0yCeHQCx1KqC+bCBeE/wMSdflvUD0X8Bot9T+EHwja93SHPoki7CTHM2005nM+t38vgigsrGRPngt1rJImmbqY+JCAXnCxN5zVGcbHbc2tYbJksys5Lb0BvC8g25GY/mc6UNj/CwB6RoNZseL4pXTpFX0jzd1rfNkwQl6rie6pk6+MeX12KRWHlN0n4JpcX3ydzTyb2xjzYSK6+sGMT83Itw6x5C2lVKFzet3fi9mroJ9TwzbNiwzgrvT9uPGRr+M6jLXSnjSpbTtYk79OMJDF398aBlX6T+w+nRIuNamSlC4A3d24BnJ00KcrWZcBXC6086kbgIs7i26Sa9ZW2vyb4H0X8Toq99F6WSGT3H1EwenmL1Q/ubIkE+2bSSDScMN998c5kDmf6CidgqueZ0RD9ZBF248iCgdibhF6WF8TZXnrjcu5WPQLYQ/WxoaImWVVOtbbdU9v+IGSwgi/CXNcXXXXedNqnpCn5k31qAdxzZtcoHtU7zM++iLeb11UVsPDxTE+dVV111PuQRPre//IjrI//fnyMkHM67y/Te2WefXezFM9+LZwkE/ExIXk9syLfnnT7+DNilegjgB9jyH8slkqdDR0bhLeNZbLnlp5w+V1zE9/EIGxujNX4N8mVMPSC+C9HqN8X3/HAm+YE275CtArTNiyCmy/Dzvzvv9sR06RCugyFv83BvOQMhqClhjFcXBJNaCAY9IWvy0KNVihw03y+hKZcZTXm9oRiSw6bhnqxs1EXAsOYtJepCZZ02bVo7BJoLJMig3Z9LuU/HVGa4hAACFyFozYNoKo/GbARb5m+JU3sNzMZn3UerPI573dhoLAFqrQ8Hy3XjkLAYsYYQjWeD42TSECEL/XimUK+DtQSVHZS8yoQm/xZrq45d/C6eq1LhVUy+h6Ctft3mC237A5C+pmy+jqXBSsun5HUN9aBzAsyHzZh/ce9+BLq+SpeVB5Uxj7KXMOGw4fFaM1omMfyW8KcwSj9m+sHG7T/R9s9A2zuTMm4er4yy0QfvxxFgG7KqsDfh1qA4uIa9B0Oxu1V7K0Joe5pyDQszsaH9fKGysBKhZftSzaJkjoLW73XC/0vdTQ2ap8TLY4Tux8zREuVJtjwyC4Tcm6DgvEL9MtF7ZXiudGJCFsku156KLDKHKkOR3StRQkDzrfaWeeNQlLLm8uIQqHgEPI1+b4iB8fBS3hx42uvLq6tG32pnfaY7OrkzF9LXFKJ9KNchXAd7//X9IF06OEvY//vvv2343YmBKiYgSgPPvY5+TTzkZA/uHcC1P15K9hYh5fs+MitRPBDP7fjdWUuZtk5Zum+suAnTOF49y2zEy9OB+h92Iqp8mvPsQH978d47UKe1+uOWH3o2Z8YEGy+fwuFgtN9bQKhbswrR2Xof4rnMjDr5NcsQ2l1YBZHgUeaPp9H/pMwRZPhFYckG1mPQWP+FxrxNhpOrtOjZ/3EO7j5HsQLUKl4mECjaIxxNpF2fCS7y9FIbk7BhEP1lrHrEPAJVWiEilDAa/ffRXv6RaOzWuMwG5J39h2XhwnRsulcwlA+09+v4DjorxivVAmvKFw86Vhe00d+djBuhtpWtWVEbZLX4VxQazyXqF9laxuqUb6fRT19tp1sDn+740lfSio/JaD/Rgsr7xZeJksd2eixhdMU+eMLRuyW0wpjh/BQSV197D7/vw4LP0aZqg1y/0vIAEdDG05gnmrCw8sDB/W/8z7z3StzTc2yp5a899mFz5/IQHCbYADwXXiXyiOZ/cCLcknie0IY5iTgyFkTazqOPPvoaCNJfnMZbov4zlmgFRyzhlYOUrkTjrsO+JsZLXuZLkNImkP1XCKMrh1WiBWw2/4N2/avTDJdAzmjOk8BEdvKvW22+FO5svI9bB2VtGsoH+4k+wUSrvo2DE60nlTU+955DIFUE1AYh+uVWWqaargtfvRGojqY7Zu6p3tUeK391xyEqzUArG5Em+5gn7cEVFbzSng/MROQ2cxtsZ0uNm03hg1iR2h3TnfMJaFakWCF8BFOriUkQ2rTnO6oRShtPe5GZlHF5mejjuVY1wRD6i3r06HFQuk2VpH1jr09TeQizH0wKr06i3pxyKFEFuuepIBDbCJ7KSy5sZBGI/PiQDUQ/3bWbtkopbektickj3eWKxVdKvgyxx6bZEBTsYKVxM3bUGcuMi7hUBFRX2NvLbFjehPLSTW4c/OlHAM29vHbFvCJVZl8vb+nCxorylsfbZKg2LXOXZIh+LmNSzG6e91Hur5KQENuTUd5yeu/nMuaVmPPkAcyNf2lC10WTLAJamY6dwZHsSy6cQ6CsCESd6NuNuOkkooqrXJpsefnAq8w5uDZsRVzaVFfAhq4luu9NUDlsOrR14i9D2MZiW7Z4ZbQbBu3/MM2v3pWaylzkS2nb3xpQzCZBLk2mtbBBXlcB2Ey4OWFvIq/a9CaNpiZlS/z9cVrMgnmxv/1lteoyf7nsd4u7OTQrUA/xnvnryv9OvDrUfeu/2/6XYGO15mHvhdWLDRcUhGIbOL1Cl9ZGg+X2Y6q81QL/+mz43Q/b4UK+P+XVheorSJD8eFrvJEEvMsHfymJYHfnr0+Ji68Rfl/oe1n7t4UNh9ZFsX43XL8LamC2HzVuwL/jryta/vResW5XTltluyLXxllZ2i63JC3Vl4ymgzoIbsf358efZYhyvbwXbrcbnsNWeYHmD+ITVgf9erC1RjrXqwRu7gu06LM4w3NWmG5KhRuxd2RZTr6FBcIO/2eeyN/tnYt6S8HIV83+f6N1UnrOZfhNcoorYxz5yQpCEYJNsm04lOy5sNUWA1St5epPJq/tUDQQiPz5Enej7iUa6mkRaKoWNd5vgZWNrMlWfiaIBJ1ZuggeUJdh8jueeiFpwArXEuzRSEa+M8ciPn5jY+P3l0z0R/aVcsj/XYR0NybfRnrFxtQb2qjr6fb6XZ5tvG5fIvyU4Ng8iHn4CEiRUYV5P/HkKEvEgkfcLAVaoCRMMbNsIwyxI8P1E3y8oxRNGwvAOthtbv35yHUbwlD+/cKDwVqCSxrMBm5xrMfgXUxc66VMHiqnO/DhaYcPWiyXa/jZl8+fPj03bj5G/HLYuLV5BISisjEEhw18+m88w4ScMm2Af8cflF0CCde0n82FkM57QongsQbdtIkwg8At3MQE60Bf8/cAfh8W6tD7r76tW6LL58Zc7WI4g1mGCVmn9wj4La/dhxD5MOAjrb/52ojxJG1+fzezF7OtJqLnkMLV7IPsxjT4Hg31vPWaFJVbWe7jBPRaTqxb2fTw7jd5ggw2GJxFfWuaMJNJxQaoBApxf8hhetP6rBkWtLkWM/PiQDUQ/3Y2l3JXiuRG80fMKoYm5EI1+Hw4pGswpoFd6RC6WThIao6TLWI6d+jHiwWSHMn/8hrhy/J3TUU8mcZPXdOYz6QJV44BeXebineRJNJr1sR8+w5nuVOMGkeGil2PsiOUs0RjhpWGEKfY7vIZXK7N6GO+j8GyQLaFl5xA8ndchJUNaPzpd2f+BcPWTO94kEin3nJFEGi5INUEAJxB9q0lRXTEjgkCkNwBGBKO42fBI2RoOHzoA//Ht2NCng1jW6L4mRHulsxz+eFP8HtNMyo+v8oTLOKO5zEQ+01nmqhqXh3sRKyw1MN3JdyS/qtZ0NMqV4ngRGxdSGcu8sBpfVtGukzGLycGbVYmVJEx3dFBWWsm1BArOYdBqWexD/sxZDknUTjJhkojGBXEIOAQcAhWPQLYQ/aBJQXmQSvugjW1+kVzD6SCp8mSsgt61pgJKLszMpoKy4ZLxISCTqbRrMB3CDoHKQsDT/GszbamHgnEuwd59+/bdxJ9PhtPViVYOUi0X53M07969+4X+91B4KH/JzAf+MTPVpF14h4BDwCFQqQhkC9GvVJCSSNxMFpdeeult2L23TCJ8pQQJmTyTmeQqJa/VLFG7EbqaFdsVt4ojIA16qQLsxIkTtxo1apT2DpkP9vkDOaX45zBcFi9e3JyD9TbQFXZYXmlYor1v8uWXX8ZOPN5zzz1nHXHEEc+kW6Co4vXpiucQcAiUjkA6ldJpwzpbbPQjCZ6tBZaEF+o7Jjwtdbpq2moncxFZgl8CV51Uy0mwh6Hp0iZRTdCxTYacIDlzu+22K3HAVLLZwyylLp5+Wm600UZjkn2nmoVzKyvVrMKrSXGtt6+4xcXcsYR3KQ4fG12nTp15wRe0H2qPPfYYOGTIkM30jD1RM1lFbYkLz4R9R2Y7nGYtF5651oc+49lCzj5w41E1aYiumA6BDCLgd26QwWTKHnU2EH2/Z4myl/T/30yr0KBJ5N57771H0bPZy9jmpyOTGY4jlOjj+aVOx44dP4Twq12UKAcn4C774IMPrjj++ONfTCVvcjl6wAEHDNpvv/3k8/P6VN6tRmFLbTN2E2W625Z/c2Y6404m3mTCVKP6r6pFFYkvtW3LLbG/8CgZ/G5MzSO1lTfeeKPH6NGjN0NpYO7dfPPNg73zQBISfU8wKOGTnzFurXSqaiW4cjkEHALVG4GsMd1JJxFJZ5VrEnr11VfbKU5pxPkd9KmdzuTSFddak6/KwSa4xkyeBSeffPKPv/76635c++h///79jwL/vNNPP/1xltl3TiUTp5122k94+NnkoosueiiV96pZ2FDSgYlCM7wi9dx+++1n7bTTTtM4afTiMM8pugfGbdF4Dsbe+eBE2HFIUD1cee5MvFO45mHCMIJ72gAZ+tEzBLVRN9xww3ulxS1zik8//fRy8jqVeOfwf/pXX311pj/P+q5yXXLJJb0JM1dh8AJ1arx48dqyA2YWg1hp6hwvjOL88MMPL91tt92GzZkzp1mi8rvnFYZAqSSfdtCEdmCUJPqg3dfG3LX8i2vsx7f/3tRtLOMnnnjiw6l45jn33HM/ttp84sthFXZ2haHgEnIIOASqMgKRV+5mg0Y/3Q0krRp9ZQ6XmoNHjBjRns24U5mo5LM+Wz4lGugxxxzz3ZZbbjkf7VknVidK2Nb+8ccfhxx33HHvc1DY0WjdhjEprxLBkvZ/4MCBh1PgXJbDZ2277bYDrVCGBm5XtPlbsxS/atiwYe2Y2H/lePv/9B6/O8ybN08+rXP33nvvjzyXpTHcIKLt8S/fbK+99uqplZJsAbSM+VzrjIWvv/767KZNmz6LudPSFi1aLAGLJkcfffRTEFppOI1tsXXPyZkOO4Lh99tss818SHGprtswYWgFsf+2d+/ebSDG08jvEg442kptmGcHN2/efKK/DNhFN+HZwO+//34L6qHUAQ13rSOpt+atWrVagP/0hVOnTm1xyCGHvIJttPL6uvL80UcfXQpJe3STTTZZhOnEYsI0O+igg96gvMUHH3zwWzZtlY24tm/Xrt0P++677+RddtllYBi2Cvf+++9fjnD6KG0xh1UpmZ25TxYggJlj8fDhwzeyWUXoG0s93ham1KFt/YT5n+pWppELCbM8WeWPwrVs2bK5TYdVhMWvv/76Icm8r/bVuXNcGTMLUHZZdAg4BDKMQOSJfobLX77oNcg+99xz37788ssflC+m/70tO09OIb3khBNO+Fvf0xGnF2/+s88++wX+0B9OZ7zpyp8/HmGKec44wXHhhRf20W97Qapm77DDDgvipfv888/fxrMiNLeNFQYvFk9C5GTnag7MQdApuuCCCz4ZN27c9nrOCkAv+0zvcVLmQRMmTNiFMN8hEJl3dEEk/3n44Yef8KfLhK8NecHTYTMBSaXHiWD1wNNPP/2czYjqA6K8YOutt543adKkbdWmIPqbQXbncSib8WJiV2DOP//83pBzmT8UIwiMCtP4+wvIqsAlCvvYY4/da+v9iSeeuFP33n777Wv8YfFU0hRB6289a9as2epvv/32jHhg0f4fRKArZh/HZE4f3UxxT548Gblv2/nkb7lNi/yv5FC5mZSnje5RPuSTbRZzgmrMtIITTNenXN/j41yHvBWfeuqpg+KtZICbNMKmHbEZviebLkv4ZK/0yq3GGWA8fPCRRx4xx3SHfVgpqsWYcjlt516ubgic5yaCK1H7jvf+e++9dxFp9OB69LXXXivRzktLU+khaI5AKIltGE6UR/fcIeAQqB4IaHzApPlBzT8ouJbwO5IWHdmi0U+nxOQ/9TJdrbFIm3DRJtbzSEe64s10PCVWN9Cqy7d+XKx5Jo2aNrUVYebTAO3/aZC7HMx7TkU7VhPt3D7nnHMOvOzU5wk39K677rqOZzuj/S9AWDsD4vo7ZhpnI7ztx+/n+T2ezXTLIfqPQvjW4Z3LbIHZ93D+FVdc0RRyiyI5v6oT/hLu+2677bb3MVNogCbxBzT6I4QJRHgseLNIMno3S3ZYgRnIoURbdevW7V0Ibxdvb0XcNgO53hTifid1tvykk056zmo00eS/eNlll91KNZlVArtawCpBf743O/TQQ4vZBLl4//33fz1e5Gjk90VDPwOydiDa0zGKZ8MNNxzRtm3bSRD/7fTedddd9yHkrhDt7CDKM85LZyTa/Sms7hjir3usOPzAKlHrhx566KX77rvvHEwuQgdPVpfOuvjii29CUPmA/B8PHm9TNrMx3n0ig0DcFVQUAxLkHk8lp8lo4cPiYxXpGd23bSyVNDXmpRjeBXcIOASqHwLp5KlpRS9tWu205mrtyCILoC+rwjJ2jHuG8Uh79JCxrXANWohW//dSIjcmNEzQSzH96IKN9TRs9ptiAvI+5O0NCJmZEC0x56Tg4WziXcLkvJAwX3B/xUsvvXQMBO36s8466yruvQThG1G7du0cNL0lTIVat249nLz0qwYk38JtyKyICCsimyEArUYYOsBPbPAyUlv2xfaz2WabDUHgaoLt/KlgvxIzm1JNnCDyKzHzaaKVGUj5VCswEIfVVprIPbOZrX766ae2CGG/YEI0h7RL1VRgPrM3Qkgb6nyUzR/5aUy7ar777rv/I7JEW9mOlYEVjz/++LE+06MceXkSw9d7fC+kXQ1i02WDq6+++gKEyxy09GspJJRHhItjcMU4i/jfUbYJJ0HbfRwCcREoq6DgIHUIOAQcAnEQiDw/zQaNvjXxSFcry5R2RkQoG/D04xjDAtvvrhCx+tjOH/zKK6+EYg35lMsLEar6EMAXpk2btinmPz9AugohdXUx/djC/+I777xzLaY6zZ588kmZhkhAWIJt7Kl33HHHOyx3nSnBALK2MfHkrL/++qUerJOuyo9wPNrIrb0LB2Netg2kfAHmTdJ4+j/SuMd+o8nWJtbcF1544UFWkwquvfba7qWVj1WSxxRebgb9hMcnPBgyz8rM7p06dfrwgQceeBWyfcmxxx47ivh1cm/cAQ275xJ7U7QxF838bwgL62ICtPXgwYMPJd42pD2TcpkTSn1kX+Uyqzbe3o8u+k67eZxNk2swyXkkAEKuTLuGDh26/g8//LAHQkEjPWdFI1sUF2Vuhphc7YmQ/BsCdLb0l0yNt2XG0L3oEHAIOAQygEBkCX/Uial1rZlOANPtrtO2F5GMSNpnJWjQZiKGxCvvuZAmaUXnBt/hBMtdMCW5StpgafSxK78GYtkVgl9DYTEdeQWvL8O4d4TdyItN9+GzZ8+uw7K5IaCYiLTG/KMfZNYcKoY992w8FvXAZv8myF91NrlQHZi2M2bMmHZo3fM/++yzq4488khTDSLEMpvS6cv169ef49eG81geSY7nWTGbWl8qjYyzQnAo+zOmH3jggW/b+pVwwUbyBtT/Ksj6GtnVs+n6XcyHPsN0qisely7Gk8+62Fufia1yCQEhXruiDdUn7B94ytmgR48e3WVOwxkTu2KelcOm3gvx4BN7lXzXRItfbMvljxNh8Dja2kra3Wu2XMIBc53PMAlrw7UrKxOTWE36+7DDDhtNud7MwOAdqSjB5PwuXbrInCvuXppIZbhqZMYJK1WjHl0pHAKZQCCd/DQT+YuuBtozK9AAKwKdTq8rmRq0MyVAZKTivUhjWGA+YzSy2vgZTFB1gSbxODSz8kDxOUS9/ZlnnnkfJjgnQ+6/Vh2J/GN+Mx978cexq++vOIjT+MjWCgBkbxFk7CuEgEKIYEPd1zs33njjAE7HzPnzzz/3xiNPJssa9biFey6E2+STDap/2AwL/z59+hyP68qtsJXfi2cl2rCwhQgn7CMykcIMZyHekeRtJ/bB281XXNOon8cxmZrORuAcNmWP7Nev36WYaB2P/XwdrvVxddmBvMS8KoW1E3npYTXgN8h7DVZuXuvatas5O4FyGY09ef/T/x4rOmdB/lsh3GyFrX6JKNHmy7NTiXsQ3aueeeaZ/Vktugvhcy8EhQ54hNoMAXIixL8zKw/fBVcXol7xqeQPTLairuvzjiP6qQDnwjoEHAIOgcwgkClOmbbcRlmjb4mzmE9sk2AaSp6pSjGMJMtsQM3GZHnCwXb+KI6f/x6TgHlBzxZ3333382yMPIqNn0dBxoazUfJQbZAk7EKZ46jYEPzXsfWuC6HDOiPPkk6DNWHMKTcICoV4UlnhvZOD9ng7NNdboM2X/+z/nYRTPT9+NmuwgyjXtFDglrTFgw8+eJvOaZDtvm1j/noqzRuJfYabTp0MWmIfCWY/D+C2cB3C/Ce/5BDnNRDm5pD1J/1VgZa/BysGA9lMvVe8KqL9fDBgwIA9ttpqq0kvvvhiW+Lzb6K2Nvixcs2cOXNjNgVfLxMuymXMeWwfsnkOlguNvhFEeU8eoGKbmGmbrbg+Yk/A+tzPJhe3qbZ4jdnZZKKUqfE2VdzKFF59jdWpMr3rXnIIOASqBQKRH+Mqjehj0rERg+gaJm65wxO5sZOX0eLjISQfcvMcnlnWOqW1nE0nU5r3yC/fxMMNG/lNIO/rS2uL1xQRfRE0mZIUoy1ehsnFGkw4Dtpxxx3NRl0I+09XXXXVu5yS+ylafHPYEwc2mQOXIKixNmXJKu4UJyMs3I829iw22PbF5aKEgyI0+0VsPK0ros/HdBbibty+ffvfb7311kcw+SlBNstZ71F/XTbXxRDehdLqg0MDS3LxJ78eJHZTNOQvs9lVG1tjH4h5La48TF/mJRIyCTObsKovI+DpP3VytLwtYWIj15nFEPlTdEKynkHAa/fs2fPye+65pz0C2SXymrTpppuGmu/I5Ash7hg062MxEdrTrjDYMlCmpToQCY1/Q+v5ZMqUKRuzUrEx/fwxXHDO8JdLJjq0n9ygSQ97Q15lD4PaoQSWGgiXbTDZuQ8PQWMQNi/GlKeqa7rVL7OF6JtVqqh3PJc/h4BDwCFQDgQiPx5XGtE/77zz3sKGty2eV2YxqYtY2knB2isXIgysz1J/zItHOSoi7NV0E/N0x5fm4paIrkReMef4d5999vkbEigSZoUu1ccqzDm+xvziSmuGo1ggX3MRCL6HcO1CeGloV2CP3/X222+/C3eQYyzhhBgOI97Wm2+++RjI2PMS7HDvOAKyp8NrVqMh/gniOgH77wP82l9MeFZA/kt44ckkGBGJ22yuBKcnwOV8cPsOcn2y7nHuw7Pgvwwt+3f8X+TPL6YvFxKuLRtd90STbkiVxR/b+44Ib7KHMr7MObjqcLzUDLrzzjvfgBj3xvb+MMyv2rAX4A8I/GDP9r+3jR/t+Bacb9COPji9Q4cOn8vkR2EwxWrImQgHcv93CPo4NPObkOdvyVvu5Zdf/ghC4ZkQeOVlDWmswLzrc1xfPkIc51OG/mzaPpvna/j+Om1pGfsGemFuU2JFh4O1rsRsaAMEyC3xTxwrMkR+Cj+mWNM+sPkTc7AcBIwBmIz1TiTsRKSuy5MN9cvITyxeAasK0c+msb08bcu96xBwCKSOgH88dooNi58maZE9Nvz1xBvH2fyWxxH/JYfe+dgNj8a0YDAawrRsspP9OeT0KsjB6NJMHVKtZ8WFy8C+2A3LzV+kP8orxGosmdSBWQP0O96VTEES4Wjj9td98F4y6VTlMGxs7sZm5mctlpDgUxB2zCFYXEUIUC9ix35KGNZ4S7pKhBrXlsZXvf+D0DCE3zHvLDoA69xzz/3WxtumTZvpnGlwl3c+QuxVWz+stmyjuNkbcJ6/zlhhUFqrIOxX6yU2VN+qfHrxWi9Z9v8aVoTM6aesSpwGoTeHYCk8PvKfQig4LqxuifMWpc1qk9m4HfZRnhAWRuC3/99E7bCqtB/qdASb2jfLhvIgwPfgwCy1t6z+YLoz0h2YldVV6DLvEMgIApp3WBV/VHMaCqlF/K405XlpBayUTHlat1loGy9GO9jYIwn+fBqpCPJ8LaTnZjR2eXa5P021VS2lLh8ZsuUv976CRBrU4PNE4dNUv9kYjU6LMvUBsXiLja9jtIlZv9FU94mHG5uj3x00aNBQVlLGBwv91FNPnQ65r8PGWlvfc3FZeTRejnZXWLTxM3lvZLw64nCrCcTdEW3/eH8YVmHGcX9f3Vc8mNO8wu+fvPStaZDNzirOSvhPPyCpb7CReyymQebgNbzlxFYPgnlnJelV4hyA3/058SpTeULAOZN8Kr5q8dE+Cu15SfN4mCnsMmUmman8ungdAg4Bh0CqCJTgU6m+XBHhK4Xo24Jh0zuZCUtL8f5PzH4YjeOXEH1pDdPttjITRD+blnezKa8V0Q8qOw217xJtHLOn35LJFH1oOuF0rfWh/wwLua2VgrgE2x/e2zQ9MBiHd/8Hex/Tr6l815Xwg0vVnxMGIoAO9EomTszCBicTX1UIM3Xq1K2PPvropnJRipmWzq/4NuKC81rtOtvqQQIVwrQTWLKt4lx+HQIVg4DZU+olFVleVem2noGJKpel3hcDoAU1hOmovkwQfeUrshUdB7RM4ZCOOqo2cdAHdBiVzNVcfVSbWk+toGobmMJczSrHBux3uLl79+4yl4pse/FWHLK6XXv90ewz8PavRBbv1FqTC+0QcAikCQGNDdaTXMwLXJriTls0labRx860FZ44lmP72AgPO7VEkvnUxl75SFznPa7BlecCTt5cKl0gSQJxa5OcRND4QfAiUg93iusQQpjksyl1qTyrCBxPkPD7S7eaJvvfbx9tJU07OeWCs/lubbIxDRH2W7DpUnbcfleIfglV6dnLX8ZYvIHS+CfD4Pd47/gFpGCZFL0/njBhyn/Pfg+758+qXTkKVkai+MMqL6jxCxKCMIKge+p/+e+///6G7FlRXWxFXfht3ZWWre9gufw4xWtQ8fBWeGMn713BdqPn/s3xNrytC395bRxheQjmOSzOoG2/P43S6ibYvoPtxJ9nm4+wduTPo799l7U/h6Vly+Gvj2Cb8L9ny2bxKqRtFDI2bGwjwsvRutzbgfYit6S2/4bl2d/O/fXsxydYv6XlN9imguVQnguU37lz527MWNaU79uRT+3N0Ab7ID7B/p7MuBKss2T6cLDv+38HcdGzfPKtuSdfe1vI/y7MRwv4r03j1lFAsnlPNKaUNlYF301GmRQvTDLvBrGMN3YF20hY/wsLY++F5aU8glQy79owpfX5eO073pjuHwtTmafCcCht7rJx2zGhQJ7McLlciHc065kwbPzSvbBxJzhWJJovbfh4e7GC/Sk4vlicUt2gH6yzYLzJjF1hc1O8e2H5DBsfVI5ajBH1Gec29SIrS/9KJW9lDltpRP+SSy55jU0Me+2+++4zsPldvnDhQtnh18C3epNzzjlHXkKW4rN9GS4dy1y4OC/6G34m4i5XnD/88MMxHE51HpE05CrggKRWW2655b/eJkZ1MjvJWO8bYaTc3zBtx1QDNrbRbKY0Gxw5EGkbsH6fr5q89I5dale7CLYNSxjikX4/8QojYWEdNDgRxBuswyY7Wy4br8KEkUZ/fcQjVzZMaQQiLG9BcuYnaEFSa9Pw4ye8CxisJdTl/Pjjjx969eBPK4z4xJtQghOFbSPJEDyLn7+e/ERG98MmtaBg4hfKg/gkmkyCfae0gdM+C6bvr4NEk7CE27D2nCifpbUFf5v29wO/t5zS3rd1ZfubFcBzGRtbKXIdLMfZBzXou6/zM/Y8Tv34+0VYnykN83jt0N8ugkqYGP46JwFlQk3OZdAY48c5mGbYZB4M4/8dNvHGC5+oL/nbexjRygfvZexreQbNnRVUwvp9MH9hv+ONb/Hul4ZBOp5lOt1E8SfTv1MpZ7y53d9e480BwbyEEb6wNuhvP/55JNiWwuaweO8G7/vnADNn6OK08fU5G2UJppMLfP3Lrxjyk/mwcoc996dlxyx7L6wP+/u/ntsx1d9HLK8ImxNLm3Nt3HYsDBvL/IrPZMYM/zzmL2u8tmjLZNO2GNhxru6MGTOywjlCKh0pbWGlVX7++ecfue666wZdf/31wyH5TbjW2W+//Sbxv9C7auMV5E+87nyQDrMG4pDXnSvxujM+HfHFevX/vO70xulOub0Ded5NjNDDVQvXhxPQ9m7o4SHPRGZjcgqXwttL5iEFbPacTN6LL7vsskH8Vpyh8aWtsssZUQplTQWXWNhyZk9LUUnjl0pZSswqqdV5qTiUt7xRf780jCs678nUd7w8+d5V/81nLHxC/XbPPfeUlyGNkWuNBxVVvgTlMvn96quv2Pv9ZF+NOWHjVhLlTkQUM1LckLKFjrnBxJOp63TOOxkpfBZHmiz+vvnQPzeGfS/TfJJCPpKN35839Xn1fQn6U/Fa9g7f63j3jLdC37jgb7ellTXo9dD+NnwhEHdC/pFMvw6pg4zNWanMz0bCSm6uNWMcV01cjYv3yevOXOEVxS5UaZnSSaiAcjXH2O8H+T76xhtv/ADi+SACgAZ3SYX2f+zEzFQAVGXh3aO+fLejDV/iG2DjSf2pRJ+xsN6eBbJbLLeG96B1b3XWWWd9hXnH9mpMZdh8F5NUidPkGw2ycbmoU1D5V1SGODNW/rCIq1L+ylqWsr5XoRUVkcSihFV58uJ7V+NBLhtxn+BzPGY7JVavypNGWassQZomv3hDymc8N0NOKnlMJWxZ81/aeyHpl6Z5jkVV2fnOBBbZFGcK+CdVnxEqu38Ot9ptHU65Qn2MfGqlSX2sNO12SmX28SX/qqhZAUgB5xIQBt5LKT/lqYtU85tkeJN/cSrqIPInsVca0RdIHqDfAVZvDly6CB/f97M8XVMN1tfQzEyR6OOFL7FMi2nQXZzsuoBnd6pOlKQkYf1PFF8Znqc7ziL2MTTCxjUHU5sW5elgvrL4zR10u0xCVBmwca84BBwC5UDA2ww6pm7dusvnzJmjzV9mUk9yUipHymV7Vfli87Ds8pdFNY9lK5l7yyFQeQj4FIHiGyL4MttJRPJTznBQyWA5U7y+LP5VTfu5xuG5HsAVJrykWqGVSvRtZj1i//QBBxzwNMu95x5yyCF+m01jg5qoET366KPvcjrormippU0S+IX42N64oKBg9SeffNKF3/Ouueaax3ENmKxNV6pY+iXfVN8NDY/PbHNaKGWIHXpUnog9suAXSKrb6bPlgc+96xCoVATUfzkxeTn7mz7+35BYqgavUvPqJa6x27/JPwp5cnlwCGQ9AhoLzjjjDJVDyrpMcRqD06hRo/bv0aPHPSgZVmEN0IlzjUrwkVtuueWbhx56SG6bj8l6YMtWAL/CNJJkPxJEP0DkX7BYW1MTTWqJ8GcCfP+VV17Z96677hrEBpVlLKfU+fzzz5thtjMLAeI53l+9wQYbDOeUTu2QThhfovRCnhuin07Jll31ZpLUITllyE8yr5R5GS6ZyF0Yh0B1RgBvGLlsSF2f/9LAW3MbQRI2GfiVGyVWJgkf80d/6qmn5mGj/zneX7bh1GBNuMuYgBc0atRoXkSxzgaPaRGFzmWrIhFQf2U/XAM+0pJnw0fjREZJvkBgs2nrF154YVeEi5zbbrttPW5pj1/sA+/am3NPFmYDYOnOowQuLEf8G4/TnURa4osM0S+lNElpyrfffvuPsWP/7+mnn+7Oht65nNZ54dixYz/BdGcYQsCjXvx548ePPyotyK0dSVqFB1y6NeMU0Z2VDOY7DZCqO/G1b5rynjCv2P8Vsj/gqPXXX38iXn8GhaWLN43DuV/crl27nqnm65dffjkMAaZ4t912+zLVd6Manv0m2yNkzuIQq39TzaMExKFDh+7NgVI/gEvcwfunn346Dk8mcvsX9GogQlUEnl8wUZmTaLP98+effx6CS8naHTp0+CjVsvzxxx8HYsteG1L8aarvpis82q/8yy+//FnIw/penP46s30wnjcevzcKu18pn1XLTc8///zn5XbXawOLOUX4E74/kq58pzGeVF3ppTFpF5VDIDUE6Kf1cNTxAW8dkNqbVTe0nKZgLdGRAxxXcWBfIa7Pe1HarWyJOcG9w0EHHZSPg4+JeAiUQiKpPX9WIWpNtP3WBkHrjTDlqf+9CKAfSS2+H5cqQ/S9hvLDlVdeeRW2obc/+OCDHyFlzoawLvaRIlWItOSZqJikBJJkGyV2+TtxeNheCj9mzJhG991339187ZDs+/HCCaeOHTvax3FXIOhIeQhM75122mkiWceHxccm4TfRgoiUNk41XwyoryKEacnLkqBUo4hUeEj+Tgx2vVhFOoGMpUT0NWihFbn1pptu6oqWtlm8gincRhtt9PKUKVPqxwuz1157jZ83b16HsggbUQJUZaX9PQ/Zb0i+Uib6F1544ZOY7tXh3U8rq1ysyGkl7rBU0/ftT4r1U/vl0EMPHY4GqRN9Z7buqT9//fXXqSbhwjsEHAJrI1AIX2iRzlX5bAcZt+d18YzYhTHny/vvv78TxF9n+sTs8e+9994erC4WwlX2efXVV99Egbcxzzu89tprD6CU6vDMM890wNSnhPkejle+R3iQh5qTmPN+wD3ofL4fzvc+zZo1+4/vx1uyLx5C+D4PPPDAAvJxDJYa9XHa8g37OWsyx+m9fUszYcTH/XrXXnvt+4R/tH379inPI0nWn9PoJwlUWoJ5ZP+nq6666uBvvvnmOhrETffcc8/PgcgzQfLNnOtdaSkLGrvlTZo0+Q/NfnOW5tfQGWakJeIkIlFHxkTg17Zt266kI9/GIWZrvUWHq4smP1+dDZKbRKwlg1A/h2m02GKLLVJ+N2ovsDly/Z133rnP7NmzG9arV0+CZUqfAQMGnHDxxRff2bJly/nBQdFGpDphIPwMbX7933//vVMgAWlOC/HDfwQa5EvwzvID4TdLtK8lpUxWcGD26lzOKbDrb7bZZlMYrFNO/a233joZr1s1t9lmm5TfrewXQupN+47MCgCrBEWsctRnTMiGVRu/3/7KhtWl7xCoighkis8YrBiLpKXPhfDXfP31189jzn+NPY83cu8+Pcc0uoAVaBO0d+/eHd988831WOnnmI//6sERFuFCvQTJ1zjWunXrfSdOnJiLBcY+rFCus/fee4+5+uqri7HG2JuVgzkoa6WANOnfcccdnyJgdGS14HLGvfVPPPHE3r169WrjjYU53BvAOH8Q+Qidd5kv6yCA7IwSzrxTXT+R1uhrwsN3tGlEyVaQR/aLDjzwwAe7detWk8NO5oS8m9HOkWxeSwu37bbb/iDbOEyQ/nz22WfP3nDDDQdxkFY6ovbHERdXTIU2lIcP0g1l8Zxt0A3TorpojzfBPtjE6Zf0/VrJsKU4gv9a2nJdKgVNIi2j+QwLV9q7ifLgvSs3gosYuBq+/fbbtyIc/RF8L1H+vv/++9rEkdOnT599ODxuLe8F9n1WdrZhs3kOQkX/sDR22mmn7/GrfAAerMwBHv7lzRAtccIN7vHKH1bPFt94wkUiLVkgf7lMKm2YXHKYVA5jFSPWvsLyFJZmmzZtBvvvB8sfp02GFjkZgSlR+RK1pdLajH2mfDCuaVbN1J6dVLOZKLx/X0KisO65Q6CyEUirsq4CCmP6VzLjU1nzYhVXkOnFW2211YeYN72tfQx2fmHldIXmJJRc23DVYRUzB4uBoZDzY1BarUBhWSJpDvnaXxMcSswcNPQv4njlfgQF7TXSCu5Y0jGHemr6Ir42zGc7d+rUaSam2S+ceeaZPyNMtGHVpQlpNjn99NO/YsVgT8xVryf8rWFlRHk2ARPOBuQl55RTTikrDMm+lzRPTTbCdIWLNNH3ClkW8ExDOfbYY2XuYu2dbTxliS8ZvNM6SND410AelvF/BZ1nCZ53knIzmkxGvY6koHE3ytFBV7GaEOoaT6Tmqaeeqi2p2+aLDlqH5bGvONn3WWyq30dD3VudFhODxYRT544JV2hbb+vbt29n7ksDcB+deU+WBA/QKoYyhdlS++7du996880334D0P0z3kNwboq3+CFOi1+j4ZolB+WDF5nUODmmrnwgmC7ln7Cst8YQw3oume2/u701aN5Lu4ZtvvvlQfl/IYFELe+deOkac8DkIUr+QxtU2rwgz93HGw86U9ZCgpl1LiKTbh3frEI9pYwhk0kLvijXT0bKzV/5Y7diDcA94WBfxvNsuu+zylc0fHgveJY099D5ajXcYJHvx3lVhgzdYJ/TXSz5Xcik/eQjJjyGwbSFM2Ex1/88//3wg+SWa/8Vz9tlnm1P+lJaXn+V4VzgBgWInBtArGKzPx/xtur9NqUxdu3btCVbjwOoKvn/JHo4x3O/KwXcfMRi3wCvMvbvuuutXCks83QcPHtwBDHK5VnOw3KFyeRsg4XkM+p+zMtJcVUde9yKPMrtR+1phSTrx9gG7wZiMXQ9W386fP7+JJgkG8v1r164d2wzGkvGJtMWL2NtyIoL+TN7PI/z3hJeJmcpaxNJybyaKG5QP2ixZO+cyW0deGM1HeVxLmVg6gt0pvHMW+Bxdv359YzZjP8rfeeedN5B8f8//2/3PkvnO5Kf4D6I+bsIsa0uWql9hRU0beM2YIm0VmrFOpLMKe1h7UmMyUbswDgGHQPIIGN6gPqe5LZMEOvkslRpSec2o0H/rrbd+wHy5FI34K8xreVhLDGCcO/Pff/99VW6/mU+3xUx6EKvMZ6FpZ7htuBCznM7xsLv77rsfnDBhQg4OUsYcddRRt3h4G25AvJ132GGHoYzfF++xxx5PM1cexD7B9caNG7evygmfWK1zOZiPv2IuOJoDSnfs3Lnz/fCN7+Oh5O13y/SG5UxxyjQ1kyyIBrIyAMKlzWalt3gmW5Z39qPi+3NS2XVMzrVZGnqQ37+ffPLJfZj0N6DzFkKq7sY+fEKYhjNRGvGeKy4IzI80vPfSHe/BBx88kk0wabU/gEyOUwdDGu8flt/33nvvatnP03nNHoHgR+9QL08pDqT7RvqNbfmW+o0pT7HsxCHtxZA0dWC5ARto04EU1+jSpcvv3Dedj7r5S2Ega9pgmqPBhD0Wl+se5EebfQ2hJx1D0iA83fX7u+++OwOzn9mQe5OOLqUJ6ZzVs2fPSxRGG4kQ9kbpvS+//PICVidmoUmYR7n2Jb4mDDTD7bvaGKxwCCFXaiOy0uX5eN0LKz+EawQbZ1cQ/2iItXlXcUiDoPCUpx5h/iLNpTYN/Wdz8xo0F39bPFiqjL2veDC7GRCWngSpY445ZiTxhdqxKD4RWk5SHsEJffMI32D//fefQD0Ws2/g8vXWW2/WpptuOhfB6B2RZ3+eIMkm/4KfsxvWAYMb9J121yqYF+wde2oQHzFiRGdtGFee2Qw6CW9Xb1MXi0lzOH2tGZu0dgafKQz8Smu1bQubbLLJPCaPt235qe98SPmvSt/L0xpwH/viiy9+pXvYf26usMS5LoS3GKFXJ8OOp1yxOEn/Lxuf6g4y/rjyz/JxS8WPMCfzvVg7sd+ZmM7Xc/ZHdA9ighveGCZqR5zw+preY5VBwkjso3TJ/+9ovlZrM3YQr2R+Y2N/+fHHHz9M9YfW6Vcmz0u5LuG6kOt82u7VCBAD9ByN/jDqqGUy8VZ2GPpxd2x3v6jsfLj0HQLJIEDfbsHY/Kf6WTrn8WTSLksY5tVRmMB2K8u7yb7DauocSL5O4tYpsLkoRc7QOAj5bsdK9BX6zty/J4T8Ln3/8MMPb9QcHi9+8jxc8zRCwr5BnBnX5NGnmLH/E3E15rElt99+++fMpU0UllXzXZlTNL9qnn6TOWEz7uvk3kol2uxfkHJHJ+PqzCaZOrlPKgh4hLI/RF9+o0v94GXjyEsvvfQ7CNw62HV9i1/XryE1PfndDG8m+yEB/ogUug8k70mI/sR0Ng4f0X8/3fFC9P+CcKXVkN1H9EUe1uoknL4pDx5F2LfVCwMdc511wbofWtspdML6ikN2dmrsDAyz0eDur007IkhI6IsxKVnqEdFc7NFPFiEeOHDgIbqH9P8sWmO+GqIqQreOCJ3iQtPZwd6H7FyO0DYdjXRNSP45eLdZSTkmQyj39tKqg0a4NSZP89E091Y7wBTmXEvgIaifooWvh6BR0yNnA/VMHVP5ZJlwQ5YHZ6ncbADdXeVGU/ECRLUY4fBA/bZ5geTuQ/pLb7jhhk8Z1ArJswaoIrTXdysvEMyNIPkjwWcumuqPvPwJjzoQ4k8lnNAOD1J8ENMaDNZaUyxCUN1N+QtirnCQ9YuVXw6U284OkDY/+o8W5Og777zzHWUTF7K7Iezeacuu+9pTIRKssLZulB8NlKx0dBNJZ1nUbBxlheXE5s2bL5fA588LpmSbYKM5C3Oy0coD/UgCWzGmW4vBuotWcDTIY9K1F/gsgCwvgageZssPwX8TTP6jrUwFo1ZaFWHfwSfU2UJWAgZ64WrS5odb4Ym231Z5hvwPVVpo021adZV/NENTcJsb0/rTHjrLzzPlv5BVoGasMhiBAQ35z6pnpcEm3R0ROGTSV4T7yxZa5fBhUleTDH3gQ8q1jM1lB6uskPHrJMTy/2J/nyF/2yNczmN1YHBZ+z7t+TLeH6F08RAWEwIt9loq5/4/qiuI/nAmxKzYwO6IfqJZyz2PEgIQ/fUg+r+rn5W1L1dkeSDNI5k7ZLWQsY8UZ4zXIvpG+GHeOhpl1ipWN1+A6N+jsRXSfgjjvJRDUgDtX1pmlGfN75p3gxgzFhuiz57AvggOD2ruZV650Etb6ecxb7SBB4xkbC5i4+4ieN/xup8xAJKIGKJ/m/LtiH4SYIUFUUNAc5wU0WcC/Islod28RpHPcs4k25B0j3i+wYzjT8jjs55GP22NQ+l4Gv1MEf3NywjhWq8prxBko6lGo78W0ddztObaaFPEwNckLF3Iug7GEFmVOYEh6NjJTaGhL0fS307v2Ps77rjjIp4ZIqaLd41GAAJ1uL2HhnYOkvvH+g1pbr777rvPRjO8AO30GJEz3cfmeh5mG7M1QKCZnoP5jupXg4UZgLzvhSz3mfgZcI4grSv1HY9Fz/nCmXxgAiSXocVoHGPPEBQ2QJtwu/7bvLEZdAnLiFPtb8WDi7Hhwsfew3ylD/aL8yGQ7VR2NpKeqedoo2U2Y/On/8pvATgtow5k7pKLOcm6lPUftMJ9+F5CW2yxV7jPPvvMlIUVhH8w8fjNdw3m+09KTxcmKH0R0Jpi264JoBjC+nC8gVD3MTd6BG32cgbqg/3poWEeBfkvcXIyK2TKg8jxJsoT5Hu0BmNwPsrX13Ih6n8zmC9H+7Ofv/0ojExTlC/Kcz3xqF0XQZ7Ptu8rPJob7TEoZjP9V5B1s2KELeffrMYUISAe7auLXPq92p1OyTP1CtGXUFbMPoUbEYpUH8UIfjKHKiHQIgztyFJxdwRVefWJfYQJZmPvssqxBOFJJN/Eq/tMMDMQZOf7cSKOJ1QGME/Z85SNB6J/BUR/JGnU0GqPPz/6LpMj7ovo16C8IyH6GwbDRPE3RP9B+tfnUcyby5NDIIgAioeGKA5G0c+kEIm8ZhbS/AlE/6JM1iTz2r/Mx+P94yArpL9KEcM897LGV+a9AzCPPVPfId4HxcuP4mCu0txZLAVXcExGkWSI/kcfffQF5kLFjLdjNe4y/rXkvX7M7Rr7NYcWMjZfI8ULPEBhKlujH3minw02+mo3CTfPoj3Ml7mCwkpDh5Z4ks9OTPfqQWjWo1EkPSGrAaHp3URu8iA0kxPY7KW9sSk9SFPa4/V1xLXiZhd8J7TOF6LR/U+2zGGdVjbWug8JM4KA/kubS8dbhKZ0uL/jyUaOZ6b+1Gl1JgAEssh/2i8mIPUhpvuzEiO78T508rl4GVqACcYuDCirWZl5i/MPGmEasS/fP2OpsAlCXRNMd2TGIjMbtWPt7i9C+2naNJrlpggqG+s75jDG7MLWn/JHPOeiifiQNM9BCDwGDcXZrD70hSjfZe3nvTwXQ/qsvXQOg81xENiNPv300/MtNu+++24HBsRZCAW/0V42YGDUcmou7rwGeycx2x1J5qRQiGwtwhpvBgx4WqHYDO35c7SxUE8qMi+RmzPMQ3LQVG/+P4+mJT4r0PifilnPDDQwv2mvAziblQHMfXQAXYn+Y+uHAfUyNN5nMWB3QWNsfDTaZ+SrgHqWyZRs1YtF7jHJuhnb/CfQpsxEAKtLvdbVHg3uf2YxY+K5kEG/teLkfgnbSYUBcys8NsSDwvcQ13HgZPYs2BJBvmWfX4ygJ3Og+VqJIa0aWiGQX3x//WjC4VlMaGdSaISQoahqEv8nmPX88/DDDx8V7Ltsev6TMH9iEhMDUu0TZcB9tP9D0CgdgIAqAcp+NIbk0xZiadEmd8XtWxeEw8c8v/bBeknqN+kWUw61W2G91jusoDWl7hepWSuMdyUVtwvkEHAIJEZA4x7Kli8xF90C5dRYlF3X8JZ86kf58wyZm5qpDLIS/DrjW1PmPP++N3naWcjKag5z0vqak7QajtDxNMq6L5iTf4mXH+2dYt7cHA34PeIFwTGZOX8eiqk32E91MpxiCSa4F2geYD7IxaqjA7/3QCl0AmP3BObq95kP7kGrb/ZLifMxTtZWfrivsTJHpqXMU6sVb6YwypZ406bVznCBE5Jd2sVKJmGZXuRo6Z7G5D/0IhdCsgiziLk0Lu3wTig4KB4RLEwVfsLk4CNsz2QbXprtnsljBjbwJCx7GbCPW36ZvGCO0AjieR6deX4wbhFAtKqHyvYcDetMPWfz4EeYazRlFaWExxk2gu4J4awFOTOdX/b8kO5H2OT5COY839m4wWw1dScSLEGgDsR7NzrzCOKX3XsRWuDWdOyZkOMBEPwW8lCDJD8Ou/O53jWb/7r+Q0iYhoZ8ok5GhuhdAQGfLRtxm5YlsmhmhzHwbA0xPZX3lpD3z1miHKG9Bn5BhTxr92qMYKHVvvyKK674GBIqbUaOlippb/mYpJhDxWQew0FtLXDrOI+NxP8S9zxfPk1+0c6ORxiQKUoOWB6DULqCwUiCVWi9yGQG05bbcD92N/mpK5dh3lWb/7oaHXHEEW9LUGEQXiJzFwSWKzGJUX8IbT/0j8uJ83ba9bng9ZmvLkwe6E/6Zzem5WnfA3Uus6iuIrVo5G/Cxr0lWpcRJqCnVZGrUSaAQgQOs4k6+GEgNnsMGICboH3fkHIv0YZZfzjCGEGSchnvDggk17KE2xpb0dH+fGKKtwXa7ToIFOa++ismU68cd9xxk8iXNgGvB7baI1FiZSIsX8o/k/uDrM5cwGrAUSL5qg//pTHGM/cyqzNgdx17LKaD9VXJpBGWru4R53La0brUydNMViVMtxCMdmAD2yMvvfSSzmew+wayZdyOV2R33yEQOQRwQrA+5DAHE8qN6IfGn37kMlkyQ735KZPZjHwYn1syBudB3n+wc5P+o4A7hHF7LnvtDkAQeIu5/CPmvEL2n2nv1Px4mUEgaIar5Hzmhj7EU8Ltpt7RGIqQ1RdFWD5xjmW+76v0mDOnoTzaj7yswuPcJ4zpQ0hnImFH4emuk8IwRzbn/r/skzzVpo/w8SkKS1kvVNQn6u2lonBILR11tGRNd6RJRDsZuvGLJfzNLrroop8xK7mQpaXXMd0ZJ9KeKDdoCutxQM04yOVBNO6veO8v8vNK8D3lE9Odn2lk7yeKM9XnaPT/gbil23THbsaVv/USjRONxnHiTGit9X+tj2yZRTggfMarigLgYUcbSM1Kin7bZT6082aTpey2dQ8C2FS/IayP+JYCc9lgswAStwDh4h466wJtvFX9YAs+lkH3aEwz5kLaZOqTh9blF0+ja01ijFmFdxnTGK4aDNTymyt7v1v9ZWQgbwox+5bynezlwSwFsrlHJhjFmLI8aMPrPwTrHmwSl+Mb+Cxs8vuTl0VMCO28d2Wn/rc2blohkAFnU+GHQHCjvReSP6VpzI4o7yLKqaXRuO3Rq/8i8ni7xS1eO9JzzFJ0cmERqyTXBMPrN3sJHvTMdQ4L1r+tP+wvzyNvK9moijLl5ZcYWNdw7xRbblYxHhNeEO3WNi96Rh8wdpsIZ2vtK9FzTFR+RyhawGC+l0xxmCxkm16iDVI/PygOVinkCSeHOpQpWTF1amzTbXg06Q/rJ8KhmZTV/iQwYpYlPAtVL9r8FYyfPG+AkPMLe3eMMkDPMdd51TPX2S8ME4UjP5eyarWSMr7MykZPVjZknnRUvLpI9j52p61pd8+yXwWF16dqNzE8MI/bFRMwmUqZ9s4KyAjyrzYW+Y9nuhMTIiOfYZfBaouA+hZzkNlnhsJnDn2ufbxxICogMba1g/fIFDIjH8a2jsx/p2klM5gAc8uljL8PYbazn7zW8f1mlBLGe1y8D3NCW8LdANmPzRn+sDozCNOp0XhVG4YWXxygxLwA2T+M9+/huo/rLu3xsu+jhKnLvbOYm2N4YI56FCv1WhXI6Mdnoy+vf5E0+coG052klqqZAJ9F81eTZferb7vtNhEA85EGmo24t7IZ80rMSoaysVKeMaShTUqrjxSpTRbfoen7HoJyIROvPPv8xqR8KVrhaQ0aNJD7QeUxoeBQxtZWoVIiBHAJWuGldMbGEPN1KF/MlaCIFJsaf1Q5IFExLanVmHuec4w2Vh/MLowbR3mgketLBCfzmzopgRUa3Vk8Xw+t7Yks/70GqZSrRGlTc9hTsY/OEkAzb8ifVhlIL4eBuM266647Xm5IdV+dHpLdEk37u6wYvIGAJCJqVhH8uMsshMFrf7QUY9Hiv2vbAVr2F/l+adBcCSL6MMTzZgSNE9Dg7k0b+IP9Ar/ZOMFhtWduYdqT8kMe50LemmBG0gIyqIPOjGZctv8sh77N4Ci7dKOJoKzG1r+0tiF7dz0Hf7MyUdqqkafdMOEZ/IxG3G+yBJG8jD4ijy5dKL82qpY4/8Dmgzb+Iu89Abk9BkFtNdqamWD0ls0rWn25ey2mfxhvSfZDXhfJdzLk2+ytsGlL284G7q8xjdmJ/jiQFZufyJ/MuowJ0/+yUZxLfA2p1w4yv7HuVr3/Sstou22ctJllek/l5DPLc0mrzcbGBSXYz6VdmPiJ22RRkwna+mEQ9tWsUMgeNxcB6i6IfheEuf1ZBTHtO+zDqsmTLN48ruVjhKkCNFNTwbDcRJbl5wnkI2Zr669fNFhmpcjXRlQQs6E8A6uH8Ype1vtJjbFljdy95xBIJwKMRSY6FE9z0CL/kQX963SyO4RLnuXS/mGltL8iZf5bK25W5p8M3Lw3UQYYb/8hzP0o60oEZbyuKdNUBIF1WU1twxx1M/Pq/CD+WAb05EVd5uOPh7lAS9AllLCYo36aKE/V5Xk2EH3VRVJkl42Khtz5PyKhdOBzIQsiSfk0HjWIpP2qekazJjwN7WldNPyGEN7eNNzV6gzYQd/hhcvExJZU2cvYYNfKL8TiGzTrV2D28iiD3d1oDORCS2SukBPruqDNFFH7mg2uJ6ojomVtiZa2NeRpmvU1791fj5UQ3Z+l+yImEPljIPU5mLT87SefSMSH4GbzR5b/msv1piXb1Fst7AN3RNAajrbVCBAQsiOw/54O8fwHn75fIuCp46/BQ87deI1pzkrDh5iiPE2+z4XM5UAoY+Yeel+kmWXBKQh+F0mDy/Kg3HUVUqY7GFxWEV6DUewDiWyswzaIV6fvLWE507gc9VYVjBAqm3l5zoEk/on2/y+04LdgPvI0AuclLC1qVKuL4NSITbwPkN6/2Nkf45U/V3Fj/96MAe5EhJJvrGmLzYBwQzN6CNr1VXiXGZto8lF48DwU8rgCjLRyEyOJcltKvh6l7IMZXDchzat4LFO2FaycyO7xG3/ZtRkXE52GKp8O6yLv5jGEuwmCzw54KZoBhiLb5qO8IYw8DPk9j43TA3n3dHBppGesth2L/+P9aVc/oQ3vzK0iueJEMyTTlLcI1w/PSrVYNblOy+e4mRyGdudluUFFMNmTZdrpfuFSJmYITe24P4P7RrAhTwfzPZf6NYIY8Z1Ee+6FkPgFplKatFZh/3krez0aY7f/Cu1jKnV1P/35OvZqDEc4OxBMOhJuGflZBn5/YYLVz5ZPq1n0ieV4KaorTKi3EudD+LHzf08kyPnCxgSekLhMW2M8y5NQw3fjMioomMbLQyXez8SYWInFcUlXVQTYKzQcrXEb+rnZ75UF5dQ4asyVs/nDWHs6yrynKUMBZsCf8f3hRPNcxMqbSY4WsaJmIDuaxzw/+uXWmil7xFeARv8+zC2MJi9RlmW6g1QoM58SYfVbF6ZAHdHsv4uGui6bSAZBgqUhTusHzfTYDJruhPrRVwHQWp4OIfzQG/DsCkgxh1i95scDzfCJhFnNSscu/oJD6mVTvAZTKeOJRh8I+zSI17Qgnmh/GysdSOjPkK2NLb5o3adgYzcNYraT/x0I5EWQfOXN2iwXUad/QsCuI5xZLYCQTUIoC92RL806Wv0b0bxLeDDeanTwksi6Px19l5mEdwBVMSsFj/l9BOs5AooxT+JahfWFXIHlygWm4sc0xQqVRsPM0uK1aC22tmnoP6tM1lf/Euy0/8ekAx+0/v/RDuT2LWGb1asIJAvYhPpHMDx2ldN8mFns9L8IUq0VE/Ox+Msfv37qUDHI9zr2OUu08qy0AoHltLD8YuJzFpudX7LY6r+032Byq9+8Sx6VMO+SnampA/ZXTKa/63Ax1afZ1wEmcnWquilhSsaekL25vxJifpwtJ/tphkHOY962EK5Uz3fL5atNA4HuBzRGpp1oP4VMmOJhguch5S32UX7B0Kw2ITD0YrXArJjE+7AnKI/Nvr1pI39zjeIayTWCazjXMK6hXEO8S9/t7z/5rvM/BnH95l2/6B7tepU8L3nvK9yvCCs6GTJyHwTLB/C682nkMuYy5BAIQUBjAgRzDZpi8YOSR7pGEDFMd8Zk2r1mRRSbOXErmWGiFLvLzt8VkW660kCxdofmBOZLZ7qTLlDLGY9IzVqbQEqLEw30v0Hp0qeNHsDGTBEkQ/w9wlDOLFbI61bLFlfbBrF8nZy8jqZXRN2aT8me3tjI21xiyvItYXbGnGWSP+do8nV/J/99BqVDeFeDaYl00Rwvwnf9nmiM/0ajLXJpPhD8I2S2ARkusTSJec4zEMbnWUmwQkQu7460J66qLnj3GJn4hGkGIGvyVNANLXVPnbir8uFZaQ2a35+D4WXGRFo5bMh+A610V/9zfceE43x85ctWcCUrPLat6PCj4az2fKtNsyoL8a8i/l+D77Nh+VgESnkOWg5WJU6htTiwqtFZ3l6S1XIgdO0DFmuVHZvLAyGrKq/9xEzOaOfaPOyvQpnRFFCGSQixxwgH+5AB7R/qdlf+l9hEa59j4qMl1FcI8zz/jc0iKwz/QcLH2GVgryxYUi07itUS7SnIRajThupxuDP9CCFsOfsccsBkBPHsQN5KaK6o78He/dkWFyYKYVnT/kbQUj3fSh296tn356Gh/0megpQnhLZi4mgP4W+kn17+Y6aCvD+LQTyGCXW4nCXmGrj6HMsK0hE6hdgPWPA74YvY8P24jmvnWZhpn1/YCovKCGHChkurr3mset2H8PAb7UEemnQtZBVpSGn5qMRntnyVmAWXtEMgOQTkRUx9nLEndsp2cm9WWqhMmgxXWKGYN3VopjmzBcVFhaVbnRLKFtOddNWJJh6Z8CS1nAzJXIJdtg7gCbWH9cw3bN6StvsvQ2GS0uSWId6EOGDOIY113I9HzGPk3Abk/ny+64p92rZtOzQsIs/GX6eXlvig0f8zXsKemZDf/WEsqEf0dJhTqR/Ionz6hn48wS0PcnywSC5+778OI9qY+oSWKdk8oOmOW0abMTy7hHqwiZd3yGwJ70c2HIKG8ZBT2seWGxOl9vKeg2mUPPnESL7e5beMWRPmKVHbUVwQVrlCC7Yx/x6IxTwfGcwz7ylPmiBiH85XCPVAQR3JhMmYMfk/3oFiCfH3MMlF4OqoVQBMjr5PRPJtOggt6VqNNGMAZjvX0V90iM2t/JTZ1ZoIm+84op+ow7nnFYZAKSuiVrhfygr+FFah9iVTxkmD+hdXzDVzhWU2uYRiSonkgrtQGUIgU/wsbdmtbkRfwMVcLSZC0SPy0tol0tbb5wmJc6I04zyPfEMqY7ki+ZrMVFi+/QRNfgM0uq0wFTqTzakfRTKzacyUJkJWJ77FfGoDyrwxrtOeRdt+5S233JLGVLIrKpkacXDXD9rUzWb/9fDicCNefbqzX6VCC2L3hNA2a2J+dBorVtd5BCQbbIkrFCuXWPVBAA3wpZS2LZdWzeQRTpzGXlpN1Hf9L2Tfj4i7f2XNzteaX4tYeauFJ662hBui3+pfXHMZ/27nf8wddPVB15W0qiCQLUQ/XQTa2FJzJUWcrXYT2/tHIXrtcEt4LnbEJTSZEKG+bCa8AO2gBpB05TPYvpLKb1kaZbLmIGWJO1vfwfa6JnW+Ddrb2hD9C9Bqf1QdcFIZad9tcX25HvsRnhPJrw7lLq2dYt5TxKpeC+z9W7CZ+F6R/MrCRHsCaJO5mGVZ70tRJ/kpafT9GtdMYWzTyFT82TrmZWu+dbo7edfKXiMumUmKzIvY+68g+bcmLyVIP6aK9XEgsQFxysGDVi21aijTuIr0xZ5KVSRSQKYSlwtbdgQyxs/KnqWSb2YD0U9pskgCmKRt9JnjC7D7fZTNlVuw8fAQNuB9gsR/M95GNLiYD3bem6H1k422Nu+klehrUsIeWMlEviElgXvWBMGefBranRbKsE7wrU6kAHemm2pDlOzYq1O54zVO2dnzbBNtrNV3/0m6Fd2gWU24lc3tG7Lp2Lr0regspJpeUuOhNY3ihOiLGHNrk0gReydGM87qxOS0CTPsx2kqDx/EX5NxfDJtfBlueluwp+Q5FWzAgAGn6SRmPEZ9nmpB44XHWcFx7H9ZjCeoXqnEKUwy3f/wUnasTg3FxK5PKnlLNSzesA4D+zqYP6b9nBlM2Eo1IQyY69h5NDifmt8I0o3wxHUo+5Ju8OZyY7aT7nk9VfwShE+qj6U5TRddSQQiz8+yheinbbDXJJIscUZ7VhNPKgdzeqkOX5I/2efx8y5/67EDrJgs1NGkPchGjX7kG2hljSiQulI3WlZWvjKdrgSbTKeRjfF7hL9Ssw4JLoS46KwGe/ZApeYnicQTkiQRMc5WuBcvX4dxCNs2Nk65dsXz0lBOPz6XcxVGlpf04tlrPc5BGAi53URp4MJvAucsrOIwNh0+9qzygdevF9gXpA3caSP6Rx111NMIDto0nRLRZ/XoBc6d2JSN8PuWt+zx6olV6ndwujCY56UedJREPccNIlyxe39i+PDh9QiUdqKfKG8WO09wCjuzRG3UaMYR5nXYoqI0+/jSKWQmymc5njuiXwp4pXmqS2O/ijyPijTRV0Xgbk/VmM7GnJLQwKRqK1GHMjVkg26NgLYl5nqSfCYdt+LAzeOmaDoaee3UbhTW5rocbyd6Osvt7w7xNBvlGG/cqw4Bh0CGETDjNdruFvfee+8njCFHRJyMlDoeagxEw34Wbnwv5/tSHUaIoGnsqjm87FDcul6CN64vuVqZScBzL2v3K+ief7KOZ/qj+2wszxPJZ9/JBMj3fQgS4zGBmo4nraZsds/DDvs7hIEanFWxJF3adAkXCA51EFRWJRunXd3A7ewerDDoJGjj0a089RyWtlbtcA/dQecysFndzAeJiI+NJ8z8KQx73WMl/HrqtRWOAKbNnj07pgwLSytTZlU6HR2Xv3Mp4lMqJwq7QePHj2+qDfVcC+EY5+JBTE4V7Gp/tpD8DA83FRO96p220RKPcI10Dk1p7ZB+8RFe1KRoVZuVUkpmVRof1LasuZY1ycpltS7GdbTfir1WtVlhm6+6RtCdc9NNNz3Af3NwZFX+RJroe8An1AqlWEFJk2dI/mo8xcxkufwwll6/wN3eaHmZgaC3pnFOUGPjsCw7ASWdTzVsfONvz+TyLA28oddobYNUI13Jhru30LY8UJpEmmK5w4Jn6jTfNGStfFGEkQIbY2kDiQ/vmICXzCRo4w7WV6LJM9VSJksYwuJN9G4iIpVqXl349CLARGj6K7bEOZxl0JivSY9l6c1J0rGVmj/OQDj9oIMOepED1J5nvLvC78kIN77fQM5rX3PNNWdB0i6lbT6FB6wz5M2L759zsNFJ6FykoX1PucFNayOEBp3rkKcTsxVG+LCxfHPuH8Ap1UaTz9hdj6sVB9ANgYAejpnGCwoH8dtA7nghhbtpPFZf6Nmz52U6KRkSOFi/2QC9NyRDrmBzOIDtszDXy35ksPX+grqqwYqFzoLIVR779+/fBU9Mn+PC8V/ypdOQ8znkbQlmLS/rXcj96YTbgNWF4ZyXYP2k/0c8ryOYzEXoOVL7Rfbdd98X/GMLGvO9KUNHVi3uJcxROpukU6dOr+I9qyPpbNOrV681mOgMaNGihfG8xZx2AnE25nA7ucA1Yx0Ytfzll18OVZ70m2cfIhCZk9HB6kjy1hgc3uAMi310RgXfX/PaoAQ2laWGDnPj/rvkzZBmsN5YB+BxpsJJ/BTfKKbeLyadqWBoHBwIW0ypDiYOQ+DI15t41ZpTHuHGXw+chbIXnsKmSLih/nbnfyFnrpzIfD5J+7Ege69cfPHF3XDlKw9cSc/j/jTc97IhoLrn8M3XOVzyxEMPPfQ3zjjR+Shxx42nn376NFY2zQnpfNTGzEGoXtuymfBr2K1nonzM9DrgWKE7ThU6eWmsZgyRV7fyfiKv0S9vATP+PtJ2n5dffjktS35qVByYdRlLwiVOPy2tEAx+63E409tMLB0Vjgm2PRqBPznldCzXOAbOlQxkrZ588snf2cBpButEH+LY96KLLvpFZF95CrnyunXr1hub3A8Z7Ak2VQcUpeWjtJhUzCFNTEQD0xJpOSNhYK931llnfY8966lhUYHDPTwfhDbOaGSCH3zRtz/zzDM/ZyPV9nr26quvPsDvIRwoMpRrmO/SvT9wn/ZEmADl1UMe5lmfEm4k119cIwj/UiKBS885uOhuxc+ldIZwxsJ3tm6DedbERh6/Z/AxZmHJfOgLj/DOHyznPxEWnsn4aHD6gRNbNwo+Vz7QXvbi+WD6wJFh79OGn2Mg7KcJke8v872vPxzuJY8m/W8RTmOHZ/mfk+7GqkfycXAy5XFhUkOAdr4HrlNnQow/wD//GYnaZGqxpz805O4O+o4Otlvro7zr3AjOR5jBeNgxTn/MI45rmZjvVZsk7DzIdRGnkmv8LuasDh2OVghJ+J4x7V/d0wWJLtZ4AcHbEo3yNdzzr7oWKw5OZH5YYSHInRQ3cf4FqeVrsdwqFjA2/sm5D7PBfBdI87rqd+zdsSSwmH0Sc5kXvo9XB7rPKdB/k9YKxe+RTJkmFXGQ3zTGdbl7NfHJTt7G4539EEvHC1PEXjAzVyAYjYcEm5Og7Yd+eSR5m8ec8Y3yr0MW9R4bx/8i/diBcGB5o5cXaTrHQMoX2/Ky/2wAZRKpj6WN/ftoNKDN9Q7hteFVcY5C2FpCPs1Bknqfsc4eGliMsFbMIXWPePHmMXZrSb4YEyzhXPehhx76UuQKUn+J3p82bdouwlZ1ZtNGQJnFuSW9lG46WmWPHj36saFeBz3mM4d8j0exRy0OygMC5Okcjven2hLl/DtenaYjL+mKQ3kE9/HgeE+64qzoeFQGBHkjkOvijJA901Xn/rJ47TQP3jYUk73Rtm2mo7yKG4cd9yn/UT4wKx1lzWgclU30VTgO26nPpCHXXeYzevTo9gwO53NdjGakCxJmrccff1wn4yZF9NFQXcTAogYXKgnqPoP3FQgSi3EfNguiv0O6QFbcPqL/Y7riLU88CFNGOwmBWYvIo8WsxVK7/KNrcl3ruG+wz+VgJblYK4JgdtKhJ9KEacJBi6OriGuNdxVja20GFSag67HJNJoBOxBgJ3wRS+1mspOFlve+iIEO05pOnewTLKfeRcDYDgIm295i+Wb30ixGA1fEitCst95663p/XWsJEWHkDoVHS7hjMtipXEzgk6XFYyL8F02UbF5LfMDhdsUJcSoRp9KWGYGdTNFm3RZ8V/GhJZzG0ukCmahhVzuVw6vm2XDsV6mBNqWHcEYrtpYgoXDc31Lps4H9xmTK5MKkhoDqEa3XH2h8m2YDGYFY3g7R//8Tx3zFRZh+B8K6GgKryT3uOGj7Jtr99elj89W/OJ37Z7TWl6DBPg6hcycIazHa50UIz6+jbf6AOcMIApD4g1DCtJRQjUlOcfv27Rfw/WT63GFs/O3uhdlP5AKyOUxjA58CVhcGQWQX44RBG9Nz2Uwqjwg6Gbsf71/Eac0Xsdy/3DuHIbQS9R5j92idOeGVIRdBuLX6j/Z10Vc/Jq7rUDpN0DiDu1YJDXnkrSP3T+X/Jcwng5Quc8tT9P/6iod8/kkftcJDrvaR0S8fY6xZjpa9jfJPnBP1Ht7CxjMmXow2v5swwkRnHoqFrZQOY+rfbDxVPIUILDoBuhjBZBH1cRPXo2C4QPc4MXsE48E6CBiTVV4dFkecZzPGHKi0UFj1Y3VkNfm9gXx3g+wY+3ZORtcp4fmU4Wn9RmBoy2rJu+RjiVYN9K7ywZhrNr7i0W4873/BCsQ3bMIuZuyRCZUEpHJrSyH6AyD6byhNvv/C9xf98WLSdSECjObj2hD9uPNyar01s6GV/2wm+so/JnufqO7tRX89Kh31HYa84mVPzlJWvMaqXaYrHcUD0e+mMtD2FyjuzNZ82WLPBtOdspUs/lspL3czIOpQn9gHF4Q63Mkc8OQ1GA1GWkZKalBiFWASpGseA/PGvD8pJKu5P//88yFMTCNYLt3YizvdOEQmPrsEraX4YKaYZI9i4lmfOshhiXstfDXRMbExFz5+/4477vgDqwJnQzDaoLXuxO/ggVqy1W0OYf6dQfJ+JpSB4G/CMBlexP0n0RouQAgbDBnuiLBgXLGShwOZAD5icv+aeA9Dk/i9rXsGp0M5qfd1hLHGTIrD2Lx91kYbbaSDuHKp340g5QPwy3y/3CKS1gN6D+3WBtga3oKwcTuCwJBEFaE2xmTUhUlxQ/J5Hfl8EI3klbx3t/9du5H2f55eS3xy0c735ICwFQimNXUKcDAAE/MZXC0hAlt/9dVX1/Xr1299NCw7ciqxwRxS1Y7NgVdAUK6BMEwOyzNmCadiNrGa59Iouk+aEVA/gbwVQ16byLQhzdFnIrq4ZhAIhZtCXvNoX7HD0SDt6+lQMjIiN4kFtPUC2upq+t1LkNEPINgNMXuZfM899yiMWZKHuL1/2GGH/YswfQS/dVL2bNqvTGVMF0X7PAMzoBmMHfPoF0v4/p42Nb/33ntXY5YzH+I5B/OeNpD6FghRS++6665+9PFWCBJ7sU/KuFVkY+zV3bt3/wLt44n8zNPp0vTJe1EA5NPHQ73jQOq3ZExogMAcc82IU4fjFd+LL774HGNMV+WffDxOn1nEvov1lF/GA520XgDhPRUitP0dd9zxDX33cu4ZJxJoy9F3tJtI/k5kfHsfJdRGmJ1cxnh1D2Pk+BkzZuw4ZcqUxuRtKfhptVCDQS5jTcHRRx99DUqGIsK0ZQyqx5g2ge+7MsfsiGCTgxDxA/Wi1b76kJZFnHreAFy2ZlXkRTTHGyJgzP/yyy+38LBX3RYx/jXlf77GHvL+GONGX/ZWPEL7XAa5b4FQsDvmUTkvvPDCxyhyWqPkOp14v9G7Gtcoz9HPP//873iz0srLdrxTj3o6gPlR7i3T9ZHwYZ0raOwrMf4haC1jVdl62ElqDk9XxsoZT8pcppzplft11Tnc5gT2GB1PnzrKHyFtM6Ploa+vpr03oO1viSC51iGM5S6ci6DsCHga/VCtUKqxqpExiF+aiulOMmkoXojmz2gvZLOY8KPw0txA9gaitR/mXSP4/xfXyC5dugxDK/qUtC1oUiYyYUhTmpaP0kajP4HIZLpTLo1+PKk4VWkZbXMj5QetzjP+QqK5rK+Jkknsa5aRi1nylveK2MfTCnyLCcByNExGM8hEokmxmAkmVPuuMN6EW8xk2Vm/uYxZACerzmRi2zaYf/1GC3UEk+cq8jHZPtd71Jc2cRVDxE/xv+fFq01Gm+B1Y5omFwiG0VBBpmUvXISG60HFoQJhjXMFm+Mk1K31YcVjXbTt4y644ILhhNGpjdKa3xUMiIBzk54hGO1snyk9sDhOy4pM6FfpOeRCp6rGPuRxfQSSyWjnfpYdsV2KZKViR4sPRL+T3kUbFvf0LK1kgMc/qdZ/Whp2NYkEov8Hq4vG3jzqH9rjbWj03w3LJ8vovyJIF0H269j2AkEXkZZwLVJrzG0g6Mt5ni+TM63SIezK/ESqd11yjFAXcwyZ6M3gmguZna/3dEFC91fckMznIbKrefdK9TcmetmCF9EP7tJz7IKNVhltn3mPk48nQtTb2rav9BkrpRz45/TTT/8b2/IZCodpj0xfQokhfehOpcHYvZPt42i+F2AnP5u+tI/i5CpAiHhPGnFvH4Ix8dF9hJdRkF1pCO29mIknpj5LEPZlOlMoDT/7x+bTVzsoLALP48ob8+Yz3rtaSWjDmD8JQX2wVgYYT+9V3hBYGhP+Y4uXxdz3uxhlyHKEe80TMslRnEYT71355Pti6mgFxGkpgpjGwJpe2fKkBNF7CFAGVwSB5QgwJ9rnigtnFOszrv0NtjPB9j+EFynVilm9mWHzX952ThvshWJE5kQFCBvfUDcx000dkoUg1Z+x8XLGPrlaHZMN45fyCGbjssl0BzO4drTX37Ra7m9j+s4BlaO1IlXeuo73vvCi/Yk/FLOafne66ljx0J7uV7xOo1/+2ku7lK0KStdGScUD0VfjTSqfXrr9OZjoGhp3a7S90hJpdUWahyJ5+kGbr01mRmvi/S8/imvHsJYEzfLpAdirPklnuGjnnXfWkm6OCCoD/kQEpB+xndSmKvORDSpLwGuYKM0GNWGKdmxD7n0FaZZ5Rz5LytIC7a5Jju8LSysEA0CJU4uZoFqioW+tZVXyoFdL4Itmsxku+Toy0Y1nlcVo5iGbRnMjrV28tJjoW3lhzIoWWrwP0GQ1kAYbLd6IYLvwvHx8wSayw6XVx8bzWsraHe3jMXzfCkJzFUT8bf971jMIk/IENGL7QaYb2Oc2j2i9imWjz6T2Bc/eaN68eYmVI4spE+jGaNtbc2rtleA4WvfBKkzjZeqT+FfbgQwtSSFEvwNtrT6TWmj75NkWaOI2ZFPaPUzaC9Ci6qAY1WdshYV2ug7xKu61Ni/ZtCBTMiWIi3smGnA1jFNLw0l796pkfOJq9LWxmHYjE7llNo9ofr/F9GZXfjeB1Bdg3vMsgqXMXSQMF2qlCsXHgzY8cdTDocGXkNrtILDmNsLzF2j9W9Knt0HLvET36LcHobHN591H9Zu+Zk47xyRF2mhzVob+Q0JXPvroo1907dr1WITlHemPY7QCiPb9B1arDAmh/y1HoXM7mvZbINemn4R9tLFXaWjDq/6rj0CGa6BQmMnVn3umryJ87MBYtYpxRUoO0z8h1jez8rYu5FSCu+4V+T0N6XBGxtIajH8bIKxsz/g4CJJhxj/SNZppBB7t4zFpoEipR/43vOGGGx6XfTzYmtVnSPY6OktAYTBlukQrzXw1YzD3cwlrPSCdonvE+ZDyYuNVHOT7+c8//7wOc8PNCKEvI8jcgRJiH7Sn061pE2O4VjG+gswdwuro7phHfsqzlaxGbEid9GXOMQoOcJlLXb6GGdMl5NEQ/nTM0YzBf6NBPgFlypFsDi6gjmMHIGIG9giKtWdpM+/JPMwrmzDPqHZZ5U3Tx3plimx+aWeN2YuxAQL018yz6g9rfXj2GytSUkBm5EPdrsfcZMxqtEqY5kSS4n1pTjOl6NKy2SWlFMsWOJ1AZqpDpBSvBn6WkbaXppRNYAvQVr+OnelbXO8w6Lwtsx4mnoMZbM3Sa9lgS/jWWvEyKayDJmYzTQL2bR0kw70NWRLeRPn2rjx+t2TiW2h/s4z+LJPjRO43lwkM10LIXy1MWSYzeV1WSm7yNYmjYd9Bnh8UTnEyAPehU+bw/tdM6iuYfGJ+kPUcYvo+adWA7MtTRg5Etjb7Jg5gaXgeE5+xtfRfwpEJ7TQmpQcRDGZiswf/nt2KSbA9uI8nv8PjTSy6j+nLMJaWc6ibljpMjUm6C6YH80jv27D37D2W5v+GzMdMFMjjMcoL/w/k3UFovIZjF3wvGjy5gIt9lHeIz0EIEX20soFp0FPgUAPBZgZCRgfyEroplnilGTV1ywC3LkvpV5D+bFYkJuoeJCFG1pUG6X9G3BPRZr2EVqshq17t0axNt+Hk/QIN4muEm8AVuhHYpgexqVYHjCXsYekPkKmxIP05/V+MoeMibfg3xr3VuNGUqYj5yJwR05ohmNT0pX8OhMjmsoJmTF8YB3Pp3znaK+IFL0Y4PZXl/z35f67GK64WKBmugLztDJl7HkL5i8IiUK+gDUv4NxM95jxq/8XWixH5kBlUMSsKnVnZegsTlRz2+byqsPTLj+lPbYi7Lld9NPSN1NYZM+qjwDg2DDT1KR28pWekaYWdXJ1/wPhqSKQdGyDEywivoMY9IGPZfax23IzW/W6RaEURVCDQ73MZdxsj+Pfl+QoWQve0ONNn5ykymcAon/pOGkbBopNf9V/KF4XnI8Jjys4qxafg3ovrO12MuUNQMHRGYfM14c3GYeJsoPeVH7Borj1N+g9Je5JxdGM0zIPApA0a8k8VDJw1nmn18VbMG2+kbuezin0FyiAJbzms/n3NHNiCOBroQuO7PmNrI8yYclCOCNu0tHUEoatxptGWvO3M2LY1dSxPS+aDGdg1zLfyEiScY2eIpEvja9Opjv+FoUxi8Uz4G31xmJ/ko0QsAQnzTtoPHPUnwGrW+6yGWyEj3bw3Le20OraRWJk90x0tL5b7o4ZHR79Epjvp7sho9H9E0/N6MplU2hDOK2+88cafeO9LbD9/Qut6lP9dlkS7ajmTDV3/MbnEDpJJJv7Swihtv+lOEAeZBYDPEDTIZ1mSTKeUpqeYAbw394z5CaYqlzEhLtWGVv1mcv2MDW+rsAV9QJMu97Q0bZanIeR9mEhmSWMeljcJF1qWVxp4EzlJ8bGi8AjEtJgBX6718iCesxEiitEOmXwxKeyLyc4SNGtvanOr7qGt2VBxQIrnsdQ/lKXgIVx/aLmQa7C8QzDZFkHYp8v2VO8w+HflnSI2WO9myxuWRz0DG61SaCNvDxFivcfEfFtpbSkgbJglb2n1FA+2+3/SZmSKEDpQ6D6EY5SWOsH7DBuXBk+ljfnXDv68ov3UJthiPHAs9cLmoUX7Ay3bAs8u12yWZaKbSlm0cS8X7zovovHS5jmDK3XUQWFwLXih4rZ5I8wq8jIxLK+6x5L4q/JKQv2cWd426t6PjwBa0+HUXaiJV9RwY6XrVswm3orXn/BfPw4yuBBTuuP8/QQCXkebItX8UITsTl8/kL6+GFL2AX3dnGOiC2J+gcLwvAu/5fpxfcZS4wEGD1g6BMv0N8aC4dpvw7tmEx6T/s8Ivovk5UOKBdKaTD8ZjIZZLiNz6Ze/QG75WlyANl8CyRq+K91ajG3reXb32ki/d1h/gKyuh3A+CXOfIYxtijOPDbOvqp8xrmuTqunvaLePlC08pH2R4oewv026azATvIHfcgFkzGT8+OldbUgCjyJI+Gq01I/b+DQ+0bcnIJz8rk3IXvlzEfS1n6wY70W3Ud4NGP+nM5YPYBWkHqY7xmMIv38gvPDJk/toxusJCBx/MG7sQPiZl19++SDK3szGiRCwF++tQRCbgACxLvcFWC2EqjXMH78rLlZ8R7Ay/S/KmF31HmOdnAAUeXvTcsnrPyhKtOlWc0gtVnB3QOE1RSsBlGWbYNnL277D6sofpxQnntcdO3dFlsCpLJ7pzn2JylVe3MryPmZeD1H/pg8HL/rCYOz0tYIVe0Z/fSvd9e3PN21Se1+MhQTubm9PF2aKB9Mds7E/yqY7ZanDCn3HI/qfpCNRVUoUiD6k/li0DCMZIA0hZuDblIY4kkFVRNWQKwjTtdguLkXrIaJvTGPS8VHcpRF9pYFNa3c0Ov9pyY08NkLbPZkJ5Tu088vRuh8hzfmdd975MRo4gixpqOVtJp75aOnmQIAbo93ZVJvRdMnFHZPbFSqWJvSwMnheaIy7O+qnCxN9XSbYsbKJV351oQ0y3nDkAlIDAkvWt8k2lCX2HSxm5LUhE/pqaZxk26vnXFqmNwOKCDPk41Jrh694sHE0dutokeR9I+7ArmeUUxp02ao+Jc80+i6BJNF7tgxoI2UP2ldeNlQHxGE8aYRhovvyFS5hRxp8O8HqPgRHeEo42cn/rjzroJkfD6GQ6U6+JnXqaA1atF/0PqRJahSDBSSnvcoAIZmK4DPb5hFTou31HAEmZscvF7MsqxbhmkzuDNfKr+4xQf6rjbjpGkDT0darYhyQo99l0pYNZfNs9N+Ol1fMU/bHXGQy7WYhhG8W139cs5kw58lfPrb3T4qMInReovYedMMJmW0uLzAoHIp5bwXXUq0SqP0yhj2tNo+2/0Kv319h26a8T6EtV5+Se0eZ5Bits33O+LANY91SBIQhfN8NW/xVxF3EtQYhfYVVSvz1118Sitf6YAqn8boIwdvsAdBFv5z0v7MW/7//QLLvUDjGxbNQ/Mhu3vRNhBCVR9dySPsAfwJ6n37eQu/J7EnKDRsn48G2uo8pjcpiFDLeMwn3/8l8gTDaqCxB/iI9k/kMJjlDdY/0VA/z2Ey/SKuL5OtEtLC7KE6UC10Vp80LY0cDVnDNfgDMHZeJsHMtRik0TphpxVPPEJrkrtLkRWnxfCZk3uxzQsO6q8Y33hO+K6l368moiDZuFDGltXPaRiHmU1tztePaVXuKuLbl2oprC64tve/byPWy93wHeUnj0j1dCq9nOyC8dJKgwffOXJ249tQ7zGlNotbfhI1H9Lslwqky8o6CcpRtzxKaUdKtZDV4FJYBx9AOoQttJtrn6hfMNz3KUw7mrY1Vh15dqk51bWf7AG1yZ5SGNyCkj6Adpk1Rovgh+jJps0Q/kg5uIpmpymiYaUozKQ0AmoMmIn3Wc4a8JdD464jg+vIhzxMaWDNpox+aX/JRSMdYhw66gM1iz0HE81jO/QSBZD8tncucBPvZo9ECHyO7e7Q9vSGOIr5aJi9hfpIMrmhw1tDxzUEuEPNlTOh703k2hejG/LEjbIwi3Q4MCsZjAtqCO9Ai9+C9oXaAYFI/UX6rsdO9AtvPV23a+LP/HAFiO7RUQ9GIvuUtXdvHdvKK6xbLxo/wdZK0ckyEo6xrzmTKpzCy1cVO9SH2M8gFqGxgl8rePZ6pkNxdMrkeyaSeg8D3DcvkhtxrQEEbsj//tTRewk6fJfoZtKXFqi+e56O5/IS0VkJ6jJYeErSQlZF/EdbWA6e5mGSdLU87foGB38ZzDuRGA7EROhFCv0Wg074RufsL/RCfvGyUMDNIFhsXLnkEdIgR7SaubXjyMVVISI0vccdEBNjvaKubQBgfpq13IqyW73PlCQft7/7Wfh/b9tGYjg2UPbm/v0BGZ2Gi8yV9Ua4e1eYXM25cj93+vZDGP9V86etzmNz/9JvXcRhVX4SDGYqLMW2xvHBBRCbYuFFyjIBE9acfLIXEDoag/ICQLHKQR7/4l/74wN13330d6ZdwDmARpZ/NI85BaOqn6J7i5VCgAfSRtv78K4+E+xElRi8I0AGMWdofVEh5NC8LizzPbt5EbcchCMtZEo5Qdlwov/s2TpFz4vuZe0rXmAd5/fdX+v0/PJ+BcFSfMLKHnum9p4OkdkDx1B9Fkzz/FLAyOx1lRkc9h0BtqbLocDDFacvIOC2TzStQAjRgFXYPvhcSfgH1dgxjpFb+8hAghrCaaFYTbFrUTR95XFI8kPvBCGq/YcrTXL9xYTwF06vXMMc6lza+IJF9PkJaW+Yeue+UAkbtzOxx8y4DmZdf/bdt0bZHv0mZeSYPbsw9G6CMkWmP9dIzh7q7k9/f2rJH7H9SnKOi8wyWS3FC8R+rvAuZf9/HvOtu7ctQnVDfG8AXYi6aUTZNYY65IVF9xysDZqxdSOMaOe/w6tx4qFIdYv47EGHzcvrxn9p4jbnu4VyhXuPKgVG6TYHKkZUsfTUDGv2LM2i680YyMEOwzkHilT/XWCeVFwXrXUf3IZV3MaGsQKM/I4Ned34Kk6Ih9z3UYfjkMwm/Tl4uQnPUBtz+Iu9XQzRPRvMxFa2L8TONezdpneTpgRW4V570rqf4/wwa7ydl6sL/++J5C1EcsrNVHNjDXggWUzG5GcSAsLGVyOVHXs+J8wUm2a8g+EsZlI0bPRuGiXMOmqvpwTJp0iHekzUBICzsZcPrPgTaaPTRznWMp1HwwufJswSkYYLeY1KU545ibGnjalT0Hvss9mSg+Y3/nSHR17CM/q80+mjwzo2XnspE/EbT6Bu47ARmBb9iltZ/88eh76yEDIUEyOvQldLMQYSMhwlbBkyVjIcRtKknU5ZZeNqRLbSW5E1b/L/2rgRaiuJc34XFC6KyqkSDgPpEFDGaKAQVUUSjwgFjnhKj7xDkGExMiBtKUKN5osSFkJBoVHBBYlCDSwKKSDSgAcHwzHsom1dkE1BE2bfLfd9X6ZrU7dsz0zPTc6fn3m/O6TMz3dV//fVVdfVff/0LhJQ96GdGnjCTF8/j5VsJgYPa+sAJDXbWl1Orhy3ZwERkYZ4Jlal/CHgJs0zm2lQfZ3wmfGr85W2ZIDr+++24TVdvuutBfKXiIx29TDHw12X/Q5myBUI0zWOS7gYG4ZdJ/W7ZkNi7Owjm9jD8hen7dLimmkeD2uGrk3wbE1PsQjTBu4dmvTRDMqZI3rXYCXJsgxdHn5HbYifsw4fl21BeWvOxGvkQ8F5v62XBNu83YM73TVbx56EMHI4wtAvxDqP/oI0IlXjfQSaZBhnmJdKnAhG+IgypHRlepAXlgpGXPNOdWCrPY8lUuge72K/DwZTRILZTg4Bvk+UQq8zNdFLCwFmCv6XQmFjHoMgGZQBugbStdzo0Nd+GOejFEGb/Ai1RJbSJSyHcn4JMlBfCweYVaMGMoxx2AAwdCLEU1s0czzZ4vxnd4WAIkAw47WpRArsRGr5DIHx/BVt5v4I2IGEqQrMc3sBtQES66Qv73iUIl2Wc7ewH1xozTrSfMB2tMBG8Bs3camjzXsADb51YmWjnaWiVhkOYfQ4CazfcS81V4uNNCqXIHPkyFjsV0I5fxvZxomLCGUSy+DHMcCbjXI24vLwPW9PdGKUHUYzmQ3v1LjRWb0CrPxT935qOr8nw4L1YsMxEvP5PoVlj7G1q7tkuvnA4ZppgcnsC/dId1/2YMlpGCexiz0VflWBByUnIaBVJF1oPs2sE7XtHLODawk/kVuwMmDT3vI4+tQ6PpjzPM945fteKvW/vwcKwN+o7AIuMB8L0cWDH62R9RIDjNa2QFGbMpCoTdC0MzXSAR0EjXR32erq6GAgBNvmMrHMATO0+xQJ+SLJ7ssEjU3wD+K41t4fhL127w+AXlkaScoZvznVUJsFc6Qj4fU3H0Q+nq3BP4LwXhq86KJNyx6wO6k9aBd6JgRmxeQN20UzuBXszcGc70soGQZVBgdYXjvv78A5b5113IzUxI/Md2P2fikha9v2Zj6hw+ZTRIunGtJNwJLXkTiSrQZB7tRlTCNXhSHgyFVrTp2GDOp6RHFgLBLbzIERej63PcTgegzA7FAI07c15ORTdjLlNQhcvlMXQCu+Frf0JEITXICoB8xhUw5ykGfhpDjvVL6BVH2wnTmwLL6QNNzR4N0Brf4zlF/bzZ8BO9acQ2D+AXXnCDCcVn9B6D4aDF0N50ma/xoeReSCM0wnsM5jnnO27zKgWVcCTETZqjRcKs7CT/Qt2R1pBCzDQ3ovzn8KcZzbMV+iI9S7a/FVM+jZOdBkWO4NgpjQVToXfwhbjP4GNiZ6DbflV2F24GfQqYBM7DOYw5zuaojI4CH4T5efAHrACC4wnGLaSGDJTJr5NJCWvnhqRgUgDtC7EBNYBC5DZsNf9G8ym5uF4h9/8j+N14P0laNbSmqHtDOlXAufdbnSEBPYJkwR3MsWOwmBqr9DmST68qhk5x8UW/f8OoyKgD6+FKVHCyY/8Y0F2B0yEhoE3Lsri/FLM4vHQLTkiwHmrWN4xOTY1v7dDObALc88mHGtg5nQ+duvey2+NDYs650CaI0EhVIFFFRVBfPdGHYYxH6AW3fOFd/ufPPNSRtMqgXUAozpl9cHO/jswq2vimT3XeO/zXYr34PX0Q/NkEmPSmlVFqW/Kl3wWGasNUaNf8E5h5Bf04Fhorr+F7UJjCwht9OfQsn4HwiPTKTeHnegiaM1fQ/zfm/E/XwJUIBYQTH8Pu9HRSPl+I7TQJooFeYSQugHC42Dw/zGFap7zNMU/heB9EaKy3AObzJEQ+jbyGoT2zrCjLINN6XcgtM5IM2qNJh7xr0+E4PwDD6OEJprXGJsa9R+HMk/RDtalN3HixPsxQR8MLffNcBoNrAr2nD+EecmVyLI5AQuGaV6hapy/Bprsj2Em9QssBv4XuwW0ceWEsAft6oaX6icwPboF9n4TrFCMSaQENoivY9HGKBfXYUfmOtRLPwM+U/vh5HsMhOK9eCn/J7Tzpi44/F7AvACM6Q3TJOOTYHnAt1lcQKh+G1qlXtj23I0FxuX+RYuHdwkmSrNQYBeQF1sO32VYrFDQr0A7/UK8scdinffdd9/xENz/C+UTOyDYvXmM+QduvvlmjsEETdxyGexu12FcjIefw23UKPIyeQY+x8LBrhK0+gHDqG0f0wwZXY45ArHVOMYct1rsQfFCjWVXXmD4T32iR2DMmDGPcl5jDoHoqeeFol1IZ60RzwtXKYhS+IZsYXbn+eGuON7nF7rvoUx4ghA/Bu+6/Qg4MYsRuXDvfrynKZswmWUJdhZW4j16Hv7zvVenclQm7ch32WIQ9POhzc8HTfZVRnShUZ3udjC0y4xpPMyai/AatrWuz/cg8NOn0AjHsM105ITmfqgVIiFMr0Zkgk+p5YZWOXEbr2NV/T04vJ4Fv4JRMI2hffk+CIx/xLbZg126dFmYqg28HzS/hB34JsZ8RobKh9zyvA6nrypcX8s48niQx3lJXxLFYJP+NWhk1kHYZuzpWh8rIOMluQrOYK2xyLoUi4+pptMg+4LmGExA8zHp/Aq7EIyawclzO5LWXANHvrfghLfYFbo9eouxKOnH0JywmWVyHwvKDmz9Pg5zoEnYVpznlS3FNuKhEOAZTq8EZY/y6rDmDaVwgvsCTkufQaNfjsXR91NtScOUaj0WO+1gRkWfhe/bBmPBsRE4tcdOzCLYDCZi99vrwOhTXN/AqEpYgDzp1gHfi5Nw7SOcn+hrK/MX/BQ7LdPRp+PAO53pyHcVEqktRwSPi3Dfiroep6ov9ghI0I99F4lBiwDmcrNLDEE/H+Yd+QA6lGlcPirOgSZ33ml+aj54r+xlQs4c6JXAPPZe+N59AEUpV8CUwai8Yh82QgAJOmsbcx7IJdyhyamuEHzGcpFYDIK+GQ8hAA5bJF8dERmPVihlgzyBq855htPmyVxlW806eUEs+tFwABrN1PV+sGGDzhCO82GnnTC5odY/lbDq0sAD+SdEeHiRfQ36tfoSAuwGrNiP8q7XWJmzDkwWfRACtCToXkvMK3eif2LxeKSy+3WYotS4nqoN3n10JFoBe/gaTof++7y6H4cfxhPs1qDBSrxZDnb1o7BVb6M+1Crq0ToHtvGlzHwLQd+Useexa1Fmabk3e9cnAGfGME5o7J17TS6BoD7zNC4zcb2rTTzk3VdjjIR9CFWuQSBgdpwaREvVyKJGgPMeBEbTBiit2jD4BH4ujXmj+GzlwxQlL80mxhDIGUnOZKTmB6a2/Mo50zeUdC/5mWZ92D0/FIE2LsTvSVDIUd5tkPNRsQj6UQ68fK/oIuHVaoEjIVabiBt2LLAKxqP3X3CF/qCbPAExK7vGMPcG8WT5sKZE6fDyygVu4VmBP9OJJwzv5Csdfg7vSYX8gPbWwNurI+nEmep6GAzDtjVdP+h6g0HA+KCEXfA3GFTU0Ngh4O2kl8DcsiWikvXB/2UxHrd2t6xoFtPEEjvnI5FnItH32EF/FefzMhZYH/wEj0LCzptnzpw5CZXYrNp5qS/ORBuioJ+fUZW/XnYj2OSvFlEWAkJACESLgEx3osVT1PKIAHMLwDn0KHx/wRwyMRbyLQpF5ezOhRSS0DE/UOID89ZHgHPWtvMwN73g6quvvhemowyFyu0Bq+TiAqgx8kO0gu+YNeWpwLnILC+cZuSDZqQjvRgE/agF86jp2Q6JfWdHOnJETAgIASGQGgEJ+hohRYEAhXqYlAxEQInXEUjhFC+5U9x5d51x486r4Q8LqRoyJ0xrGMkva9kJIahfQRSfK+DbdwD8A4eh32woatZTtmTJkm8jKIXJHUPBX4J+UQyTnJnM94snH4sIDtCsH4RcEWto2+52+zahMslhEsoVe90vBIocgXzPt0UOj9iPEwKeZnkbhEWGFy7YOzcDTIpKo8/sz4iQY7Ig2w/etyaPULYfmPOyn74LR+ohWERs9vsPYvH22qhRow5BGeaX2c0Q3VwA4Mh6FyGA19iPlaKwV4/4obPCeD6E8mzHa6r7CjqIEBv/Rjja/h882hOe8n5mR48ePRkRXpbBsYZbY0X/QRjJJcxmW/QNUQOEgBAQAkIgLAKUCSgA0qkkZwfRsJXmUK6oBH1EuzsWSSRb2fYidPibiEr39xzan7gVkfomBgUJOfjggz9GBvj7ES3uZUS0mzJr1qzjEGgk6kiGroxWUHktGZbFIuhHMRYsjXwK+PmgXbCBgwx2R8CJ5duIod7MDYnl7wzYwH2GLLU7UaYYTMGSjiVq8997772L4IjVCeE0P49y0ImWEGiACBSVINIA+0dNro1AsbzDXGfcouhHhC2tsXg68sgjVyE3z5Z8M0/TIJjwHLxixYoWSIjWDEksmRQzSlmtYDJaWOyKRdCPEsgoOzgszrmUK5gzLrKznvbwww+f+tBDDw2pqKjYmqwRyIw6AnaNJ6UqkwsAdXkvkoTdiYRTpWPHjjWZfCOeEOqyKapLCMQBgWKbb+OAmXgoDAKJcJVFNO8XhXkc8YSgT/v5xGffvn0mtmZdfG688cYHkHRuJ+uCQjLqPAlRyqd5gSPWgr6bOCrC1se6zRG2M2dS9sH0ElEYoZcHst0ehnjwnVgBkmo1X79+/Vf5ba/bbySI6oTjGBxH7927l17x5n4euL8jafA3dg6+smbNmo6wpzvUo9kM97RFcqwD3EagDp5vh/PGRAhJtA7H/86kAR5beXUdiwmkVhgtr0xrlDkWx3+wbNBkjoRS1bi/zKXBcggJ1on1e/UehvuPzBlgERAC9RuBYkzoU797RK1Lh0CxLUyLQp7hOx7RcUZb8KHJL0FkozV1ZSKFBJJTkYvnS9aPdzvNkKPs59ibeRXFIIm4U/K5Ao5y8NhnomAafTiv7EK21s+RyXW91wels2fPvhT2+MuRHfUyCsAffPBBz8MPP7xy/vz553sMl86bN2/Q3Xff/RTOr8CxjMc111zzN2j9h3lpqkuReXc2sua+gky7PY4//vh3jz766HffeuutvqSBpBrfwD1rkO22pzsrw6yG51fDtOabrBtONk/DxGbpCy+8MOTcc8/9O64t5TFixIgXsAgweeK9hUXZ9OnThyET8bu4vgTHByw3bty4seB1gFsHFjdVZ5xxBuMn8+E1YwU+CFOQRfdpLj5YFhPWS7j/o3RvDF0XAg0cAQn6DXwAFFnzOd8X7H2bJVZFIcPhvX8AlGUJ5Rjs5lfh/X9Plm3O+Daa70DZWA0z45IOHTosyZhA6htir9EvFnu0KAdz0WSSs4IzvqPmOa1DMrXXEIwnDBgw4BMI4nPxkPaCwPvAtGnTjpk6dep1iH/7BLX4cHL57ZVXXrn4uOOO+18KxZMnT759yJAht7Vq1Wr7k08++d84R+17ObK4XvXYY4/9DoL3o48//vivkX3wKK7qn3/++RFjxoz5Lez1liAz4bNw6D1k4MCBDyEL7+Jjjjmm0mrdEYbrENT5KOLwLsaioBLZ7vrBf6Ans7T+4Ac/uAeOPZOGDx9+EMyNzrz33nsvQPzcr+Pel8kTeJwOU5zzrrjiisUQ0h/AOWr89w4bNmzE1772tQEo9xInAkQF6A1nnSOxKLgMjj1VEydOHAvHnW9hYdFs7ty5PbGo+IR98uMf/3gMeOlw+eWXYxewLPar+YgnNZETAmkR4HOLuYLzFg8rQKW9TwWEQAER2ANh8FPUbzKUF5CPTKqOUjbKpN6MyuI9WcoIORD4rexBM546xRgyRJMePXpsPOuss36VEfPpC9dpO9KzU2Ql+LKAjfgbELimRcE66JW/8847tyHu6lL8juwBIZ/jx4+f+4c//GFKFHxaGqQLYfsDmLV0j4ouaWKgUxtdDS37vCDzFWsKwzIQapfDpKYzvOM5AVZDyL+R2LEMHFvacFJ89NFHJxBbCNkXwk5/37PPPnsvU4h75Vi28c6dO9thwbBl6NCh70MgN7T69OmzmJp316QHjjJHkOakSZPuc8/TMZj3PPHEEzxfDiH/Rv7v2LHjBixCuvMc63n77be5PViN3YBLeO6OO+74MydtOOL0wP9GXjl+N4WDTh9sH1ZhscE2lUKoH8q6sQjpAWF/OBYie2HXt3716tUdo8JfdIRAQ0CAzxMidk144IEH3oxyrm0I2KmNhUMAkWEO5zuicByEq5nvsquuumo9dsn/yPdeuLsKU4pzAd61vbxQmCZcODT6lMHyYQER2EjW1a1bt5WIqLcGvyui6mPShbwzhm2CpcOX7JfCoJy61lgy5WPZbP8S0IhW2flKg5zPQRv1xJNWo9+8efMvGzduXIKJr0PPnj3fW7ZsWXMI6PMuvfRSasTN9uaBBx7IyDSlW7ZsMSGzIBwPhkBfDsG4O0x5LoMtHLXdLNsMD/mBu3btOnDdunVdunfvbpxiIFj3hE2863Vf2qJFi894DTQPcceBc74160SCjD28jodsKLbi/umVrcaq3WjYUd9eLjbmzJnTjSm2YWLUD5NNX+wA8DInxubgtQ3Kl3mLiBKE4qINH3clRt12220XkndMpN+B+dLKOD684kkIxBwBPmfF8I6JOYxir64QwLvE7NoWyYfv1sgUlvlsM8x0JkKbb6qASXAJzGMX57M+S9tbTFDeafTKK6+MuO666+7Fb9rok5moYunHXqMf90mYHcSXRVRCNOnkQ9C3YeSi7nDbbmqro1rohHm+Sn/+85+bXRTYvzf+yU9+8hG09cd62QITNoy33nrrdGjUd8N+/VEK8TfddNNlvAeZ6M7DF49aHwjWJdDAV2ARsRttMte5gLOr+5EjR06Hac4W2PA/7dxcivMzsauwr1+/fpNBoxX4+yGvOytzoymAjf1mfmMy2QJb/z5I0GHsAi+++OLbkzTc3EffgTvvvPMOlrnrrrvOh53/qw8++GA/8BnVZBAGd5URAvUJAZOdsj41SG0RAjFDIJ8+h5E0le/3Ll26GOUe37VQIq7H+/uSbBS3kC0ehoXDCaBD5acrb3GesWaClu/9WGDwnFEWwwLhAJjhtsS5OSwAy44tEPzvhqPuXyJpaIyJFIOgTx6jsoNmh3PhELXwZm1Q90XV1862lnUKjYo06aTT6Fe//PLLp1AQh3nPm9h+P//rX//6nbBvvx5a/d54aN8gESwCzmzbtu0exND/K814+OD+7Gc/mz548GBq/alxt7yXQ/BuDCG8FZx5R8DO/nRo4m+HNn+br1HVoNkN5jJbINS/6V0z2L744ovfaN++/W7Y7b8B854jZ8yYcTQmiz+dcMIJLGceeOwCtIO/wC8gsD/XuXPnd7F7cCzPwzTndpgNsRz7nWOAi73GMDPayRVGy5YtV8I8qT3MgbrAM38reBsOs6Kp2AF4H7b4zy5duvQrUYIvWkKgASBglR8NoKlqohAoCAJWLopawRh5Y7B7fzl8+lpSJsBu+/ZshHwyBd+9idiJ5/uYuNgTgQAAFxpJREFU84ttv9HYe4eVxSwmdgFQzozHMMfdRDNi7/6dkBMaRGLMuAv6ZRDGtkOrytVgTg5dnuBcDnOTHaDHFNeR7BLYrSHyCXtv2p5H9eEAZezZ/TBTWZdr+zNlivZ0J5544qe/+93vzuG9EPRnQns/hKmmIWzPA1+70N590ITbRVM1zGLKkEV3GRxz33AeQt5ehox4Zy9YsGAAr+P/6bBnq2RkG/8DD5q7QdJqAU0fQeA+C05STYG1SZftpSovgXPseiwWaG5jPriv8apVqw7B+XVYWGzHPWbVf/LJJ88G78zA504MZXCwvQplWoCXuYid35k07r///vGI4GN8LbCrMB2RfYYjGhDt/Z/PdnLKFHuVFwL1BAE+x8UWxaSeQK9mNAAE+D6LSgmaV7jw3n8/igpgZz8/CjoR04hEloyYpxrkYrutSgEaJiOvIlrLWXB0HXTDDTe8lKPzRilMMZ67/vrrR0DA67Ro0aJBUQBLR7Nrr7329d///vdnQkjsD60ybchz+rCdsI0/DZFj5sGp9ASsYl9HxBrjnJoT4X/d7NJIpgmgmVA5bOx3eBNJNYT72eiPx2FCM9iLJ88yVSjDRVg1FjrbEJVn2m9+8xv42w5d4JnUlNIkBhr8f8Am78WFCxd2xiJrNZnAff5tNsMcbehBlzsjZqEDbfrZSF39HPDgZQr1NM8x9vkQ0t22cFFkFnA4b8Y1fAHmwPF4LXYhnkHUHQrvhibs9c/77ne/uwRmQL/E7oCp1+YMYBQfD+NqbOv9BLsLW2GS9CDPWfwj6ocIulIkhEDsETCmcbHnUgwKgeJCwD5XRSHoFxe04rbOEKAwBe0uHTXNgIZ5hXHSzPZDgRzC5oeWHiJC3B6FwAZBthG2hCiYks/9GzZsyNnMg3zBmfVyyyu/4QRL4TlnQZ84QPil1MyoO/P9NPkfkW0YFnM/wk0yUk0iyRUi4dCRpRpa81MROvPX/M1wlqTJAzHxz0dYTTroVkOrvh0hM7fAkXUrHGm3IfwlowM0ganPl7DtnwE7+zZu3V49ZRC+6VhbjXu3wTFq86mnnmoiBFGbvnz58p6sBx77y2GKs4kmPPY+nu/du3dl165dcfrf52+55ZY/o36zGAFN8rQVMfB34dxWOA9faXmHnd7yk046ab0/CtBpp522DDsCm2DacxiddnF/JSMPZTsOdZ8QaAgI8LnCHPskzP7e4u+G0Ga1UQjUFQJUpCHqzkoEi5iC37GOulNXmBSiHsofMPVlPoBYR92J8wRc2r9//4RnNpwpl+Qo6JZCiFwGUw8zHmgSE8XAoAAKPheRFmOv438k5lBIUrUGgudG0kU0mJIzzzzzH/iZs6Cfrs1sT+vWrTcC7/mwk/8n/1uTFews3AJnmFnYvRgDTfdqlFmAMrRxMxo7CNkzEemmDdJNzwbva2H6sx6C8hJkwG0P4X4wHHabwwTofbRlJnYAPndNYexvCAd9Bg0atAj3rkPZD5HQqgt2dX4NjN/B9p+pCz4BG/F/Huzp13jtMfXDZGgtzr/B8x7f+5G4qz8y+XaErf0/SBPHJ4jzPwM7LwchdOlTHu90FlqH9swF1p+4bcZEejaFe+xGXMwoQ7j/Cyw6t+Q4FtN1g64LgfqAQE7mlvUBALVBCOQRAe2U5RHcDEhHHRUxg6qLvCi1QHCm7G4FMQiLx+eiGeIKmBplaJhNogY4d/48CmGNNGB//g3SpCnLxo0bO0QBPfl96qmnjNYcAu9aj/+cBX1Po7+KdIM0+uTdavGD2mE14JYft6yjXSfWRsvvHdwVcP+bcKl++q52Pqi8rctHN7Hj4NRVg3YA3aTXk/Bk+U/UFUUfi4YQqK8IeBr9ydDoz+VcUV/bqXYJgUIg4Gn0K6XRLwT6/66T8xw0+jTttRr9WO6uRKJ9zhPUjIl+oKWN34fi99Ic6jKmNTC12QttchMctD+P5APeDiIhmKVsjjBTajU14KQLno35Uq7OoI5wbQXdwB2dVPXQgdajY7QJAWUDbXJ5n11EJLnPhtlM2ycOD/76AzUcHo9JtR+prtv2oc1p+VIBISAEEgjYqDt6cDQohED0CPijy0RfgyiGRcAN2Z6zMjZspZmUi63pjidgufwRzFxBLN22bVvZwIEDP4SD57hcBWcf0MzaehfMXhghJ4oP2/ovO6N/tTvXtlueSMdq2LJa6FnTFj9+qc4nKndMgYJAcmkk+20XChH3X8o+q8u6ohg8oiEECowA55kKb96K7XumwBipeiGQMQKeos2NTGd2mjMmpBuiQIC4N/MImWAfURCNmkZWgl7UTATR48BdsWKFBZDmJHxpcFsk21j1Jp4qor0kXj7cdrGa5hzaxIeMmnd2cHscrCeKOP3liADTgnyBZ37R3KVWOMoM+bYLBjNJoO12YEaudauPgnE2bfJPwNnQyLCPVbzIEaiDl3bYl1G28wIVCU2wu3kgxjsVNI3QJtKiD1Mtmr72+nnLloesR4Ge0drQ1cGYzLq/UtwY9Ti39PzfyVgIM5b94zvdf9Kk3FaOccpAICYZlF8+yKC/XB5T7Yjno3+KmqaHMePzH+I0JOyYq9O2x1LQ9wBshAyp8++55561CMlYjggsy4FMhffCsFFujLzqIWYHKb/ttrEFk//5wmmN5EkLJk+e3Ba/mQaZCwjSollJugfM1mWFZbt1Vg4Hzb8iSdOKPXv2dEOhAzz+KezXEMydlbj/4bIPK+uwSaaawmn0xmeeeeZkhBelDRiF/l2gwRCSQfyGGTh8AcNnuNxo9LG7cRAcVbsj0xzDVfpTQgdNau7OQhDubn9YfCxfFt9kD4K//4L61nRZQENTCQPJrvn5cdsWdE+Yyb0WPsDXbUcJsE7WT3Ul0EQxEWVKwy2f6csymz4P8yy4c4O/fFD7/OeC2lSjrzMYpzVoe2Mmkzak4j8sn6nGfCperKme+zyZuRa5KTogilUztKcv/n/B+Qvjn/OMO4eW4npCWPGuuXOGS9+dI/zzip/HdM9T0vnee0bDvA+CcElXb6Z85jIO0t2b7DmudR59lGr8Jxv3qeYJF6ewfIQZy+nmFzue7LwSNL78c4NViJn3Jw7/eHXHs8XCyiDue9JtM3+7Ca9sTHz325Zx4+XbhI8Hb9++vR18Ao9E33wTtBihcC/GLu8p856pGs+Zx3ey95gfFytjVINm4jdouM+g/7e/XKo+9t8b9Lz570/W/0FzgZ9esnHhnvfjFfT82DLlwJgWF4dhnjvOK5iP5KbpnuFQ1zN9YYcimkshRENpNW3atFGg0QnHV2fNmnUykzcxpCL+f8nB7A0296FzO9o+FGwbO5vOtxTmKdgfXllZ2QHCfmNEhlmA/9u9h80ueCwepMF7rGbexck+5KRt4rbj0wqhGk9CVJbdCOG5wnvoWC8/7gvQ3dpxJxjWb504bEbZA7BSbIbsryf86Ec/WotIMkzGxYfZxpg3q3rW79ThLgAsfZ4ziw4cfAE3Qfbas1avNuHs9RECQkAI1CUCyV7AdcmD6hICQqDwCIRZFIeVUcPQCtvidHWyrlpl4KO5EwuvVpAHTWLPOH3SNajOeUW88rZTpkxhvHajdYc2n6Y21UiCZJIk4WO2hb1v1/QkmcDrCuyNsGhA0tQm+5AGmbHVKfxSwLaCvl1BU4C3mn7Wacx+vG/LA+ujAE2+ykCzGTX24NPWx2uubaoreNvFiB0wth385jmrXS9DLoHGYJUbGfYelrFCvtv+oNWzu3CxfVnKTMOIuHO+ZxJU532sCoWAEBACQkAICIF6jUCUwjeBSiev1nV9NTrvkUceeRPJQi+AoE/ZMlaf2JnuII45NddDPDOXZB0bpkODtnncc24c/UB6flvNNLakdiAmtsCysfUMsK1zFzCZDh4/fomtKSSXOg3RfLjIsRp/q/W3uNiydjFh/7s7Ean4SbZFmOyBdbfyXLrujkiy+lItcvy0gjCxZZKNK/e8u5q3mPj5CtqG9JdJNrbTbU+GmfDSTYhh+i3MWMv0OQzq1zD12DKp2pWOl7CYBJVL1iepxlKYdqWrKxmNMGPHP0789/jHtP9/mHHGMkHPZ2IO9Bpgd0GpLHGVFH5FiGu2YJUdyeaFMPhmUiYVPqme76Bxl2osphunQTxnek+qsZ7ttXRYhn1GXDphx3+6ZzfVfBs0rsPM8/45hzy4JjvWosAqAO3uurtrHwbrxDvZe5bc9yt/uzvypE2/xdY4OiNL/fcvuuiitUj2yIRNq3BQwOQ7nT6DPGhaYn0Gqby0h1VG2m+/KXAQD/5z9n8ycx33PWnnkmTPWJhn3H3XBskWLh/uvOQft6nmzqAx7Pa7tbwgxsb3yMO3Eawu7u7Tp8+fvf5K96zU+fXYCfqJp+tfTluZTnAugLncG9gRPsE9cvrmaajtrJZLPanunVvno00VCgEh0CARSKLA8GORmK+yUZI0SGDrQaMzcByt1dp8jpM0fOW6yE/Vc6mUPZTZaOXQCUrRQfBd/AhJK6fgP816XVPjIDNhKwCb5yyf2NWDYZm0CY4S2i4CSlu0aHE9fB65sMpFXssbbLEV9PPWYhEWAkJACAiBOkUgYgVGnfKuyvKLQFwFzjR8FUSgg5Bpndk3U+DErjyFzV3g1Y1GaHcC8ttxDZS6Ny5s/1ehH5gglGi4O5SxQie2jMUKJTEjBISAEBACQkAICIECIuCEA2eSThNco4DsqOp/I2CjIcUSEwn6sewWMSUEhIAQEAJCQAgIgVoIUItv7e9pLy45rrCDhP3BfrCJSAvLTUDtGiCx6xIxJASEgBAQAkJACAiBQAToeLoVh5uTQlAVDgEr6EeRKDUvrZCgnxdYRVQICAEhIASEgBAQApEjwOg563Ewyo7NKxR5JSKYEQIU9hlqvSC+G+k4laCfDiFdFwJCQAgIASEgBIRADBDwHG93gBUm5YytcBkDqOqKBSvcx7YvJOjX1VBQPUJACAgBISAEhIAQyB0Bmokw0g6FfTcnUO6URSFTBKygH9vdFQn6mXapygsBISAEhIAQEAJCoHAI2ARRsdUiFw6agtUc2wWXBP2CjQlVLASEgBAQAkJACAiBrBCwCZuyulk3RYaAzQIcW3k6toxF1gUiJASEgBAQAkJACAiB+oOAzZ7LsI7+LL2xbiWSS5Ux2ZeXaKoG7zYbMcvEuhG1mSO/Cq9ZZJ0mdoWAEBACQkAICAEhEFcEKCQ3KhZBf+7cucO7d+++pE+fPjz+b+LEic9BoG/qCv7PP//8uLPPPvsfc+bMGY7zbFuxfCjo84jloqvYVk3F0uniUwgIASEgBISAEBAC+USAWuRYCpduo7du3drutddeG3znnXcunTVr1sU4+m/evLndY4899vz+/ftN8i8I+fcvXry4K671euGFFwZD2P9REWn22Qex74d8DkTRFgJCQAgIASEgBISAEIgAAQjATa666qqPX3311b/j94ERkMwrCQj6h0KAHwteD8PRGUcnHG179OhRuWvXrlYU6PH7I2rx2bZPPvmkF7T+K6wpT16Zy5E4eR80aNDK9957b2RcdyGKaWskx+7Q7UJACAgBISAEhIAQKHoE3MRMsdckt2jRYgOE4FuBenllZWU/CPftpk6d+r2dO3c2xmc7teEVFRWNdu/efVDTpk234HyLZs2axdbmPcnoiW3UHQn6Rf+8qwFCQAgIASEgBIRAA0LACvrGLpyab3ximZXV9gkTfYHP/ePHj7/8448/PubEE0/c8dZbb51RVlZmBWQbMpTfzBNQbKblscW/2IBsQM+xmioEhIAQEAJCQAgIgVoIWKHShtgsFlmuety4cRdOmzatS9++fV++6aabntm7d28FWsf22MM2NrYa8mIbj8UyOIoNV/ErBISAEBACQkAICIF8ImCjvcRaltuzZ0/52rVrO3L3wQOj+owzzrh9wYIFbaqqqoxlCcx2ymG2s5Vl8L0D5j2xN0ny2kI+bSz9fPZ11rRjPTiybpVuFAJCQAgIASEgBIRA/UXATdRUKx69F6e+PA4OrV988UV7RNx5BML+UZ6wX/3222//8JRTTvmsvLx8H86VnX766RsRmecXvD579uyRvXv33uAsDGLZi15UIBtxJ7Y+BbLRj+XwEVNCQAgIASEgBISAEEiKgDVtMcmavIgvFP7deO5N8H8/ru2DjfyeIEreQsAKq3bBUBWlzX/btm3XDRgwYNG55547u2vXruSjrEuXLhvHjh17GZxxd1Kgx+9eOGY8/PDDy88777yPR40adVYc+t5ZKNm8Ba6JkZsoK7aKcwn6cRhJ4kEICAEhIASEgBAQAuEQoLBZhcg02/DdBM6tvfC9y7u1dPjw4Y8vWbLk0F/+8pd/RejHYTi/lRp+Cv04XPt+a+PvfpNMFcrTIdZvOx/kcOruJgTZ2hsB+YILLrgLQv5HsMk/Fv+bdu7cmdr7zRTyWQ+ccqtGjhx58YcffjgM1572zjOLLvmht3FGzq4BOxkun/7fLiaszy58KLxXn3POOQtXrlx52OjRo/+GhF6Tce5Lnscipbp9+/b/06hRI/KZEX/hujmaUsViAxVNa0VFCAgBISAEhIAQEAJFjABNRoYOHfp+mzZtOsD0ZdPdd9/9laDmXHHFFSUQTD/Etc9x7PUJ+Vbzb+38XRI0p+Fhdw38CaGSyY4UdnmPjZxDmlxgNIKg3hTCfCv8bo6jComyPkM7aJNPjT7LN0WZZihzCOz2d+M/w27ym9e5iOFOgKXrLljI//941/uSDg4m4QpKJua2I2iB4u5sWNv7xnAa7r5p06ZaELds2XLPfffdt2jChAknT548+VrsUkxCG7hAitVHGv1YdYeYEQJCQAgIASEgBIRAWgQoLO9h2MpkJSFIb4fQTO3zFhxuyEor0LpaaFcb75qnuNp+v4kPq7YCcTI2WC95pOBOadmWp7DO3/abgrwt579G4b2x1wbSswfLfYpjBY7VOGiq1AcHFzWkbYV9K9T7Fyzk2b/D4d7D8qw38ENzKeBr+eZ3LLX6EvST9aDOCwEhIASEgBAQAkIgfghU79u3b3///v2n9erV64arr776JE+4NRr4a6+99kGY7rQbOHDgk5dccsldOEUBOrQQGsZMJpWTb5j7jYSN+P/poA1Ly6PzLr7vszR99JOZ7vhZcBczxnRnypQpc6zpDpyEX8Q5Llr2NmnSZPcRRxyxEFl/FyKyEOXp0Bina3eU1yXoR4mmaAkBISAEhIAQEAJCIL8IGK34jh07KHBu7dSp0xvWZITC7YwZM75hq89QUA7NdRR0o6CRimEf/ayFcGB6OuqxOxv+eP8lWHTtRl3si1h+YuslHEu0xJQQEAJCQAgIASEgBAqLQDXMdtZDAK0EG4yok7ALp3DrHoVls37UDjz3E2Mce2kq5f3mf3OgLzahL3ble+FSP9BUK4SAEBACQkAICAEhIARSIrBx48YjodFvLZgKj8D69evbIeHXwYXnRBwIASEgBISAEBACQkAICAEhIASEgBAQAkJACAgBISAEhIAQEAJCQAgIASEgBISAEBACQkAICAEhIASEgBAQAkJACAgBISAEhIAQEAJCQAgIASEgBISAEBACQkAICAEhIASEgBAQAkJACAgBISAEhIAQEAJCQAgIASEgBISAEBACQkAICAEhIASEgBAQAkJACAgBISAEhIAQEAJCQAgIASEgBISAEBACQkAICAEhIASEgBAQAkJACAgBISAEhIAQEAJCQAgIASEgBISAEBACQkAICAEhIASEgBAQAkJACAgBISAEhIAQEAJCQAgIASEgBISAEBACQkAICAEhIASEgBAQAkJACAgBISAEhIAQEAJCQAgIASEgBISAEBACQkAICAEhIASEgBAQAkJACAgBISAEhIAQEAJCQAgIASEgBISAEBACQqCBI/D/I8MubqszJm0AAAAASUVORK5CYII=;fontFamily=Courier New;" vertex="1" parent="1">
                    <mxGeometry x="513" y="478" width="471.59" height="190" as="geometry"/>
                </mxCell>
            </root>
        </mxGraphModel>
    </diagram>
</mxfile>
